<svg width="648" height="264" xmlns="http://www.w3.org/2000/svg">
  <style>
    text { font-family: "Courier New", monospace; font-size: 12px; }
  </style>
  <text x="151.2" y="36" fill="rgb(78,102,44)">·</text>
  <text x="158.39999999999998" y="36" fill="rgb(86,102,68)">○</text>
  <text x="165.59999999999997" y="36" fill="rgb(90,102,81)">○</text>
  <text x="172.79999999999995" y="36" fill="rgb(91,102,85)">◉</text>
  <text x="179.99999999999994" y="36" fill="rgb(91,102,86)">◉</text>
  <text x="187.19999999999993" y="36" fill="rgb(89,102,85)">◉</text>
  <text x="194.39999999999992" y="36" fill="rgb(87,102,84)">◉</text>
  <text x="201.5999999999999" y="36" fill="rgb(80,102,77)">○</text>
  <text x="208.7999999999999" y="36" fill="rgb(63,102,60)">*</text>
  <text x="215.9999999999999" y="36" fill="rgb(32,102,32)">.</text>
  <text x="259.1999999999998" y="36" fill="rgb(41,102,65)">·</text>
  <text x="266.3999999999998" y="36" fill="rgb(66,102,82)">*</text>
  <text x="273.5999999999998" y="36" fill="rgb(80,102,92)">○</text>
  <text x="280.7999999999998" y="36" fill="rgb(85,102,95)">◉</text>
  <text x="287.9999999999998" y="36" fill="rgb(85,102,96)">◉</text>
  <text x="295.19999999999976" y="36" fill="rgb(85,102,97)">◉</text>
  <text x="302.39999999999975" y="36" fill="rgb(84,102,98)">◉</text>
  <text x="309.59999999999974" y="36" fill="rgb(79,102,98)">○</text>
  <text x="316.7999999999997" y="36" fill="rgb(63,102,99)">*</text>
  <text x="323.9999999999997" y="36" fill="rgb(36,102,102)">·</text>
  <text x="367.19999999999965" y="36" fill="rgb(37,76,102)">·</text>
  <text x="374.39999999999964" y="36" fill="rgb(64,84,102)">*</text>
  <text x="381.5999999999996" y="36" fill="rgb(79,90,102)">○</text>
  <text x="388.7999999999996" y="36" fill="rgb(84,91,102)">◉</text>
  <text x="395.9999999999996" y="36" fill="rgb(85,90,102)">◉</text>
  <text x="403.1999999999996" y="36" fill="rgb(85,89,102)">◉</text>
  <text x="410.3999999999996" y="36" fill="rgb(85,88,102)">◉</text>
  <text x="417.59999999999957" y="36" fill="rgb(80,83,102)">○</text>
  <text x="424.79999999999956" y="36" fill="rgb(65,68,102)">*</text>
  <text x="431.99999999999955" y="36" fill="rgb(39,39,102)">·</text>
  <text x="475.1999999999995" y="36" fill="rgb(60,34,102)">·</text>
  <text x="482.39999999999947" y="36" fill="rgb(80,60,102)">*</text>
  <text x="489.59999999999945" y="36" fill="rgb(90,78,102)">○</text>
  <text x="496.79999999999944" y="36" fill="rgb(94,84,102)">◉</text>
  <text x="503.99999999999943" y="36" fill="rgb(96,84,102)">◉</text>
  <text x="511.1999999999994" y="36" fill="rgb(96,83,102)">○</text>
  <text x="518.3999999999994" y="36" fill="rgb(98,84,102)">◉</text>
  <text x="525.5999999999995" y="36" fill="rgb(99,81,102)">○</text>
  <text x="532.7999999999995" y="36" fill="rgb(99,68,102)">○</text>
  <text x="539.9999999999995" y="36" fill="rgb(102,43,102)">·</text>
  <text x="136.8" y="48" fill="rgb(89,102,55)">*</text>
  <text x="144.0" y="48" fill="rgb(97,102,89)">◉</text>
  <text x="151.2" y="48" fill="rgb(96,102,88)">◉</text>
  <text x="158.39999999999998" y="48" fill="rgb(83,102,63)">*</text>
  <text x="165.59999999999997" y="48" fill="rgb(68,102,38)">·</text>
  <text x="172.79999999999995" y="48" fill="rgb(55,102,24)">.</text>
  <text x="179.99999999999994" y="48" fill="rgb(46,102,18)">.</text>
  <text x="187.19999999999993" y="48" fill="rgb(41,102,19)">.</text>
  <text x="194.39999999999992" y="48" fill="rgb(43,102,28)">.</text>
  <text x="201.5999999999999" y="48" fill="rgb(53,102,46)">·</text>
  <text x="208.7999999999999" y="48" fill="rgb(75,102,73)">○</text>
  <text x="215.9999999999999" y="48" fill="rgb(93,102,93)">◉</text>
  <text x="223.19999999999987" y="48" fill="rgb(80,102,81)">○</text>
  <text x="230.39999999999986" y="48" fill="rgb(35,102,44)">·</text>
  <text x="244.79999999999984" y="48" fill="rgb(48,102,62)">·</text>
  <text x="251.99999999999983" y="48" fill="rgb(86,102,91)">◉</text>
  <text x="259.1999999999998" y="48" fill="rgb(90,102,94)">◉</text>
  <text x="266.3999999999998" y="48" fill="rgb(65,102,82)">*</text>
  <text x="273.5999999999998" y="48" fill="rgb(41,102,73)">·</text>
  <text x="280.7999999999998" y="48" fill="rgb(26,102,71)">.</text>
  <text x="287.9999999999998" y="48" fill="rgb(19,102,74)">.</text>
  <text x="295.19999999999976" y="48" fill="rgb(19,102,79)">.</text>
  <text x="302.39999999999975" y="48" fill="rgb(27,102,86)">.</text>
  <text x="309.59999999999974" y="48" fill="rgb(44,102,94)">·</text>
  <text x="316.7999999999997" y="48" fill="rgb(70,102,99)">○</text>
  <text x="323.9999999999997" y="48" fill="rgb(91,102,102)">◉</text>
  <text x="331.1999999999997" y="48" fill="rgb(84,100,102)">◉</text>
  <text x="338.3999999999997" y="48" fill="rgb(42,93,102)">·</text>
  <text x="352.79999999999967" y="48" fill="rgb(42,86,102)">·</text>
  <text x="359.99999999999966" y="48" fill="rgb(84,96,102)">◉</text>
  <text x="367.19999999999965" y="48" fill="rgb(92,98,102)">◉</text>
  <text x="374.39999999999964" y="48" fill="rgb(70,87,102)">○</text>
  <text x="381.5999999999996" y="48" fill="rgb(43,70,102)">·</text>
  <text x="388.7999999999996" y="48" fill="rgb(27,56,102)">.</text>
  <text x="395.9999999999996" y="48" fill="rgb(19,46,102)">.</text>
  <text x="403.1999999999996" y="48" fill="rgb(18,40,102)">.</text>
  <text x="410.3999999999996" y="48" fill="rgb(26,41,102)">.</text>
  <text x="417.59999999999957" y="48" fill="rgb(41,49,102)">·</text>
  <text x="424.79999999999956" y="48" fill="rgb(67,69,102)">○</text>
  <text x="431.99999999999955" y="48" fill="rgb(91,91,102)">◉</text>
  <text x="439.19999999999953" y="48" fill="rgb(87,86,102)">◉</text>
  <text x="446.3999999999995" y="48" fill="rgb(54,47,102)">·</text>
  <text x="460.7999999999995" y="48" fill="rgb(53,36,102)">·</text>
  <text x="467.9999999999995" y="48" fill="rgb(88,81,102)">○</text>
  <text x="475.1999999999995" y="48" fill="rgb(96,93,102)">◉</text>
  <text x="482.39999999999947" y="48" fill="rgb(86,72,102)">○</text>
  <text x="489.59999999999945" y="48" fill="rgb(76,46,102)">·</text>
  <text x="496.79999999999944" y="48" fill="rgb(72,28,102)">.</text>
  <text x="503.99999999999943" y="48" fill="rgb(77,28,102)">.</text>
  <text x="511.1999999999994" y="48" fill="rgb(84,37,102)">·</text>
  <text x="518.3999999999994" y="48" fill="rgb(88,32,102)">.</text>
  <text x="525.5999999999995" y="48" fill="rgb(93,38,102)">·</text>
  <text x="532.7999999999995" y="48" fill="rgb(99,63,102)">*</text>
  <text x="539.9999999999995" y="48" fill="rgb(102,88,102)">◉</text>
  <text x="547.1999999999996" y="48" fill="rgb(102,89,100)">◉</text>
  <text x="554.3999999999996" y="48" fill="rgb(102,54,95)">*</text>
  <text x="129.60000000000002" y="60" fill="rgb(96,102,73)">○</text>
  <text x="136.8" y="60" fill="rgb(100,102,95)">◉</text>
  <text x="144.0" y="60" fill="rgb(89,102,64)">*</text>
  <text x="215.9999999999999" y="60" fill="rgb(29,102,29)">.</text>
  <text x="223.19999999999987" y="60" fill="rgb(82,102,83)">○</text>
  <text x="230.39999999999986" y="60" fill="rgb(91,102,92)">◉</text>
  <text x="237.59999999999985" y="60" fill="rgb(79,102,83)">○</text>
  <text x="244.79999999999984" y="60" fill="rgb(94,102,96)">◉</text>
  <text x="251.99999999999983" y="60" fill="rgb(70,102,80)">○</text>
  <text x="259.1999999999998" y="60" fill="rgb(19,102,52)">.</text>
  <text x="323.9999999999997" y="60" fill="rgb(24,102,102)">.</text>
  <text x="331.1999999999997" y="60" fill="rgb(77,100,102)">○</text>
  <text x="338.3999999999997" y="60" fill="rgb(92,100,102)">◉</text>
  <text x="345.5999999999997" y="60" fill="rgb(79,97,102)">○</text>
  <text x="352.79999999999967" y="60" fill="rgb(92,99,102)">◉</text>
  <text x="359.99999999999966" y="60" fill="rgb(75,93,102)">○</text>
  <text x="367.19999999999965" y="60" fill="rgb(24,70,102)">.</text>
  <text x="431.99999999999955" y="60" fill="rgb(20,20,102)">.</text>
  <text x="439.19999999999953" y="60" fill="rgb(73,71,102)">○</text>
  <text x="446.3999999999995" y="60" fill="rgb(94,94,102)">◉</text>
  <text x="453.5999999999995" y="60" fill="rgb(83,78,102)">○</text>
  <text x="460.7999999999995" y="60" fill="rgb(94,91,102)">◉</text>
  <text x="467.9999999999995" y="60" fill="rgb(88,81,102)">○</text>
  <text x="475.1999999999995" y="60" fill="rgb(58,29,102)">.</text>
  <text x="503.99999999999943" y="60" fill="rgb(94,79,102)">○</text>
  <text x="511.1999999999994" y="60" fill="rgb(99,91,102)">◉</text>
  <text x="518.3999999999994" y="60" fill="rgb(95,70,102)">○</text>
  <text x="547.1999999999996" y="60" fill="rgb(102,64,99)">*</text>
  <text x="554.3999999999996" y="60" fill="rgb(102,95,100)">◉</text>
  <text x="561.5999999999997" y="60" fill="rgb(102,72,96)">○</text>
  <text x="122.40000000000003" y="72" fill="rgb(96,102,57)">*</text>
  <text x="129.60000000000002" y="72" fill="rgb(100,102,95)">◉</text>
  <text x="136.8" y="72" fill="rgb(92,102,68)">○</text>
  <text x="223.19999999999987" y="72" fill="rgb(22,102,27)">.</text>
  <text x="230.39999999999986" y="72" fill="rgb(86,102,88)">◉</text>
  <text x="237.59999999999985" y="72" fill="rgb(92,102,94)">◉</text>
  <text x="244.79999999999984" y="72" fill="rgb(76,102,83)">○</text>
  <text x="338.3999999999997" y="72" fill="rgb(82,99,102)">○</text>
  <text x="345.5999999999997" y="72" fill="rgb(92,100,102)">◉</text>
  <text x="352.79999999999967" y="72" fill="rgb(81,96,102)">○</text>
  <text x="446.3999999999995" y="72" fill="rgb(80,77,102)">○</text>
  <text x="453.5999999999995" y="72" fill="rgb(94,92,102)">◉</text>
  <text x="460.7999999999995" y="72" fill="rgb(90,86,102)">◉</text>
  <text x="467.9999999999995" y="72" fill="rgb(48,21,102)">.</text>
  <text x="503.99999999999943" y="72" fill="rgb(80,35,102)">·</text>
  <text x="511.1999999999994" y="72" fill="rgb(90,58,102)">*</text>
  <text x="518.3999999999994" y="72" fill="rgb(88,37,102)">·</text>
  <text x="554.3999999999996" y="72" fill="rgb(102,71,98)">○</text>
  <text x="561.5999999999997" y="72" fill="rgb(102,95,100)">◉</text>
  <text x="568.7999999999997" y="72" fill="rgb(102,55,89)">*</text>
  <text x="64.80000000000001" y="84" fill="rgb(102,68,18)">.</text>
  <text x="72.00000000000001" y="84" fill="rgb(102,93,76)">○</text>
  <text x="79.20000000000002" y="84" fill="rgb(102,96,80)">○</text>
  <text x="86.40000000000002" y="84" fill="rgb(102,97,80)">○</text>
  <text x="93.60000000000002" y="84" fill="rgb(102,99,82)">○</text>
  <text x="100.80000000000003" y="84" fill="rgb(102,100,82)">○</text>
  <text x="108.00000000000003" y="84" fill="rgb(102,102,82)">○</text>
  <text x="115.20000000000003" y="84" fill="rgb(100,102,82)">○</text>
  <text x="122.40000000000003" y="84" fill="rgb(100,102,90)">◉</text>
  <text x="129.60000000000002" y="84" fill="rgb(100,102,93)">◉</text>
  <text x="136.8" y="84" fill="rgb(84,102,37)">·</text>
  <text x="179.99999999999994" y="84" fill="rgb(82,102,72)">○</text>
  <text x="187.19999999999993" y="84" fill="rgb(81,102,74)">○</text>
  <text x="230.39999999999986" y="84" fill="rgb(68,102,72)">○</text>
  <text x="237.59999999999985" y="84" fill="rgb(95,102,96)">◉</text>
  <text x="244.79999999999984" y="84" fill="rgb(47,102,61)">·</text>
  <text x="287.9999999999998" y="84" fill="rgb(67,102,90)">○</text>
  <text x="295.19999999999976" y="84" fill="rgb(78,102,95)">○</text>
  <text x="302.39999999999975" y="84" fill="rgb(18,102,84)">.</text>
  <text x="338.3999999999997" y="84" fill="rgb(58,96,102)">*</text>
  <text x="345.5999999999997" y="84" fill="rgb(96,100,102)">◉</text>
  <text x="352.79999999999967" y="84" fill="rgb(57,90,102)">*</text>
  <text x="395.9999999999996" y="84" fill="rgb(60,74,102)">*</text>
  <text x="403.1999999999996" y="84" fill="rgb(81,86,102)">○</text>
  <text x="410.3999999999996" y="84" fill="rgb(26,41,102)">.</text>
  <text x="446.3999999999995" y="84" fill="rgb(55,48,102)">·</text>
  <text x="453.5999999999995" y="84" fill="rgb(96,95,102)">◉</text>
  <text x="460.7999999999995" y="84" fill="rgb(75,66,102)">*</text>
  <text x="503.99999999999943" y="84" fill="rgb(84,49,102)">·</text>
  <text x="511.1999999999994" y="84" fill="rgb(95,78,102)">○</text>
  <text x="518.3999999999994" y="84" fill="rgb(97,79,102)">○</text>
  <text x="525.5999999999995" y="84" fill="rgb(99,82,102)">○</text>
  <text x="532.7999999999995" y="84" fill="rgb(100,82,102)">○</text>
  <text x="539.9999999999995" y="84" fill="rgb(102,82,102)">○</text>
  <text x="547.1999999999996" y="84" fill="rgb(102,81,100)">○</text>
  <text x="554.3999999999996" y="84" fill="rgb(102,86,99)">◉</text>
  <text x="561.5999999999997" y="84" fill="rgb(102,93,100)">◉</text>
  <text x="568.7999999999997" y="84" fill="rgb(102,72,94)">○</text>
  <text x="64.80000000000001" y="96" fill="rgb(102,68,17)">.</text>
  <text x="72.00000000000001" y="96" fill="rgb(102,97,88)">◉</text>
  <text x="79.20000000000002" y="96" fill="rgb(102,99,92)">◉</text>
  <text x="86.40000000000002" y="96" fill="rgb(102,91,50)">*</text>
  <text x="93.60000000000002" y="96" fill="rgb(102,92,27)">.</text>
  <text x="100.80000000000003" y="96" fill="rgb(102,96,29)">.</text>
  <text x="108.00000000000003" y="96" fill="rgb(102,102,29)">.</text>
  <text x="115.20000000000003" y="96" fill="rgb(96,102,29)">.</text>
  <text x="122.40000000000003" y="96" fill="rgb(92,102,29)">.</text>
  <text x="129.60000000000002" y="96" fill="rgb(86,102,25)">.</text>
  <text x="172.79999999999995" y="96" fill="rgb(61,102,35)">·</text>
  <text x="179.99999999999994" y="96" fill="rgb(95,102,92)">◉</text>
  <text x="187.19999999999993" y="96" fill="rgb(95,102,93)">◉</text>
  <text x="194.39999999999992" y="96" fill="rgb(50,102,37)">·</text>
  <text x="237.59999999999985" y="96" fill="rgb(26,102,40)">.</text>
  <text x="280.7999999999998" y="96" fill="rgb(26,102,71)">.</text>
  <text x="287.9999999999998" y="96" fill="rgb(90,102,98)">◉</text>
  <text x="295.19999999999976" y="96" fill="rgb(94,102,99)">◉</text>
  <text x="302.39999999999975" y="96" fill="rgb(46,102,90)">·</text>
  <text x="345.5999999999997" y="96" fill="rgb(26,86,102)">.</text>
  <text x="388.7999999999996" y="96" fill="rgb(16,50,102)">.</text>
  <text x="395.9999999999996" y="96" fill="rgb(87,92,102)">◉</text>
  <text x="403.1999999999996" y="96" fill="rgb(94,96,102)">◉</text>
  <text x="410.3999999999996" y="96" fill="rgb(57,66,102)">*</text>
  <text x="453.5999999999995" y="96" fill="rgb(41,26,102)">.</text>
  <text x="503.99999999999943" y="96" fill="rgb(95,83,102)">○</text>
  <text x="511.1999999999994" y="96" fill="rgb(99,94,102)">◉</text>
  <text x="518.3999999999994" y="96" fill="rgb(91,51,102)">*</text>
  <text x="525.5999999999995" y="96" fill="rgb(92,28,102)">.</text>
  <text x="532.7999999999995" y="96" fill="rgb(96,29,102)">.</text>
  <text x="539.9999999999995" y="96" fill="rgb(102,29,102)">.</text>
  <text x="547.1999999999996" y="96" fill="rgb(102,29,96)">.</text>
  <text x="554.3999999999996" y="96" fill="rgb(102,28,92)">.</text>
  <text x="561.5999999999997" y="96" fill="rgb(102,28,87)">.</text>
  <text x="72.00000000000001" y="108" fill="rgb(102,84,50)">*</text>
  <text x="79.20000000000002" y="108" fill="rgb(102,100,94)">◉</text>
  <text x="86.40000000000002" y="108" fill="rgb(102,96,75)">○</text>
  <text x="93.60000000000002" y="108" fill="rgb(102,90,16)">.</text>
  <text x="165.59999999999997" y="108" fill="rgb(60,102,25)">.</text>
  <text x="172.79999999999995" y="108" fill="rgb(90,102,82)">○</text>
  <text x="179.99999999999994" y="108" fill="rgb(95,102,92)">◉</text>
  <text x="187.19999999999993" y="108" fill="rgb(94,102,91)">◉</text>
  <text x="194.39999999999992" y="108" fill="rgb(86,102,83)">○</text>
  <text x="201.5999999999999" y="108" fill="rgb(35,102,25)">.</text>
  <text x="273.5999999999998" y="108" fill="rgb(18,102,62)">.</text>
  <text x="280.7999999999998" y="108" fill="rgb(77,102,92)">○</text>
  <text x="287.9999999999998" y="108" fill="rgb(92,102,98)">◉</text>
  <text x="295.19999999999976" y="108" fill="rgb(91,102,98)">◉</text>
  <text x="302.39999999999975" y="108" fill="rgb(87,102,98)">◉</text>
  <text x="309.59999999999974" y="108" fill="rgb(32,102,92)">.</text>
  <text x="388.7999999999996" y="108" fill="rgb(71,83,102)">○</text>
  <text x="395.9999999999996" y="108" fill="rgb(93,96,102)">◉</text>
  <text x="403.1999999999996" y="108" fill="rgb(90,93,102)">◉</text>
  <text x="410.3999999999996" y="108" fill="rgb(90,92,102)">◉</text>
  <text x="417.59999999999957" y="108" fill="rgb(39,47,102)">·</text>
  <text x="496.79999999999944" y="108" fill="rgb(86,64,102)">*</text>
  <text x="503.99999999999943" y="108" fill="rgb(99,95,102)">◉</text>
  <text x="511.1999999999994" y="108" fill="rgb(92,68,102)">○</text>
  <text x="79.20000000000002" y="120" fill="rgb(102,87,46)">·</text>
  <text x="86.40000000000002" y="120" fill="rgb(102,99,89)">◉</text>
  <text x="93.60000000000002" y="120" fill="rgb(102,100,89)">◉</text>
  <text x="100.80000000000003" y="120" fill="rgb(102,98,55)">*</text>
  <text x="108.00000000000003" y="120" fill="rgb(102,102,24)">.</text>
  <text x="151.2" y="120" fill="rgb(72,102,27)">.</text>
  <text x="158.39999999999998" y="120" fill="rgb(82,102,59)">*</text>
  <text x="165.59999999999997" y="120" fill="rgb(96,102,91)">◉</text>
  <text x="172.79999999999995" y="120" fill="rgb(92,102,86)">◉</text>
  <text x="179.99999999999994" y="120" fill="rgb(61,102,40)">·</text>
  <text x="187.19999999999993" y="120" fill="rgb(56,102,40)">·</text>
  <text x="194.39999999999992" y="120" fill="rgb(89,102,86)">◉</text>
  <text x="201.5999999999999" y="120" fill="rgb(92,102,91)">◉</text>
  <text x="208.7999999999999" y="120" fill="rgb(63,102,60)">*</text>
  <text x="215.9999999999999" y="120" fill="rgb(27,102,27)">.</text>
  <text x="259.1999999999998" y="120" fill="rgb(24,102,55)">.</text>
  <text x="266.3999999999998" y="120" fill="rgb(55,102,76)">*</text>
  <text x="273.5999999999998" y="120" fill="rgb(89,102,96)">◉</text>
  <text x="280.7999999999998" y="120" fill="rgb(89,102,96)">◉</text>
  <text x="287.9999999999998" y="120" fill="rgb(46,102,83)">·</text>
  <text x="295.19999999999976" y="120" fill="rgb(35,102,84)">·</text>
  <text x="302.39999999999975" y="120" fill="rgb(82,102,97)">○</text>
  <text x="309.59999999999974" y="120" fill="rgb(94,102,100)">◉</text>
  <text x="316.7999999999997" y="120" fill="rgb(65,102,99)">*</text>
  <text x="323.9999999999997" y="120" fill="rgb(31,102,102)">.</text>
  <text x="367.19999999999965" y="120" fill="rgb(21,69,102)">.</text>
  <text x="374.39999999999964" y="120" fill="rgb(50,77,102)">*</text>
  <text x="381.5999999999996" y="120" fill="rgb(86,93,102)">◉</text>
  <text x="388.7999999999996" y="120" fill="rgb(92,96,102)">◉</text>
  <text x="395.9999999999996" y="120" fill="rgb(52,69,102)">*</text>
  <text x="403.1999999999996" y="120" fill="rgb(31,50,102)">.</text>
  <text x="410.3999999999996" y="120" fill="rgb(78,82,102)">○</text>
  <text x="417.59999999999957" y="120" fill="rgb(94,94,102)">◉</text>
  <text x="424.79999999999956" y="120" fill="rgb(69,71,102)">○</text>
  <text x="431.99999999999955" y="120" fill="rgb(34,34,102)">·</text>
  <text x="475.1999999999995" y="120" fill="rgb(52,19,102)">.</text>
  <text x="482.39999999999947" y="120" fill="rgb(72,45,102)">·</text>
  <text x="489.59999999999945" y="120" fill="rgb(92,82,102)">○</text>
  <text x="496.79999999999944" y="120" fill="rgb(98,92,102)">◉</text>
  <text x="503.99999999999943" y="120" fill="rgb(88,61,102)">*</text>
  <text x="86.40000000000002" y="132" fill="rgb(102,85,18)">.</text>
  <text x="93.60000000000002" y="132" fill="rgb(102,95,52)">*</text>
  <text x="100.80000000000003" y="132" fill="rgb(102,100,79)">○</text>
  <text x="108.00000000000003" y="132" fill="rgb(102,102,88)">◉</text>
  <text x="115.20000000000003" y="132" fill="rgb(100,102,84)">◉</text>
  <text x="122.40000000000003" y="132" fill="rgb(98,102,78)">○</text>
  <text x="129.60000000000002" y="132" fill="rgb(96,102,75)">○</text>
  <text x="136.8" y="132" fill="rgb(95,102,78)">○</text>
  <text x="144.0" y="132" fill="rgb(96,102,85)">◉</text>
  <text x="151.2" y="132" fill="rgb(96,102,88)">◉</text>
  <text x="158.39999999999998" y="132" fill="rgb(90,102,78)">○</text>
  <text x="165.59999999999997" y="132" fill="rgb(74,102,49)">·</text>
  <text x="201.5999999999999" y="132" fill="rgb(56,102,48)">·</text>
  <text x="208.7999999999999" y="132" fill="rgb(79,102,78)">○</text>
  <text x="215.9999999999999" y="132" fill="rgb(88,102,88)">◉</text>
  <text x="223.19999999999987" y="132" fill="rgb(86,102,86)">◉</text>
  <text x="230.39999999999986" y="132" fill="rgb(79,102,82)">○</text>
  <text x="237.59999999999985" y="132" fill="rgb(76,102,81)">○</text>
  <text x="244.79999999999984" y="132" fill="rgb(78,102,84)">○</text>
  <text x="251.99999999999983" y="132" fill="rgb(84,102,90)">◉</text>
  <text x="259.1999999999998" y="132" fill="rgb(88,102,94)">◉</text>
  <text x="266.3999999999998" y="132" fill="rgb(80,102,90)">○</text>
  <text x="273.5999999999998" y="132" fill="rgb(54,102,79)">*</text>
  <text x="280.7999999999998" y="132" fill="rgb(18,102,68)">.</text>
  <text x="309.59999999999974" y="132" fill="rgb(44,102,94)">·</text>
  <text x="316.7999999999997" y="132" fill="rgb(75,102,100)">○</text>
  <text x="323.9999999999997" y="132" fill="rgb(88,102,102)">◉</text>
  <text x="331.1999999999997" y="132" fill="rgb(86,100,102)">◉</text>
  <text x="338.3999999999997" y="132" fill="rgb(79,98,102)">○</text>
  <text x="345.5999999999997" y="132" fill="rgb(75,96,102)">○</text>
  <text x="352.79999999999967" y="132" fill="rgb(77,95,102)">○</text>
  <text x="359.99999999999966" y="132" fill="rgb(84,96,102)">◉</text>
  <text x="367.19999999999965" y="132" fill="rgb(88,96,102)">◉</text>
  <text x="374.39999999999964" y="132" fill="rgb(82,92,102)">○</text>
  <text x="381.5999999999996" y="132" fill="rgb(58,78,102)">*</text>
  <text x="388.7999999999996" y="132" fill="rgb(22,54,102)">.</text>
  <text x="417.59999999999957" y="132" fill="rgb(40,48,102)">·</text>
  <text x="424.79999999999956" y="132" fill="rgb(72,74,102)">○</text>
  <text x="431.99999999999955" y="132" fill="rgb(87,87,102)">◉</text>
  <text x="439.19999999999953" y="132" fill="rgb(87,86,102)">◉</text>
  <text x="446.3999999999995" y="132" fill="rgb(83,80,102)">○</text>
  <text x="453.5999999999995" y="132" fill="rgb(80,76,102)">○</text>
  <text x="460.7999999999995" y="132" fill="rgb(83,77,102)">○</text>
  <text x="467.9999999999995" y="132" fill="rgb(89,82,102)">○</text>
  <text x="475.1999999999995" y="132" fill="rgb(93,88,102)">◉</text>
  <text x="482.39999999999947" y="132" fill="rgb(92,84,102)">◉</text>
  <text x="489.59999999999945" y="132" fill="rgb(82,61,102)">*</text>
  <text x="496.79999999999944" y="132" fill="rgb(71,26,102)">.</text>
  <text x="108.00000000000003" y="144" fill="rgb(102,102,17)">.</text>
  <text x="115.20000000000003" y="144" fill="rgb(97,102,29)">.</text>
  <text x="122.40000000000003" y="144" fill="rgb(93,102,38)">·</text>
  <text x="129.60000000000002" y="144" fill="rgb(89,102,41)">·</text>
  <text x="136.8" y="144" fill="rgb(84,102,37)">·</text>
  <text x="144.0" y="144" fill="rgb(77,102,28)">.</text>
  <text x="223.19999999999987" y="144" fill="rgb(28,102,33)">.</text>
  <text x="230.39999999999986" y="144" fill="rgb(37,102,46)">·</text>
  <text x="237.59999999999985" y="144" fill="rgb(40,102,52)">·</text>
  <text x="244.79999999999984" y="144" fill="rgb(38,102,55)">·</text>
  <text x="251.99999999999983" y="144" fill="rgb(29,102,54)">.</text>
  <text x="259.1999999999998" y="144" fill="rgb(16,102,50)">.</text>
  <text x="331.1999999999997" y="144" fill="rgb(27,96,102)">.</text>
  <text x="338.3999999999997" y="144" fill="rgb(36,93,102)">·</text>
  <text x="345.5999999999997" y="144" fill="rgb(41,89,102)">·</text>
  <text x="352.79999999999967" y="144" fill="rgb(39,85,102)">·</text>
  <text x="359.99999999999966" y="144" fill="rgb(31,78,102)">.</text>
  <text x="367.19999999999965" y="144" fill="rgb(18,68,102)">.</text>
  <text x="439.19999999999953" y="144" fill="rgb(30,25,102)">.</text>
  <text x="446.3999999999995" y="144" fill="rgb(44,35,102)">·</text>
  <text x="453.5999999999995" y="144" fill="rgb(52,40,102)">·</text>
  <text x="460.7999999999995" y="144" fill="rgb(56,40,102)">·</text>
  <text x="467.9999999999995" y="144" fill="rgb(55,32,102)">.</text>
  <text x="475.1999999999995" y="144" fill="rgb(53,20,102)">.</text>
  <text x="86.40000000000002" y="168" fill="rgb(102,85,20)">.</text>
  <text x="93.60000000000002" y="168" fill="rgb(102,91,21)">.</text>
  <text x="100.80000000000003" y="168" fill="rgb(102,96,21)">.</text>
  <text x="108.00000000000003" y="168" fill="rgb(102,102,20)">.</text>
  <text x="129.60000000000002" y="168" fill="rgb(84,102,16)">.</text>
  <text x="158.39999999999998" y="168" fill="rgb(62,102,18)">.</text>
  <text x="223.19999999999987" y="168" fill="rgb(19,102,24)">.</text>
  <text x="230.39999999999986" y="168" fill="rgb(21,102,31)">.</text>
  <text x="237.59999999999985" y="168" fill="rgb(21,102,37)">.</text>
  <text x="244.79999999999984" y="168" fill="rgb(21,102,42)">.</text>
  <text x="287.9999999999998" y="168" fill="rgb(19,102,74)">.</text>
  <text x="295.19999999999976" y="168" fill="rgb(21,102,80)">.</text>
  <text x="302.39999999999975" y="168" fill="rgb(19,102,85)">.</text>
  <text x="309.59999999999974" y="168" fill="rgb(16,102,90)">.</text>
  <text x="316.7999999999997" y="168" fill="rgb(20,102,96)">.</text>
  <text x="323.9999999999997" y="168" fill="rgb(21,102,102)">.</text>
  <text x="345.5999999999997" y="168" fill="rgb(16,84,102)">.</text>
  <text x="410.3999999999996" y="168" fill="rgb(18,34,102)">.</text>
  <text x="446.3999999999995" y="168" fill="rgb(28,16,102)">.</text>
  <text x="475.1999999999995" y="168" fill="rgb(51,18,102)">.</text>
  <text x="482.39999999999947" y="168" fill="rgb(58,21,102)">.</text>
  <text x="489.59999999999945" y="168" fill="rgb(64,21,102)">.</text>
  <text x="496.79999999999944" y="168" fill="rgb(69,21,102)">.</text>
  <text x="532.7999999999995" y="168" fill="rgb(96,20,102)">.</text>
  <text x="539.9999999999995" y="168" fill="rgb(102,21,102)">.</text>
  <text x="547.1999999999996" y="168" fill="rgb(102,21,96)">.</text>
  <text x="72.00000000000001" y="180" fill="rgb(102,77,27)">.</text>
  <text x="79.20000000000002" y="180" fill="rgb(102,101,99)">◉</text>
  <text x="86.40000000000002" y="180" fill="rgb(102,94,63)">*</text>
  <text x="93.60000000000002" y="180" fill="rgb(102,95,53)">*</text>
  <text x="100.80000000000003" y="180" fill="rgb(102,98,52)">*</text>
  <text x="108.00000000000003" y="180" fill="rgb(102,102,52)">*</text>
  <text x="122.40000000000003" y="180" fill="rgb(93,102,40)">·</text>
  <text x="129.60000000000002" y="180" fill="rgb(101,102,99)">◉</text>
  <text x="151.2" y="180" fill="rgb(95,102,86)">◉</text>
  <text x="158.39999999999998" y="180" fill="rgb(102,102,102)">◉</text>
  <text x="165.59999999999997" y="180" fill="rgb(86,102,72)">○</text>
  <text x="187.19999999999993" y="180" fill="rgb(60,102,45)">·</text>
  <text x="194.39999999999992" y="180" fill="rgb(97,102,96)">◉</text>
  <text x="215.9999999999999" y="180" fill="rgb(97,102,97)">◉</text>
  <text x="223.19999999999987" y="180" fill="rgb(70,102,72)">○</text>
  <text x="230.39999999999986" y="180" fill="rgb(53,102,60)">*</text>
  <text x="237.59999999999985" y="180" fill="rgb(52,102,62)">*</text>
  <text x="244.79999999999984" y="180" fill="rgb(53,102,66)">*</text>
  <text x="251.99999999999983" y="180" fill="rgb(21,102,48)">.</text>
  <text x="287.9999999999998" y="180" fill="rgb(49,102,84)">·</text>
  <text x="295.19999999999976" y="180" fill="rgb(54,102,89)">*</text>
  <text x="302.39999999999975" y="180" fill="rgb(74,102,96)">○</text>
  <text x="309.59999999999974" y="180" fill="rgb(99,102,101)">◉</text>
  <text x="316.7999999999997" y="180" fill="rgb(58,102,98)">*</text>
  <text x="323.9999999999997" y="180" fill="rgb(54,102,102)">*</text>
  <text x="331.1999999999997" y="180" fill="rgb(30,97,102)">.</text>
  <text x="338.3999999999997" y="180" fill="rgb(22,91,102)">.</text>
  <text x="345.5999999999997" y="180" fill="rgb(100,101,102)">◉</text>
  <text x="352.79999999999967" y="180" fill="rgb(24,81,102)">.</text>
  <text x="381.5999999999996" y="180" fill="rgb(96,98,102)">◉</text>
  <text x="388.7999999999996" y="180" fill="rgb(46,68,102)">·</text>
  <text x="403.1999999999996" y="180" fill="rgb(59,70,102)">*</text>
  <text x="410.3999999999996" y="180" fill="rgb(101,101,102)">◉</text>
  <text x="417.59999999999957" y="180" fill="rgb(92,93,102)">◉</text>
  <text x="446.3999999999995" y="180" fill="rgb(100,100,102)">◉</text>
  <text x="453.5999999999995" y="180" fill="rgb(46,32,102)">.</text>
  <text x="467.9999999999995" y="180" fill="rgb(86,78,102)">○</text>
  <text x="475.1999999999995" y="180" fill="rgb(91,85,102)">◉</text>
  <text x="482.39999999999947" y="180" fill="rgb(76,54,102)">*</text>
  <text x="489.59999999999945" y="180" fill="rgb(78,52,102)">*</text>
  <text x="496.79999999999944" y="180" fill="rgb(82,52,102)">*</text>
  <text x="503.99999999999943" y="180" fill="rgb(80,37,102)">·</text>
  <text x="518.3999999999994" y="180" fill="rgb(90,44,102)">·</text>
  <text x="525.5999999999995" y="180" fill="rgb(100,88,102)">◉</text>
  <text x="532.7999999999995" y="180" fill="rgb(98,56,102)">*</text>
  <text x="539.9999999999995" y="180" fill="rgb(102,53,102)">*</text>
  <text x="547.1999999999996" y="180" fill="rgb(102,54,98)">*</text>
  <text x="554.3999999999996" y="180" fill="rgb(102,80,98)">○</text>
  <text x="561.5999999999997" y="180" fill="rgb(102,76,96)">○</text>
  <text x="72.00000000000001" y="192" fill="rgb(102,78,30)">.</text>
  <text x="79.20000000000002" y="192" fill="rgb(102,102,102)">◉</text>
  <text x="86.40000000000002" y="192" fill="rgb(102,84,17)">.</text>
  <text x="122.40000000000003" y="192" fill="rgb(94,102,43)">·</text>
  <text x="129.60000000000002" y="192" fill="rgb(102,102,102)">◉</text>
  <text x="151.2" y="192" fill="rgb(98,102,94)">◉</text>
  <text x="158.39999999999998" y="192" fill="rgb(88,102,72)">○</text>
  <text x="165.59999999999997" y="192" fill="rgb(95,102,90)">◉</text>
  <text x="172.79999999999995" y="192" fill="rgb(71,102,51)">*</text>
  <text x="187.19999999999993" y="192" fill="rgb(62,102,48)">·</text>
  <text x="194.39999999999992" y="192" fill="rgb(99,102,99)">◉</text>
  <text x="215.9999999999999" y="192" fill="rgb(102,102,102)">◉</text>
  <text x="223.19999999999987" y="192" fill="rgb(32,102,37)">.</text>
  <text x="302.39999999999975" y="192" fill="rgb(43,102,90)">·</text>
  <text x="309.59999999999974" y="192" fill="rgb(100,102,101)">◉</text>
  <text x="338.3999999999997" y="192" fill="rgb(26,91,102)">.</text>
  <text x="345.5999999999997" y="192" fill="rgb(102,102,102)">◉</text>
  <text x="352.79999999999967" y="192" fill="rgb(26,81,102)">.</text>
  <text x="381.5999999999996" y="192" fill="rgb(99,100,102)">◉</text>
  <text x="388.7999999999996" y="192" fill="rgb(48,70,102)">·</text>
  <text x="403.1999999999996" y="192" fill="rgb(66,76,102)">*</text>
  <text x="410.3999999999996" y="192" fill="rgb(89,92,102)">◉</text>
  <text x="417.59999999999957" y="192" fill="rgb(73,76,102)">○</text>
  <text x="424.79999999999956" y="192" fill="rgb(80,82,102)">○</text>
  <text x="446.3999999999995" y="192" fill="rgb(102,102,102)">◉</text>
  <text x="453.5999999999995" y="192" fill="rgb(48,34,102)">·</text>
  <text x="467.9999999999995" y="192" fill="rgb(90,85,102)">◉</text>
  <text x="475.1999999999995" y="192" fill="rgb(81,68,102)">○</text>
  <text x="518.3999999999994" y="192" fill="rgb(96,74,102)">○</text>
  <text x="525.5999999999995" y="192" fill="rgb(100,90,102)">◉</text>
  <text x="554.3999999999996" y="192" fill="rgb(102,28,92)">.</text>
  <text x="561.5999999999997" y="192" fill="rgb(102,61,93)">*</text>
  <text x="72.00000000000001" y="204" fill="rgb(102,78,30)">.</text>
  <text x="79.20000000000002" y="204" fill="rgb(102,102,102)">◉</text>
  <text x="86.40000000000002" y="204" fill="rgb(102,84,17)">.</text>
  <text x="93.60000000000002" y="204" fill="rgb(102,94,48)">·</text>
  <text x="100.80000000000003" y="204" fill="rgb(102,100,87)">◉</text>
  <text x="108.00000000000003" y="204" fill="rgb(102,102,20)">.</text>
  <text x="122.40000000000003" y="204" fill="rgb(94,102,43)">·</text>
  <text x="129.60000000000002" y="204" fill="rgb(101,102,101)">◉</text>
  <text x="151.2" y="204" fill="rgb(99,102,95)">◉</text>
  <text x="158.39999999999998" y="204" fill="rgb(78,102,51)">*</text>
  <text x="165.59999999999997" y="204" fill="rgb(60,102,25)">.</text>
  <text x="172.79999999999995" y="204" fill="rgb(100,102,100)">◉</text>
  <text x="179.99999999999994" y="204" fill="rgb(48,102,22)">.</text>
  <text x="187.19999999999993" y="204" fill="rgb(58,102,43)">·</text>
  <text x="194.39999999999992" y="204" fill="rgb(98,102,98)">◉</text>
  <text x="215.9999999999999" y="204" fill="rgb(102,102,102)">◉</text>
  <text x="223.19999999999987" y="204" fill="rgb(32,102,36)">.</text>
  <text x="230.39999999999986" y="204" fill="rgb(32,102,42)">.</text>
  <text x="237.59999999999985" y="204" fill="rgb(88,102,90)">◉</text>
  <text x="244.79999999999984" y="204" fill="rgb(32,102,51)">.</text>
  <text x="302.39999999999975" y="204" fill="rgb(45,102,90)">·</text>
  <text x="309.59999999999974" y="204" fill="rgb(100,102,101)">◉</text>
  <text x="338.3999999999997" y="204" fill="rgb(25,91,102)">.</text>
  <text x="345.5999999999997" y="204" fill="rgb(102,102,102)">◉</text>
  <text x="352.79999999999967" y="204" fill="rgb(26,81,102)">.</text>
  <text x="381.5999999999996" y="204" fill="rgb(98,100,102)">◉</text>
  <text x="388.7999999999996" y="204" fill="rgb(48,69,102)">·</text>
  <text x="403.1999999999996" y="204" fill="rgb(66,76,102)">*</text>
  <text x="410.3999999999996" y="204" fill="rgb(84,88,102)">◉</text>
  <text x="424.79999999999956" y="204" fill="rgb(90,91,102)">◉</text>
  <text x="431.99999999999955" y="204" fill="rgb(54,54,102)">*</text>
  <text x="446.3999999999995" y="204" fill="rgb(102,102,102)">◉</text>
  <text x="453.5999999999995" y="204" fill="rgb(47,34,102)">·</text>
  <text x="467.9999999999995" y="204" fill="rgb(90,84,102)">◉</text>
  <text x="475.1999999999995" y="204" fill="rgb(80,66,102)">*</text>
  <text x="489.59999999999945" y="204" fill="rgb(94,86,102)">◉</text>
  <text x="496.79999999999944" y="204" fill="rgb(85,60,102)">*</text>
  <text x="518.3999999999994" y="204" fill="rgb(86,22,102)">.</text>
  <text x="525.5999999999995" y="204" fill="rgb(97,67,102)">○</text>
  <text x="532.7999999999995" y="204" fill="rgb(99,65,102)">*</text>
  <text x="539.9999999999995" y="204" fill="rgb(102,63,102)">*</text>
  <text x="547.1999999999996" y="204" fill="rgb(102,64,99)">*</text>
  <text x="554.3999999999996" y="204" fill="rgb(102,70,97)">○</text>
  <text x="561.5999999999997" y="204" fill="rgb(102,44,90)">·</text>
  <text x="72.00000000000001" y="216" fill="rgb(102,78,30)">.</text>
  <text x="79.20000000000002" y="216" fill="rgb(102,102,102)">◉</text>
  <text x="86.40000000000002" y="216" fill="rgb(102,85,20)">.</text>
  <text x="122.40000000000003" y="216" fill="rgb(94,102,43)">·</text>
  <text x="129.60000000000002" y="216" fill="rgb(101,102,101)">◉</text>
  <text x="151.2" y="216" fill="rgb(99,102,95)">◉</text>
  <text x="158.39999999999998" y="216" fill="rgb(80,102,55)">*</text>
  <text x="172.79999999999995" y="216" fill="rgb(73,102,54)">*</text>
  <text x="179.99999999999994" y="216" fill="rgb(92,102,88)">◉</text>
  <text x="187.19999999999993" y="216" fill="rgb(72,102,61)">*</text>
  <text x="194.39999999999992" y="216" fill="rgb(98,102,97)">◉</text>
  <text x="215.9999999999999" y="216" fill="rgb(102,102,102)">◉</text>
  <text x="223.19999999999987" y="216" fill="rgb(32,102,37)">.</text>
  <text x="302.39999999999975" y="216" fill="rgb(45,102,90)">·</text>
  <text x="309.59999999999974" y="216" fill="rgb(100,102,101)">◉</text>
  <text x="338.3999999999997" y="216" fill="rgb(26,91,102)">.</text>
  <text x="345.5999999999997" y="216" fill="rgb(102,102,102)">◉</text>
  <text x="352.79999999999967" y="216" fill="rgb(22,80,102)">.</text>
  <text x="381.5999999999996" y="216" fill="rgb(99,100,102)">◉</text>
  <text x="388.7999999999996" y="216" fill="rgb(50,70,102)">·</text>
  <text x="403.1999999999996" y="216" fill="rgb(66,76,102)">*</text>
  <text x="410.3999999999996" y="216" fill="rgb(87,90,102)">◉</text>
  <text x="424.79999999999956" y="216" fill="rgb(24,29,102)">.</text>
  <text x="431.99999999999955" y="216" fill="rgb(98,98,102)">◉</text>
  <text x="439.19999999999953" y="216" fill="rgb(55,52,102)">*</text>
  <text x="446.3999999999995" y="216" fill="rgb(101,101,102)">◉</text>
  <text x="453.5999999999995" y="216" fill="rgb(47,34,102)">·</text>
  <text x="467.9999999999995" y="216" fill="rgb(90,84,102)">◉</text>
  <text x="475.1999999999995" y="216" fill="rgb(81,67,102)">○</text>
  <text x="518.3999999999994" y="216" fill="rgb(89,38,102)">·</text>
  <text x="525.5999999999995" y="216" fill="rgb(94,44,102)">·</text>
  <text x="554.3999999999996" y="216" fill="rgb(102,52,95)">*</text>
  <text x="561.5999999999997" y="216" fill="rgb(102,102,102)">◉</text>
  <text x="72.00000000000001" y="228" fill="rgb(102,78,30)">.</text>
  <text x="79.20000000000002" y="228" fill="rgb(102,102,102)">◉</text>
  <text x="86.40000000000002" y="228" fill="rgb(102,85,20)">.</text>
  <text x="122.40000000000003" y="228" fill="rgb(94,102,43)">·</text>
  <text x="129.60000000000002" y="228" fill="rgb(102,102,102)">◉</text>
  <text x="151.2" y="228" fill="rgb(99,102,96)">◉</text>
  <text x="158.39999999999998" y="228" fill="rgb(80,102,56)">*</text>
  <text x="179.99999999999994" y="228" fill="rgb(84,102,76)">○</text>
  <text x="187.19999999999993" y="228" fill="rgb(102,102,102)">◉</text>
  <text x="194.39999999999992" y="228" fill="rgb(95,102,93)">◉</text>
  <text x="215.9999999999999" y="228" fill="rgb(102,102,102)">◉</text>
  <text x="223.19999999999987" y="228" fill="rgb(65,102,68)">*</text>
  <text x="230.39999999999986" y="228" fill="rgb(44,102,52)">·</text>
  <text x="237.59999999999985" y="228" fill="rgb(44,102,55)">·</text>
  <text x="244.79999999999984" y="228" fill="rgb(45,102,60)">·</text>
  <text x="251.99999999999983" y="228" fill="rgb(26,102,51)">.</text>
  <text x="302.39999999999975" y="228" fill="rgb(45,102,90)">·</text>
  <text x="309.59999999999974" y="228" fill="rgb(102,102,102)">◉</text>
  <text x="345.5999999999997" y="228" fill="rgb(91,99,102)">◉</text>
  <text x="352.79999999999967" y="228" fill="rgb(65,92,102)">*</text>
  <text x="359.99999999999966" y="228" fill="rgb(45,82,102)">·</text>
  <text x="367.19999999999965" y="228" fill="rgb(45,79,102)">·</text>
  <text x="374.39999999999964" y="228" fill="rgb(55,80,102)">*</text>
  <text x="381.5999999999996" y="228" fill="rgb(95,98,102)">◉</text>
  <text x="388.7999999999996" y="228" fill="rgb(32,60,102)">.</text>
  <text x="403.1999999999996" y="228" fill="rgb(67,76,102)">○</text>
  <text x="410.3999999999996" y="228" fill="rgb(88,90,102)">◉</text>
  <text x="431.99999999999955" y="228" fill="rgb(47,47,102)">·</text>
  <text x="439.19999999999953" y="228" fill="rgb(102,102,102)">◉</text>
  <text x="446.3999999999995" y="228" fill="rgb(102,102,102)">◉</text>
  <text x="453.5999999999995" y="228" fill="rgb(45,32,102)">.</text>
  <text x="467.9999999999995" y="228" fill="rgb(89,82,102)">○</text>
  <text x="475.1999999999995" y="228" fill="rgb(91,84,102)">◉</text>
  <text x="482.39999999999947" y="228" fill="rgb(71,45,102)">·</text>
  <text x="489.59999999999945" y="228" fill="rgb(74,44,102)">·</text>
  <text x="496.79999999999944" y="228" fill="rgb(78,44,102)">·</text>
  <text x="503.99999999999943" y="228" fill="rgb(80,38,102)">·</text>
  <text x="518.3999999999994" y="228" fill="rgb(92,54,102)">*</text>
  <text x="525.5999999999995" y="228" fill="rgb(101,96,102)">◉</text>
  <text x="532.7999999999995" y="228" fill="rgb(98,48,102)">·</text>
  <text x="539.9999999999995" y="228" fill="rgb(102,44,102)">·</text>
  <text x="547.1999999999996" y="228" fill="rgb(102,45,98)">·</text>
  <text x="554.3999999999996" y="228" fill="rgb(102,76,98)">○</text>
  <text x="561.5999999999997" y="228" fill="rgb(102,81,97)">○</text>
  <text x="79.20000000000002" y="240" fill="rgb(102,82,28)">.</text>
  <text x="129.60000000000002" y="240" fill="rgb(86,102,27)">.</text>
  <text x="151.2" y="240" fill="rgb(71,102,25)">.</text>
  <text x="187.19999999999993" y="240" fill="rgb(47,102,28)">.</text>
  <text x="194.39999999999992" y="240" fill="rgb(36,102,20)">.</text>
  <text x="215.9999999999999" y="240" fill="rgb(24,102,24)">.</text>
  <text x="223.19999999999987" y="240" fill="rgb(29,102,34)">.</text>
  <text x="230.39999999999986" y="240" fill="rgb(31,102,40)">.</text>
  <text x="237.59999999999985" y="240" fill="rgb(31,102,45)">.</text>
  <text x="244.79999999999984" y="240" fill="rgb(31,102,50)">.</text>
  <text x="251.99999999999983" y="240" fill="rgb(18,102,46)">.</text>
  <text x="309.59999999999974" y="240" fill="rgb(28,102,92)">.</text>
  <text x="352.79999999999967" y="240" fill="rgb(28,82,102)">.</text>
  <text x="359.99999999999966" y="240" fill="rgb(31,78,102)">.</text>
  <text x="367.19999999999965" y="240" fill="rgb(31,73,102)">.</text>
  <text x="374.39999999999964" y="240" fill="rgb(30,68,102)">.</text>
  <text x="403.1999999999996" y="240" fill="rgb(16,39,102)">.</text>
  <text x="410.3999999999996" y="240" fill="rgb(22,38,102)">.</text>
  <text x="439.19999999999953" y="240" fill="rgb(29,24,102)">.</text>
  <text x="446.3999999999995" y="240" fill="rgb(36,26,102)">.</text>
  <text x="467.9999999999995" y="240" fill="rgb(45,17,102)">.</text>
  <text x="475.1999999999995" y="240" fill="rgb(58,28,102)">.</text>
  <text x="482.39999999999947" y="240" fill="rgb(64,31,102)">.</text>
  <text x="489.59999999999945" y="240" fill="rgb(68,31,102)">.</text>
  <text x="496.79999999999944" y="240" fill="rgb(73,31,102)">.</text>
  <text x="503.99999999999943" y="240" fill="rgb(76,26,102)">.</text>
  <text x="525.5999999999995" y="240" fill="rgb(90,18,102)">.</text>
  <text x="532.7999999999995" y="240" fill="rgb(97,31,102)">.</text>
  <text x="539.9999999999995" y="240" fill="rgb(102,31,102)">.</text>
  <text x="547.1999999999996" y="240" fill="rgb(102,31,97)">.</text>
  <text x="554.3999999999996" y="240" fill="rgb(102,25,91)">.</text>
</svg>