<svg width="648" height="264" xmlns="http://www.w3.org/2000/svg">
  <style>
    text { font-family: "Courier New", monospace; font-size: 12px; }
  </style>
  <text x="151.2" y="36" fill="rgb(137,178,77)">·</text>
  <text x="158.39999999999998" y="36" fill="rgb(151,178,120)">○</text>
  <text x="165.59999999999997" y="36" fill="rgb(158,178,142)">○</text>
  <text x="172.79999999999995" y="36" fill="rgb(160,178,149)">◉</text>
  <text x="179.99999999999994" y="36" fill="rgb(159,178,150)">◉</text>
  <text x="187.19999999999993" y="36" fill="rgb(156,178,149)">◉</text>
  <text x="194.39999999999992" y="36" fill="rgb(153,178,147)">◉</text>
  <text x="201.5999999999999" y="36" fill="rgb(141,178,135)">○</text>
  <text x="208.7999999999999" y="36" fill="rgb(110,178,106)">*</text>
  <text x="215.9999999999999" y="36" fill="rgb(57,178,57)">.</text>
  <text x="259.1999999999998" y="36" fill="rgb(72,178,114)">·</text>
  <text x="266.3999999999998" y="36" fill="rgb(116,178,144)">*</text>
  <text x="273.5999999999998" y="36" fill="rgb(141,178,161)">○</text>
  <text x="280.7999999999998" y="36" fill="rgb(149,178,166)">◉</text>
  <text x="287.9999999999998" y="36" fill="rgb(149,178,168)">◉</text>
  <text x="295.19999999999976" y="36" fill="rgb(149,178,170)">◉</text>
  <text x="302.39999999999975" y="36" fill="rgb(147,178,172)">◉</text>
  <text x="309.59999999999974" y="36" fill="rgb(138,178,172)">○</text>
  <text x="316.7999999999997" y="36" fill="rgb(111,178,173)">*</text>
  <text x="323.9999999999997" y="36" fill="rgb(64,178,178)">·</text>
  <text x="367.19999999999965" y="36" fill="rgb(65,133,178)">·</text>
  <text x="374.39999999999964" y="36" fill="rgb(112,147,178)">*</text>
  <text x="381.5999999999996" y="36" fill="rgb(139,157,178)">○</text>
  <text x="388.7999999999996" y="36" fill="rgb(147,160,178)">◉</text>
  <text x="395.9999999999996" y="36" fill="rgb(149,158,178)">◉</text>
  <text x="403.1999999999996" y="36" fill="rgb(149,156,178)">◉</text>
  <text x="410.3999999999996" y="36" fill="rgb(149,154,178)">◉</text>
  <text x="417.59999999999957" y="36" fill="rgb(140,145,178)">○</text>
  <text x="424.79999999999956" y="36" fill="rgb(114,118,178)">*</text>
  <text x="431.99999999999955" y="36" fill="rgb(68,68,178)">·</text>
  <text x="475.1999999999995" y="36" fill="rgb(106,59,178)">·</text>
  <text x="482.39999999999947" y="36" fill="rgb(140,106,178)">*</text>
  <text x="489.59999999999945" y="36" fill="rgb(158,136,178)">○</text>
  <text x="496.79999999999944" y="36" fill="rgb(165,147,178)">◉</text>
  <text x="503.99999999999943" y="36" fill="rgb(168,147,178)">◉</text>
  <text x="511.1999999999994" y="36" fill="rgb(169,145,178)">○</text>
  <text x="518.3999999999994" y="36" fill="rgb(172,147,178)">◉</text>
  <text x="525.5999999999995" y="36" fill="rgb(173,142,178)">○</text>
  <text x="532.7999999999995" y="36" fill="rgb(174,119,178)">○</text>
  <text x="539.9999999999995" y="36" fill="rgb(178,76,178)">·</text>
  <text x="136.8" y="48" fill="rgb(156,178,96)">*</text>
  <text x="144.0" y="48" fill="rgb(170,178,156)">◉</text>
  <text x="151.2" y="48" fill="rgb(168,178,155)">◉</text>
  <text x="158.39999999999998" y="48" fill="rgb(146,178,110)">*</text>
  <text x="165.59999999999997" y="48" fill="rgb(118,178,67)">·</text>
  <text x="172.79999999999995" y="48" fill="rgb(97,178,43)">.</text>
  <text x="179.99999999999994" y="48" fill="rgb(80,178,32)">.</text>
  <text x="187.19999999999993" y="48" fill="rgb(72,178,33)">.</text>
  <text x="194.39999999999992" y="48" fill="rgb(75,178,50)">.</text>
  <text x="201.5999999999999" y="48" fill="rgb(93,178,81)">·</text>
  <text x="208.7999999999999" y="48" fill="rgb(131,178,128)">○</text>
  <text x="215.9999999999999" y="48" fill="rgb(163,178,163)">◉</text>
  <text x="223.19999999999987" y="48" fill="rgb(140,178,142)">○</text>
  <text x="230.39999999999986" y="48" fill="rgb(62,178,78)">·</text>
  <text x="244.79999999999984" y="48" fill="rgb(84,178,109)">·</text>
  <text x="251.99999999999983" y="48" fill="rgb(151,178,160)">◉</text>
  <text x="259.1999999999998" y="48" fill="rgb(157,178,165)">◉</text>
  <text x="266.3999999999998" y="48" fill="rgb(114,178,144)">*</text>
  <text x="273.5999999999998" y="48" fill="rgb(72,178,128)">·</text>
  <text x="280.7999999999998" y="48" fill="rgb(45,178,125)">.</text>
  <text x="287.9999999999998" y="48" fill="rgb(33,178,129)">.</text>
  <text x="295.19999999999976" y="48" fill="rgb(33,178,139)">.</text>
  <text x="302.39999999999975" y="48" fill="rgb(48,178,151)">.</text>
  <text x="309.59999999999974" y="48" fill="rgb(77,178,164)">·</text>
  <text x="316.7999999999997" y="48" fill="rgb(123,178,174)">○</text>
  <text x="323.9999999999997" y="48" fill="rgb(160,178,178)">◉</text>
  <text x="331.1999999999997" y="48" fill="rgb(147,176,178)">◉</text>
  <text x="338.3999999999997" y="48" fill="rgb(73,163,178)">·</text>
  <text x="352.79999999999967" y="48" fill="rgb(74,150,178)">·</text>
  <text x="359.99999999999966" y="48" fill="rgb(147,168,178)">◉</text>
  <text x="367.19999999999965" y="48" fill="rgb(161,171,178)">◉</text>
  <text x="374.39999999999964" y="48" fill="rgb(123,152,178)">○</text>
  <text x="381.5999999999996" y="48" fill="rgb(76,123,178)">·</text>
  <text x="388.7999999999996" y="48" fill="rgb(47,99,178)">.</text>
  <text x="395.9999999999996" y="48" fill="rgb(33,81,178)">.</text>
  <text x="403.1999999999996" y="48" fill="rgb(32,71,178)">.</text>
  <text x="410.3999999999996" y="48" fill="rgb(45,72,178)">.</text>
  <text x="417.59999999999957" y="48" fill="rgb(72,86,178)">·</text>
  <text x="424.79999999999956" y="48" fill="rgb(117,121,178)">○</text>
  <text x="431.99999999999955" y="48" fill="rgb(159,159,178)">◉</text>
  <text x="439.19999999999953" y="48" fill="rgb(152,151,178)">◉</text>
  <text x="446.3999999999995" y="48" fill="rgb(95,83,178)">·</text>
  <text x="460.7999999999995" y="48" fill="rgb(93,62,178)">·</text>
  <text x="467.9999999999995" y="48" fill="rgb(154,142,178)">○</text>
  <text x="475.1999999999995" y="48" fill="rgb(169,163,178)">◉</text>
  <text x="482.39999999999947" y="48" fill="rgb(151,127,178)">○</text>
  <text x="489.59999999999945" y="48" fill="rgb(133,81,178)">·</text>
  <text x="496.79999999999944" y="48" fill="rgb(126,49,178)">.</text>
  <text x="503.99999999999943" y="48" fill="rgb(135,50,178)">.</text>
  <text x="511.1999999999994" y="48" fill="rgb(148,65,178)">·</text>
  <text x="518.3999999999994" y="48" fill="rgb(154,56,178)">.</text>
  <text x="525.5999999999995" y="48" fill="rgb(163,67,178)">·</text>
  <text x="532.7999999999995" y="48" fill="rgb(173,110,178)">*</text>
  <text x="539.9999999999995" y="48" fill="rgb(178,155,178)">◉</text>
  <text x="547.1999999999996" y="48" fill="rgb(178,156,176)">◉</text>
  <text x="554.3999999999996" y="48" fill="rgb(178,95,167)">*</text>
  <text x="129.60000000000002" y="60" fill="rgb(168,178,128)">○</text>
  <text x="136.8" y="60" fill="rgb(175,178,166)">◉</text>
  <text x="144.0" y="60" fill="rgb(156,178,112)">*</text>
  <text x="215.9999999999999" y="60" fill="rgb(51,178,51)">.</text>
  <text x="223.19999999999987" y="60" fill="rgb(143,178,145)">○</text>
  <text x="230.39999999999986" y="60" fill="rgb(159,178,161)">◉</text>
  <text x="237.59999999999985" y="60" fill="rgb(138,178,146)">○</text>
  <text x="244.79999999999984" y="60" fill="rgb(164,178,168)">◉</text>
  <text x="251.99999999999983" y="60" fill="rgb(123,178,141)">○</text>
  <text x="259.1999999999998" y="60" fill="rgb(33,178,91)">.</text>
  <text x="323.9999999999997" y="60" fill="rgb(43,178,178)">.</text>
  <text x="331.1999999999997" y="60" fill="rgb(135,175,178)">○</text>
  <text x="338.3999999999997" y="60" fill="rgb(161,175,178)">◉</text>
  <text x="345.5999999999997" y="60" fill="rgb(139,170,178)">○</text>
  <text x="352.79999999999967" y="60" fill="rgb(162,173,178)">◉</text>
  <text x="359.99999999999966" y="60" fill="rgb(132,163,178)">○</text>
  <text x="367.19999999999965" y="60" fill="rgb(42,123,178)">.</text>
  <text x="431.99999999999955" y="60" fill="rgb(35,35,178)">.</text>
  <text x="439.19999999999953" y="60" fill="rgb(128,125,178)">○</text>
  <text x="446.3999999999995" y="60" fill="rgb(165,164,178)">◉</text>
  <text x="453.5999999999995" y="60" fill="rgb(145,137,178)">○</text>
  <text x="460.7999999999995" y="60" fill="rgb(164,160,178)">◉</text>
  <text x="467.9999999999995" y="60" fill="rgb(154,142,178)">○</text>
  <text x="475.1999999999995" y="60" fill="rgb(101,51,178)">.</text>
  <text x="503.99999999999943" y="60" fill="rgb(165,139,178)">○</text>
  <text x="511.1999999999994" y="60" fill="rgb(173,160,178)">◉</text>
  <text x="518.3999999999994" y="60" fill="rgb(167,123,178)">○</text>
  <text x="547.1999999999996" y="60" fill="rgb(178,112,173)">*</text>
  <text x="554.3999999999996" y="60" fill="rgb(178,166,176)">◉</text>
  <text x="561.5999999999997" y="60" fill="rgb(178,127,168)">○</text>
  <text x="122.40000000000003" y="72" fill="rgb(168,178,100)">*</text>
  <text x="129.60000000000002" y="72" fill="rgb(175,178,167)">◉</text>
  <text x="136.8" y="72" fill="rgb(162,178,120)">○</text>
  <text x="223.19999999999987" y="72" fill="rgb(39,178,48)">.</text>
  <text x="230.39999999999986" y="72" fill="rgb(151,178,155)">◉</text>
  <text x="237.59999999999985" y="72" fill="rgb(162,178,165)">◉</text>
  <text x="244.79999999999984" y="72" fill="rgb(133,178,145)">○</text>
  <text x="338.3999999999997" y="72" fill="rgb(144,173,178)">○</text>
  <text x="345.5999999999997" y="72" fill="rgb(162,175,178)">◉</text>
  <text x="352.79999999999967" y="72" fill="rgb(142,168,178)">○</text>
  <text x="446.3999999999995" y="72" fill="rgb(140,135,178)">○</text>
  <text x="453.5999999999995" y="72" fill="rgb(165,162,178)">◉</text>
  <text x="460.7999999999995" y="72" fill="rgb(158,151,178)">◉</text>
  <text x="467.9999999999995" y="72" fill="rgb(84,37,178)">.</text>
  <text x="503.99999999999943" y="72" fill="rgb(140,62,178)">·</text>
  <text x="511.1999999999994" y="72" fill="rgb(157,101,178)">*</text>
  <text x="518.3999999999994" y="72" fill="rgb(155,65,178)">·</text>
  <text x="554.3999999999996" y="72" fill="rgb(178,125,171)">○</text>
  <text x="561.5999999999997" y="72" fill="rgb(178,167,175)">◉</text>
  <text x="568.7999999999997" y="72" fill="rgb(178,97,156)">*</text>
  <text x="64.80000000000001" y="84" fill="rgb(178,119,31)">.</text>
  <text x="72.00000000000001" y="84" fill="rgb(178,163,133)">○</text>
  <text x="79.20000000000002" y="84" fill="rgb(178,168,141)">○</text>
  <text x="86.40000000000002" y="84" fill="rgb(178,170,141)">○</text>
  <text x="93.60000000000002" y="84" fill="rgb(178,173,144)">○</text>
  <text x="100.80000000000003" y="84" fill="rgb(178,175,144)">○</text>
  <text x="108.00000000000003" y="84" fill="rgb(178,178,144)">○</text>
  <text x="115.20000000000003" y="84" fill="rgb(175,178,144)">○</text>
  <text x="122.40000000000003" y="84" fill="rgb(175,178,158)">◉</text>
  <text x="129.60000000000002" y="84" fill="rgb(175,178,163)">◉</text>
  <text x="136.8" y="84" fill="rgb(147,178,65)">·</text>
  <text x="179.99999999999994" y="84" fill="rgb(144,178,127)">○</text>
  <text x="187.19999999999993" y="84" fill="rgb(142,178,129)">○</text>
  <text x="230.39999999999986" y="84" fill="rgb(119,178,127)">○</text>
  <text x="237.59999999999985" y="84" fill="rgb(167,178,169)">◉</text>
  <text x="244.79999999999984" y="84" fill="rgb(82,178,107)">·</text>
  <text x="287.9999999999998" y="84" fill="rgb(118,178,158)">○</text>
  <text x="295.19999999999976" y="84" fill="rgb(136,178,167)">○</text>
  <text x="302.39999999999975" y="84" fill="rgb(31,178,148)">.</text>
  <text x="338.3999999999997" y="84" fill="rgb(102,168,178)">*</text>
  <text x="345.5999999999997" y="84" fill="rgb(168,176,178)">◉</text>
  <text x="352.79999999999967" y="84" fill="rgb(100,157,178)">*</text>
  <text x="395.9999999999996" y="84" fill="rgb(105,129,178)">*</text>
  <text x="403.1999999999996" y="84" fill="rgb(142,151,178)">○</text>
  <text x="410.3999999999996" y="84" fill="rgb(46,72,178)">.</text>
  <text x="446.3999999999995" y="84" fill="rgb(96,84,178)">·</text>
  <text x="453.5999999999995" y="84" fill="rgb(169,167,178)">◉</text>
  <text x="460.7999999999995" y="84" fill="rgb(132,116,178)">*</text>
  <text x="503.99999999999943" y="84" fill="rgb(147,86,178)">·</text>
  <text x="511.1999999999994" y="84" fill="rgb(167,137,178)">○</text>
  <text x="518.3999999999994" y="84" fill="rgb(170,139,178)">○</text>
  <text x="525.5999999999995" y="84" fill="rgb(173,143,178)">○</text>
  <text x="532.7999999999995" y="84" fill="rgb(175,144,178)">○</text>
  <text x="539.9999999999995" y="84" fill="rgb(178,144,178)">○</text>
  <text x="547.1999999999996" y="84" fill="rgb(178,142,175)">○</text>
  <text x="554.3999999999996" y="84" fill="rgb(178,150,174)">◉</text>
  <text x="561.5999999999997" y="84" fill="rgb(178,163,175)">◉</text>
  <text x="568.7999999999997" y="84" fill="rgb(178,125,164)">○</text>
  <text x="64.80000000000001" y="96" fill="rgb(178,118,30)">.</text>
  <text x="72.00000000000001" y="96" fill="rgb(178,170,155)">◉</text>
  <text x="79.20000000000002" y="96" fill="rgb(178,173,161)">◉</text>
  <text x="86.40000000000002" y="96" fill="rgb(178,160,88)">*</text>
  <text x="93.60000000000002" y="96" fill="rgb(178,161,47)">.</text>
  <text x="100.80000000000003" y="96" fill="rgb(178,169,51)">.</text>
  <text x="108.00000000000003" y="96" fill="rgb(178,178,51)">.</text>
  <text x="115.20000000000003" y="96" fill="rgb(169,178,51)">.</text>
  <text x="122.40000000000003" y="96" fill="rgb(161,178,51)">.</text>
  <text x="129.60000000000002" y="96" fill="rgb(151,178,44)">.</text>
  <text x="172.79999999999995" y="96" fill="rgb(107,178,61)">·</text>
  <text x="179.99999999999994" y="96" fill="rgb(167,178,162)">◉</text>
  <text x="187.19999999999993" y="96" fill="rgb(167,178,163)">◉</text>
  <text x="194.39999999999992" y="96" fill="rgb(87,178,65)">·</text>
  <text x="237.59999999999985" y="96" fill="rgb(45,178,71)">.</text>
  <text x="280.7999999999998" y="96" fill="rgb(45,178,125)">.</text>
  <text x="287.9999999999998" y="96" fill="rgb(158,178,171)">◉</text>
  <text x="295.19999999999976" y="96" fill="rgb(164,178,174)">◉</text>
  <text x="302.39999999999975" y="96" fill="rgb(81,178,158)">·</text>
  <text x="345.5999999999997" y="96" fill="rgb(46,151,178)">.</text>
  <text x="388.7999999999996" y="96" fill="rgb(29,88,178)">.</text>
  <text x="395.9999999999996" y="96" fill="rgb(152,161,178)">◉</text>
  <text x="403.1999999999996" y="96" fill="rgb(165,168,178)">◉</text>
  <text x="410.3999999999996" y="96" fill="rgb(100,115,178)">*</text>
  <text x="453.5999999999995" y="96" fill="rgb(72,45,178)">.</text>
  <text x="503.99999999999943" y="96" fill="rgb(167,145,178)">○</text>
  <text x="511.1999999999994" y="96" fill="rgb(174,164,178)">◉</text>
  <text x="518.3999999999994" y="96" fill="rgb(160,89,178)">*</text>
  <text x="525.5999999999995" y="96" fill="rgb(161,50,178)">.</text>
  <text x="532.7999999999995" y="96" fill="rgb(169,51,178)">.</text>
  <text x="539.9999999999995" y="96" fill="rgb(178,51,178)">.</text>
  <text x="547.1999999999996" y="96" fill="rgb(178,51,169)">.</text>
  <text x="554.3999999999996" y="96" fill="rgb(178,50,161)">.</text>
  <text x="561.5999999999997" y="96" fill="rgb(178,49,152)">.</text>
  <text x="72.00000000000001" y="108" fill="rgb(178,148,88)">*</text>
  <text x="79.20000000000002" y="108" fill="rgb(178,175,165)">◉</text>
  <text x="86.40000000000002" y="108" fill="rgb(178,168,132)">○</text>
  <text x="93.60000000000002" y="108" fill="rgb(178,158,29)">.</text>
  <text x="165.59999999999997" y="108" fill="rgb(106,178,44)">.</text>
  <text x="172.79999999999995" y="108" fill="rgb(157,178,144)">○</text>
  <text x="179.99999999999994" y="108" fill="rgb(166,178,161)">◉</text>
  <text x="187.19999999999993" y="108" fill="rgb(164,178,160)">◉</text>
  <text x="194.39999999999992" y="108" fill="rgb(151,178,145)">○</text>
  <text x="201.5999999999999" y="108" fill="rgb(62,178,44)">.</text>
  <text x="273.5999999999998" y="108" fill="rgb(32,178,109)">.</text>
  <text x="280.7999999999998" y="108" fill="rgb(135,178,161)">○</text>
  <text x="287.9999999999998" y="108" fill="rgb(162,178,172)">◉</text>
  <text x="295.19999999999976" y="108" fill="rgb(159,178,172)">◉</text>
  <text x="302.39999999999975" y="108" fill="rgb(152,178,172)">◉</text>
  <text x="309.59999999999974" y="108" fill="rgb(56,178,161)">.</text>
  <text x="388.7999999999996" y="108" fill="rgb(124,145,178)">○</text>
  <text x="395.9999999999996" y="108" fill="rgb(163,168,178)">◉</text>
  <text x="403.1999999999996" y="108" fill="rgb(158,163,178)">◉</text>
  <text x="410.3999999999996" y="108" fill="rgb(157,161,178)">◉</text>
  <text x="417.59999999999957" y="108" fill="rgb(68,83,178)">·</text>
  <text x="496.79999999999944" y="108" fill="rgb(151,112,178)">*</text>
  <text x="503.99999999999943" y="108" fill="rgb(174,167,178)">◉</text>
  <text x="511.1999999999994" y="108" fill="rgb(162,120,178)">○</text>
  <text x="79.20000000000002" y="120" fill="rgb(178,152,81)">·</text>
  <text x="86.40000000000002" y="120" fill="rgb(178,173,156)">◉</text>
  <text x="93.60000000000002" y="120" fill="rgb(178,175,156)">◉</text>
  <text x="100.80000000000003" y="120" fill="rgb(178,172,97)">*</text>
  <text x="108.00000000000003" y="120" fill="rgb(178,178,42)">.</text>
  <text x="151.2" y="120" fill="rgb(125,178,47)">.</text>
  <text x="158.39999999999998" y="120" fill="rgb(143,178,103)">*</text>
  <text x="165.59999999999997" y="120" fill="rgb(168,178,160)">◉</text>
  <text x="172.79999999999995" y="120" fill="rgb(161,178,150)">◉</text>
  <text x="179.99999999999994" y="120" fill="rgb(107,178,71)">·</text>
  <text x="187.19999999999993" y="120" fill="rgb(98,178,70)">·</text>
  <text x="194.39999999999992" y="120" fill="rgb(156,178,150)">◉</text>
  <text x="201.5999999999999" y="120" fill="rgb(162,178,160)">◉</text>
  <text x="208.7999999999999" y="120" fill="rgb(110,178,106)">*</text>
  <text x="215.9999999999999" y="120" fill="rgb(47,178,47)">.</text>
  <text x="259.1999999999998" y="120" fill="rgb(42,178,96)">.</text>
  <text x="266.3999999999998" y="120" fill="rgb(96,178,134)">*</text>
  <text x="273.5999999999998" y="120" fill="rgb(156,178,168)">◉</text>
  <text x="280.7999999999998" y="120" fill="rgb(156,178,169)">◉</text>
  <text x="287.9999999999998" y="120" fill="rgb(81,178,146)">·</text>
  <text x="295.19999999999976" y="120" fill="rgb(61,178,147)">·</text>
  <text x="302.39999999999975" y="120" fill="rgb(143,178,170)">○</text>
  <text x="309.59999999999974" y="120" fill="rgb(164,178,176)">◉</text>
  <text x="316.7999999999997" y="120" fill="rgb(114,178,173)">*</text>
  <text x="323.9999999999997" y="120" fill="rgb(54,178,178)">.</text>
  <text x="367.19999999999965" y="120" fill="rgb(37,121,178)">.</text>
  <text x="374.39999999999964" y="120" fill="rgb(88,135,178)">*</text>
  <text x="381.5999999999996" y="120" fill="rgb(150,163,178)">◉</text>
  <text x="388.7999999999996" y="120" fill="rgb(161,168,178)">◉</text>
  <text x="395.9999999999996" y="120" fill="rgb(92,121,178)">*</text>
  <text x="403.1999999999996" y="120" fill="rgb(55,87,178)">.</text>
  <text x="410.3999999999996" y="120" fill="rgb(136,144,178)">○</text>
  <text x="417.59999999999957" y="120" fill="rgb(164,165,178)">◉</text>
  <text x="424.79999999999956" y="120" fill="rgb(121,125,178)">○</text>
  <text x="431.99999999999955" y="120" fill="rgb(60,60,178)">·</text>
  <text x="475.1999999999995" y="120" fill="rgb(91,33,178)">.</text>
  <text x="482.39999999999947" y="120" fill="rgb(125,79,178)">·</text>
  <text x="489.59999999999945" y="120" fill="rgb(162,144,178)">○</text>
  <text x="496.79999999999944" y="120" fill="rgb(171,162,178)">◉</text>
  <text x="503.99999999999943" y="120" fill="rgb(154,107,178)">*</text>
  <text x="86.40000000000002" y="132" fill="rgb(178,149,32)">.</text>
  <text x="93.60000000000002" y="132" fill="rgb(178,166,92)">*</text>
  <text x="100.80000000000003" y="132" fill="rgb(178,175,139)">○</text>
  <text x="108.00000000000003" y="132" fill="rgb(178,178,154)">◉</text>
  <text x="115.20000000000003" y="132" fill="rgb(176,178,147)">◉</text>
  <text x="122.40000000000003" y="132" fill="rgb(172,178,136)">○</text>
  <text x="129.60000000000002" y="132" fill="rgb(168,178,132)">○</text>
  <text x="136.8" y="132" fill="rgb(167,178,137)">○</text>
  <text x="144.0" y="132" fill="rgb(168,178,149)">◉</text>
  <text x="151.2" y="132" fill="rgb(168,178,154)">◉</text>
  <text x="158.39999999999998" y="132" fill="rgb(158,178,136)">○</text>
  <text x="165.59999999999997" y="132" fill="rgb(129,178,86)">·</text>
  <text x="201.5999999999999" y="132" fill="rgb(98,178,85)">·</text>
  <text x="208.7999999999999" y="132" fill="rgb(138,178,136)">○</text>
  <text x="215.9999999999999" y="132" fill="rgb(155,178,155)">◉</text>
  <text x="223.19999999999987" y="132" fill="rgb(150,178,151)">◉</text>
  <text x="230.39999999999986" y="132" fill="rgb(138,178,143)">○</text>
  <text x="237.59999999999985" y="132" fill="rgb(133,178,142)">○</text>
  <text x="244.79999999999984" y="132" fill="rgb(136,178,147)">○</text>
  <text x="251.99999999999983" y="132" fill="rgb(147,178,157)">◉</text>
  <text x="259.1999999999998" y="132" fill="rgb(155,178,164)">◉</text>
  <text x="266.3999999999998" y="132" fill="rgb(141,178,158)">○</text>
  <text x="273.5999999999998" y="132" fill="rgb(95,178,139)">*</text>
  <text x="280.7999999999998" y="132" fill="rgb(32,178,119)">.</text>
  <text x="309.59999999999974" y="132" fill="rgb(78,178,164)">·</text>
  <text x="316.7999999999997" y="132" fill="rgb(132,178,175)">○</text>
  <text x="323.9999999999997" y="132" fill="rgb(154,178,178)">◉</text>
  <text x="331.1999999999997" y="132" fill="rgb(151,176,178)">◉</text>
  <text x="338.3999999999997" y="132" fill="rgb(138,172,178)">○</text>
  <text x="345.5999999999997" y="132" fill="rgb(132,168,178)">○</text>
  <text x="352.79999999999967" y="132" fill="rgb(135,166,178)">○</text>
  <text x="359.99999999999966" y="132" fill="rgb(147,168,178)">◉</text>
  <text x="367.19999999999965" y="132" fill="rgb(155,168,178)">◉</text>
  <text x="374.39999999999964" y="132" fill="rgb(143,161,178)">○</text>
  <text x="381.5999999999996" y="132" fill="rgb(101,137,178)">*</text>
  <text x="388.7999999999996" y="132" fill="rgb(39,95,178)">.</text>
  <text x="417.59999999999957" y="132" fill="rgb(71,85,178)">·</text>
  <text x="424.79999999999956" y="132" fill="rgb(127,130,178)">○</text>
  <text x="431.99999999999955" y="132" fill="rgb(152,152,178)">◉</text>
  <text x="439.19999999999953" y="132" fill="rgb(153,151,178)">◉</text>
  <text x="446.3999999999995" y="132" fill="rgb(145,140,178)">○</text>
  <text x="453.5999999999995" y="132" fill="rgb(141,133,178)">○</text>
  <text x="460.7999999999995" y="132" fill="rgb(146,135,178)">○</text>
  <text x="467.9999999999995" y="132" fill="rgb(156,144,178)">○</text>
  <text x="475.1999999999995" y="132" fill="rgb(163,154,178)">◉</text>
  <text x="482.39999999999947" y="132" fill="rgb(161,147,178)">◉</text>
  <text x="489.59999999999945" y="132" fill="rgb(144,107,178)">*</text>
  <text x="496.79999999999944" y="132" fill="rgb(125,45,178)">.</text>
  <text x="108.00000000000003" y="144" fill="rgb(178,178,30)">.</text>
  <text x="115.20000000000003" y="144" fill="rgb(170,178,51)">.</text>
  <text x="122.40000000000003" y="144" fill="rgb(163,178,67)">·</text>
  <text x="129.60000000000002" y="144" fill="rgb(156,178,72)">·</text>
  <text x="136.8" y="144" fill="rgb(148,178,65)">·</text>
  <text x="144.0" y="144" fill="rgb(135,178,50)">.</text>
  <text x="223.19999999999987" y="144" fill="rgb(49,178,58)">.</text>
  <text x="230.39999999999986" y="144" fill="rgb(65,178,80)">·</text>
  <text x="237.59999999999985" y="144" fill="rgb(71,178,92)">·</text>
  <text x="244.79999999999984" y="144" fill="rgb(67,178,97)">·</text>
  <text x="251.99999999999983" y="144" fill="rgb(51,178,94)">.</text>
  <text x="259.1999999999998" y="144" fill="rgb(29,178,88)">.</text>
  <text x="331.1999999999997" y="144" fill="rgb(47,169,178)">.</text>
  <text x="338.3999999999997" y="144" fill="rgb(64,163,178)">·</text>
  <text x="345.5999999999997" y="144" fill="rgb(72,156,178)">·</text>
  <text x="352.79999999999967" y="144" fill="rgb(68,149,178)">·</text>
  <text x="359.99999999999966" y="144" fill="rgb(54,136,178)">.</text>
  <text x="367.19999999999965" y="144" fill="rgb(32,119,178)">.</text>
  <text x="439.19999999999953" y="144" fill="rgb(52,44,178)">.</text>
  <text x="446.3999999999995" y="144" fill="rgb(77,62,178)">·</text>
  <text x="453.5999999999995" y="144" fill="rgb(92,71,178)">·</text>
  <text x="460.7999999999995" y="144" fill="rgb(98,70,178)">·</text>
  <text x="467.9999999999995" y="144" fill="rgb(96,56,178)">.</text>
  <text x="475.1999999999995" y="144" fill="rgb(93,36,178)">.</text>
  <text x="86.40000000000002" y="168" fill="rgb(178,149,35)">.</text>
  <text x="93.60000000000002" y="168" fill="rgb(178,159,37)">.</text>
  <text x="100.80000000000003" y="168" fill="rgb(178,168,37)">.</text>
  <text x="108.00000000000003" y="168" fill="rgb(178,178,35)">.</text>
  <text x="129.60000000000002" y="168" fill="rgb(148,178,28)">.</text>
  <text x="158.39999999999998" y="168" fill="rgb(109,178,31)">.</text>
  <text x="223.19999999999987" y="168" fill="rgb(33,178,43)">.</text>
  <text x="230.39999999999986" y="168" fill="rgb(37,178,55)">.</text>
  <text x="237.59999999999985" y="168" fill="rgb(37,178,65)">.</text>
  <text x="244.79999999999984" y="168" fill="rgb(37,178,74)">.</text>
  <text x="287.9999999999998" y="168" fill="rgb(33,178,129)">.</text>
  <text x="295.19999999999976" y="168" fill="rgb(37,178,140)">.</text>
  <text x="302.39999999999975" y="168" fill="rgb(33,178,149)">.</text>
  <text x="309.59999999999974" y="168" fill="rgb(29,178,158)">.</text>
  <text x="316.7999999999997" y="168" fill="rgb(36,178,168)">.</text>
  <text x="323.9999999999997" y="168" fill="rgb(37,178,178)">.</text>
  <text x="345.5999999999997" y="168" fill="rgb(29,148,178)">.</text>
  <text x="410.3999999999996" y="168" fill="rgb(32,60,178)">.</text>
  <text x="446.3999999999995" y="168" fill="rgb(49,29,178)">.</text>
  <text x="475.1999999999995" y="168" fill="rgb(90,32,178)">.</text>
  <text x="482.39999999999947" y="168" fill="rgb(102,37,178)">.</text>
  <text x="489.59999999999945" y="168" fill="rgb(112,37,178)">.</text>
  <text x="496.79999999999944" y="168" fill="rgb(121,37,178)">.</text>
  <text x="532.7999999999995" y="168" fill="rgb(168,36,178)">.</text>
  <text x="539.9999999999995" y="168" fill="rgb(178,37,178)">.</text>
  <text x="547.1999999999996" y="168" fill="rgb(178,37,168)">.</text>
  <text x="72.00000000000001" y="180" fill="rgb(178,135,48)">.</text>
  <text x="79.20000000000002" y="180" fill="rgb(178,177,174)">◉</text>
  <text x="86.40000000000002" y="180" fill="rgb(178,164,111)">*</text>
  <text x="93.60000000000002" y="180" fill="rgb(178,166,93)">*</text>
  <text x="100.80000000000003" y="180" fill="rgb(178,172,91)">*</text>
  <text x="108.00000000000003" y="180" fill="rgb(178,178,91)">*</text>
  <text x="122.40000000000003" y="180" fill="rgb(163,178,70)">·</text>
  <text x="129.60000000000002" y="180" fill="rgb(177,178,173)">◉</text>
  <text x="151.2" y="180" fill="rgb(167,178,150)">◉</text>
  <text x="158.39999999999998" y="180" fill="rgb(178,178,178)">◉</text>
  <text x="165.59999999999997" y="180" fill="rgb(150,178,125)">○</text>
  <text x="187.19999999999993" y="180" fill="rgb(106,178,79)">·</text>
  <text x="194.39999999999992" y="180" fill="rgb(170,178,168)">◉</text>
  <text x="215.9999999999999" y="180" fill="rgb(170,178,170)">◉</text>
  <text x="223.19999999999987" y="180" fill="rgb(123,178,126)">○</text>
  <text x="230.39999999999986" y="180" fill="rgb(93,178,105)">*</text>
  <text x="237.59999999999985" y="180" fill="rgb(91,178,108)">*</text>
  <text x="244.79999999999984" y="180" fill="rgb(93,178,116)">*</text>
  <text x="251.99999999999983" y="180" fill="rgb(37,178,84)">.</text>
  <text x="287.9999999999998" y="180" fill="rgb(86,178,147)">·</text>
  <text x="295.19999999999976" y="180" fill="rgb(95,178,156)">*</text>
  <text x="302.39999999999975" y="180" fill="rgb(130,178,168)">○</text>
  <text x="309.59999999999974" y="180" fill="rgb(173,178,177)">◉</text>
  <text x="316.7999999999997" y="180" fill="rgb(102,178,172)">*</text>
  <text x="323.9999999999997" y="180" fill="rgb(95,178,178)">*</text>
  <text x="331.1999999999997" y="180" fill="rgb(53,170,178)">.</text>
  <text x="338.3999999999997" y="180" fill="rgb(39,159,178)">.</text>
  <text x="345.5999999999997" y="180" fill="rgb(175,177,178)">◉</text>
  <text x="352.79999999999967" y="180" fill="rgb(43,142,178)">.</text>
  <text x="381.5999999999996" y="180" fill="rgb(168,172,178)">◉</text>
  <text x="388.7999999999996" y="180" fill="rgb(81,119,178)">·</text>
  <text x="403.1999999999996" y="180" fill="rgb(103,123,178)">*</text>
  <text x="410.3999999999996" y="180" fill="rgb(177,177,178)">◉</text>
  <text x="417.59999999999957" y="180" fill="rgb(161,163,178)">◉</text>
  <text x="446.3999999999995" y="180" fill="rgb(175,175,178)">◉</text>
  <text x="453.5999999999995" y="180" fill="rgb(81,56,178)">.</text>
  <text x="467.9999999999995" y="180" fill="rgb(150,136,178)">○</text>
  <text x="475.1999999999995" y="180" fill="rgb(160,149,178)">◉</text>
  <text x="482.39999999999947" y="180" fill="rgb(133,94,178)">*</text>
  <text x="489.59999999999945" y="180" fill="rgb(137,91,178)">*</text>
  <text x="496.79999999999944" y="180" fill="rgb(144,92,178)">*</text>
  <text x="503.99999999999943" y="180" fill="rgb(140,65,178)">·</text>
  <text x="518.3999999999994" y="180" fill="rgb(158,78,178)">·</text>
  <text x="525.5999999999995" y="180" fill="rgb(175,155,178)">◉</text>
  <text x="532.7999999999995" y="180" fill="rgb(172,99,178)">*</text>
  <text x="539.9999999999995" y="180" fill="rgb(178,93,178)">*</text>
  <text x="547.1999999999996" y="180" fill="rgb(178,95,172)">*</text>
  <text x="554.3999999999996" y="180" fill="rgb(178,141,172)">○</text>
  <text x="561.5999999999997" y="180" fill="rgb(178,133,169)">○</text>
  <text x="72.00000000000001" y="192" fill="rgb(178,136,53)">.</text>
  <text x="79.20000000000002" y="192" fill="rgb(178,178,178)">◉</text>
  <text x="86.40000000000002" y="192" fill="rgb(178,148,30)">.</text>
  <text x="122.40000000000003" y="192" fill="rgb(164,178,76)">·</text>
  <text x="129.60000000000002" y="192" fill="rgb(178,178,178)">◉</text>
  <text x="151.2" y="192" fill="rgb(172,178,164)">◉</text>
  <text x="158.39999999999998" y="192" fill="rgb(154,178,125)">○</text>
  <text x="165.59999999999997" y="192" fill="rgb(167,178,158)">◉</text>
  <text x="172.79999999999995" y="192" fill="rgb(125,178,90)">*</text>
  <text x="187.19999999999993" y="192" fill="rgb(109,178,84)">·</text>
  <text x="194.39999999999992" y="192" fill="rgb(174,178,173)">◉</text>
  <text x="215.9999999999999" y="192" fill="rgb(178,178,178)">◉</text>
  <text x="223.19999999999987" y="192" fill="rgb(57,178,65)">.</text>
  <text x="302.39999999999975" y="192" fill="rgb(76,178,157)">·</text>
  <text x="309.59999999999974" y="192" fill="rgb(175,178,177)">◉</text>
  <text x="338.3999999999997" y="192" fill="rgb(45,160,178)">.</text>
  <text x="345.5999999999997" y="192" fill="rgb(178,178,178)">◉</text>
  <text x="352.79999999999967" y="192" fill="rgb(45,142,178)">.</text>
  <text x="381.5999999999996" y="192" fill="rgb(173,175,178)">◉</text>
  <text x="388.7999999999996" y="192" fill="rgb(84,122,178)">·</text>
  <text x="403.1999999999996" y="192" fill="rgb(116,133,178)">*</text>
  <text x="410.3999999999996" y="192" fill="rgb(156,161,178)">◉</text>
  <text x="417.59999999999957" y="192" fill="rgb(128,134,178)">○</text>
  <text x="424.79999999999956" y="192" fill="rgb(141,143,178)">○</text>
  <text x="446.3999999999995" y="192" fill="rgb(178,178,178)">◉</text>
  <text x="453.5999999999995" y="192" fill="rgb(84,60,178)">·</text>
  <text x="467.9999999999995" y="192" fill="rgb(158,149,178)">◉</text>
  <text x="475.1999999999995" y="192" fill="rgb(142,118,178)">○</text>
  <text x="518.3999999999994" y="192" fill="rgb(168,129,178)">○</text>
  <text x="525.5999999999995" y="192" fill="rgb(175,157,178)">◉</text>
  <text x="554.3999999999996" y="192" fill="rgb(178,49,161)">.</text>
  <text x="561.5999999999997" y="192" fill="rgb(178,107,163)">*</text>
  <text x="72.00000000000001" y="204" fill="rgb(178,136,53)">.</text>
  <text x="79.20000000000002" y="204" fill="rgb(178,178,178)">◉</text>
  <text x="86.40000000000002" y="204" fill="rgb(178,148,30)">.</text>
  <text x="93.60000000000002" y="204" fill="rgb(178,165,84)">·</text>
  <text x="100.80000000000003" y="204" fill="rgb(178,176,153)">◉</text>
  <text x="108.00000000000003" y="204" fill="rgb(178,178,36)">.</text>
  <text x="122.40000000000003" y="204" fill="rgb(164,178,75)">·</text>
  <text x="129.60000000000002" y="204" fill="rgb(177,178,177)">◉</text>
  <text x="151.2" y="204" fill="rgb(173,178,166)">◉</text>
  <text x="158.39999999999998" y="204" fill="rgb(136,178,89)">*</text>
  <text x="165.59999999999997" y="204" fill="rgb(106,178,44)">.</text>
  <text x="172.79999999999995" y="204" fill="rgb(176,178,175)">◉</text>
  <text x="179.99999999999994" y="204" fill="rgb(85,178,39)">.</text>
  <text x="187.19999999999993" y="204" fill="rgb(102,178,76)">·</text>
  <text x="194.39999999999992" y="204" fill="rgb(172,178,172)">◉</text>
  <text x="215.9999999999999" y="204" fill="rgb(178,178,178)">◉</text>
  <text x="223.19999999999987" y="204" fill="rgb(56,178,64)">.</text>
  <text x="230.39999999999986" y="204" fill="rgb(57,178,73)">.</text>
  <text x="237.59999999999985" y="204" fill="rgb(154,178,158)">◉</text>
  <text x="244.79999999999984" y="204" fill="rgb(57,178,89)">.</text>
  <text x="302.39999999999975" y="204" fill="rgb(79,178,158)">·</text>
  <text x="309.59999999999974" y="204" fill="rgb(175,178,177)">◉</text>
  <text x="338.3999999999997" y="204" fill="rgb(44,160,178)">.</text>
  <text x="345.5999999999997" y="204" fill="rgb(178,178,178)">◉</text>
  <text x="352.79999999999967" y="204" fill="rgb(45,142,178)">.</text>
  <text x="381.5999999999996" y="204" fill="rgb(172,175,178)">◉</text>
  <text x="388.7999999999996" y="204" fill="rgb(84,121,178)">·</text>
  <text x="403.1999999999996" y="204" fill="rgb(116,133,178)">*</text>
  <text x="410.3999999999996" y="204" fill="rgb(147,154,178)">◉</text>
  <text x="424.79999999999956" y="204" fill="rgb(158,159,178)">◉</text>
  <text x="431.99999999999955" y="204" fill="rgb(94,94,178)">*</text>
  <text x="446.3999999999995" y="204" fill="rgb(178,178,178)">◉</text>
  <text x="453.5999999999995" y="204" fill="rgb(83,60,178)">·</text>
  <text x="467.9999999999995" y="204" fill="rgb(157,147,178)">◉</text>
  <text x="475.1999999999995" y="204" fill="rgb(141,116,178)">*</text>
  <text x="489.59999999999945" y="204" fill="rgb(165,150,178)">◉</text>
  <text x="496.79999999999944" y="204" fill="rgb(149,105,178)">*</text>
  <text x="518.3999999999994" y="204" fill="rgb(150,39,178)">.</text>
  <text x="525.5999999999995" y="204" fill="rgb(170,117,178)">○</text>
  <text x="532.7999999999995" y="204" fill="rgb(173,114,178)">*</text>
  <text x="539.9999999999995" y="204" fill="rgb(178,111,178)">*</text>
  <text x="547.1999999999996" y="204" fill="rgb(178,112,173)">*</text>
  <text x="554.3999999999996" y="204" fill="rgb(178,123,170)">○</text>
  <text x="561.5999999999997" y="204" fill="rgb(178,77,158)">·</text>
  <text x="72.00000000000001" y="216" fill="rgb(178,136,53)">.</text>
  <text x="79.20000000000002" y="216" fill="rgb(178,178,178)">◉</text>
  <text x="86.40000000000002" y="216" fill="rgb(178,149,35)">.</text>
  <text x="122.40000000000003" y="216" fill="rgb(164,178,75)">·</text>
  <text x="129.60000000000002" y="216" fill="rgb(177,178,177)">◉</text>
  <text x="151.2" y="216" fill="rgb(173,178,167)">◉</text>
  <text x="158.39999999999998" y="216" fill="rgb(140,178,97)">*</text>
  <text x="172.79999999999995" y="216" fill="rgb(128,178,95)">*</text>
  <text x="179.99999999999994" y="216" fill="rgb(162,178,154)">◉</text>
  <text x="187.19999999999993" y="216" fill="rgb(125,178,107)">*</text>
  <text x="194.39999999999992" y="216" fill="rgb(171,178,170)">◉</text>
  <text x="215.9999999999999" y="216" fill="rgb(178,178,178)">◉</text>
  <text x="223.19999999999987" y="216" fill="rgb(56,178,65)">.</text>
  <text x="302.39999999999975" y="216" fill="rgb(79,178,158)">·</text>
  <text x="309.59999999999974" y="216" fill="rgb(175,178,177)">◉</text>
  <text x="338.3999999999997" y="216" fill="rgb(45,160,178)">.</text>
  <text x="345.5999999999997" y="216" fill="rgb(178,178,178)">◉</text>
  <text x="352.79999999999967" y="216" fill="rgb(39,141,178)">.</text>
  <text x="381.5999999999996" y="216" fill="rgb(173,175,178)">◉</text>
  <text x="388.7999999999996" y="216" fill="rgb(87,123,178)">·</text>
  <text x="403.1999999999996" y="216" fill="rgb(116,133,178)">*</text>
  <text x="410.3999999999996" y="216" fill="rgb(152,157,178)">◉</text>
  <text x="424.79999999999956" y="216" fill="rgb(43,51,178)">.</text>
  <text x="431.99999999999955" y="216" fill="rgb(171,171,178)">◉</text>
  <text x="439.19999999999953" y="216" fill="rgb(97,91,178)">*</text>
  <text x="446.3999999999995" y="216" fill="rgb(177,177,178)">◉</text>
  <text x="453.5999999999995" y="216" fill="rgb(83,60,178)">·</text>
  <text x="467.9999999999995" y="216" fill="rgb(158,147,178)">◉</text>
  <text x="475.1999999999995" y="216" fill="rgb(142,118,178)">○</text>
  <text x="518.3999999999994" y="216" fill="rgb(156,67,178)">·</text>
  <text x="525.5999999999995" y="216" fill="rgb(164,77,178)">·</text>
  <text x="554.3999999999996" y="216" fill="rgb(178,91,166)">*</text>
  <text x="561.5999999999997" y="216" fill="rgb(178,178,178)">◉</text>
  <text x="72.00000000000001" y="228" fill="rgb(178,136,53)">.</text>
  <text x="79.20000000000002" y="228" fill="rgb(178,178,178)">◉</text>
  <text x="86.40000000000002" y="228" fill="rgb(178,149,36)">.</text>
  <text x="122.40000000000003" y="228" fill="rgb(164,178,76)">·</text>
  <text x="129.60000000000002" y="228" fill="rgb(178,178,178)">◉</text>
  <text x="151.2" y="228" fill="rgb(174,178,169)">◉</text>
  <text x="158.39999999999998" y="228" fill="rgb(140,178,98)">*</text>
  <text x="179.99999999999994" y="228" fill="rgb(147,178,133)">○</text>
  <text x="187.19999999999993" y="228" fill="rgb(178,178,178)">◉</text>
  <text x="194.39999999999992" y="228" fill="rgb(166,178,163)">◉</text>
  <text x="215.9999999999999" y="228" fill="rgb(178,178,178)">◉</text>
  <text x="223.19999999999987" y="228" fill="rgb(114,178,118)">*</text>
  <text x="230.39999999999986" y="228" fill="rgb(78,178,91)">·</text>
  <text x="237.59999999999985" y="228" fill="rgb(77,178,96)">·</text>
  <text x="244.79999999999984" y="228" fill="rgb(79,178,105)">·</text>
  <text x="251.99999999999983" y="228" fill="rgb(46,178,90)">.</text>
  <text x="302.39999999999975" y="228" fill="rgb(79,178,158)">·</text>
  <text x="309.59999999999974" y="228" fill="rgb(178,178,178)">◉</text>
  <text x="345.5999999999997" y="228" fill="rgb(159,174,178)">◉</text>
  <text x="352.79999999999967" y="228" fill="rgb(114,161,178)">*</text>
  <text x="359.99999999999966" y="228" fill="rgb(79,144,178)">·</text>
  <text x="367.19999999999965" y="228" fill="rgb(79,138,178)">·</text>
  <text x="374.39999999999964" y="228" fill="rgb(97,140,178)">*</text>
  <text x="381.5999999999996" y="228" fill="rgb(167,172,178)">◉</text>
  <text x="388.7999999999996" y="228" fill="rgb(56,105,178)">.</text>
  <text x="403.1999999999996" y="228" fill="rgb(118,133,178)">○</text>
  <text x="410.3999999999996" y="228" fill="rgb(154,158,178)">◉</text>
  <text x="431.99999999999955" y="228" fill="rgb(83,83,178)">·</text>
  <text x="439.19999999999953" y="228" fill="rgb(178,178,178)">◉</text>
  <text x="446.3999999999995" y="228" fill="rgb(178,178,178)">◉</text>
  <text x="453.5999999999995" y="228" fill="rgb(79,56,178)">.</text>
  <text x="467.9999999999995" y="228" fill="rgb(156,144,178)">○</text>
  <text x="475.1999999999995" y="228" fill="rgb(160,147,178)">◉</text>
  <text x="482.39999999999947" y="228" fill="rgb(125,79,178)">·</text>
  <text x="489.59999999999945" y="228" fill="rgb(130,77,178)">·</text>
  <text x="496.79999999999944" y="228" fill="rgb(137,78,178)">·</text>
  <text x="503.99999999999943" y="228" fill="rgb(141,67,178)">·</text>
  <text x="518.3999999999994" y="228" fill="rgb(161,95,178)">*</text>
  <text x="525.5999999999995" y="228" fill="rgb(177,168,178)">◉</text>
  <text x="532.7999999999995" y="228" fill="rgb(172,84,178)">·</text>
  <text x="539.9999999999995" y="228" fill="rgb(178,78,178)">·</text>
  <text x="547.1999999999996" y="228" fill="rgb(178,79,171)">·</text>
  <text x="554.3999999999996" y="228" fill="rgb(178,134,172)">○</text>
  <text x="561.5999999999997" y="228" fill="rgb(178,142,170)">○</text>
  <text x="79.20000000000002" y="240" fill="rgb(178,143,49)">.</text>
  <text x="129.60000000000002" y="240" fill="rgb(151,178,47)">.</text>
  <text x="151.2" y="240" fill="rgb(124,178,44)">.</text>
  <text x="187.19999999999993" y="240" fill="rgb(83,178,49)">.</text>
  <text x="194.39999999999992" y="240" fill="rgb(63,178,35)">.</text>
  <text x="215.9999999999999" y="240" fill="rgb(42,178,42)">.</text>
  <text x="223.19999999999987" y="240" fill="rgb(51,178,60)">.</text>
  <text x="230.39999999999986" y="240" fill="rgb(55,178,71)">.</text>
  <text x="237.59999999999985" y="240" fill="rgb(55,178,79)">.</text>
  <text x="244.79999999999984" y="240" fill="rgb(55,178,87)">.</text>
  <text x="251.99999999999983" y="240" fill="rgb(32,178,81)">.</text>
  <text x="309.59999999999974" y="240" fill="rgb(49,178,161)">.</text>
  <text x="352.79999999999967" y="240" fill="rgb(49,143,178)">.</text>
  <text x="359.99999999999966" y="240" fill="rgb(55,137,178)">.</text>
  <text x="367.19999999999965" y="240" fill="rgb(55,128,178)">.</text>
  <text x="374.39999999999964" y="240" fill="rgb(53,119,178)">.</text>
  <text x="403.1999999999996" y="240" fill="rgb(28,68,178)">.</text>
  <text x="410.3999999999996" y="240" fill="rgb(39,67,178)">.</text>
  <text x="439.19999999999953" y="240" fill="rgb(51,42,178)">.</text>
  <text x="446.3999999999995" y="240" fill="rgb(62,45,178)">.</text>
  <text x="467.9999999999995" y="240" fill="rgb(79,30,178)">.</text>
  <text x="475.1999999999995" y="240" fill="rgb(101,50,178)">.</text>
  <text x="482.39999999999947" y="240" fill="rgb(112,55,178)">.</text>
  <text x="489.59999999999945" y="240" fill="rgb(120,55,178)">.</text>
  <text x="496.79999999999944" y="240" fill="rgb(128,55,178)">.</text>
  <text x="503.99999999999943" y="240" fill="rgb(134,46,178)">.</text>
  <text x="525.5999999999995" y="240" fill="rgb(158,32,178)">.</text>
  <text x="532.7999999999995" y="240" fill="rgb(170,54,178)">.</text>
  <text x="539.9999999999995" y="240" fill="rgb(178,55,178)">.</text>
  <text x="547.1999999999996" y="240" fill="rgb(178,55,170)">.</text>
  <text x="554.3999999999996" y="240" fill="rgb(178,44,160)">.</text>
</svg>