<svg width="648" height="264" xmlns="http://www.w3.org/2000/svg">
  <style>
    text { font-family: "Courier New", monospace; font-size: 12px; }
  </style>
  <text x="151.2" y="36" fill="rgb(29,38,16)">·</text>
  <text x="158.39999999999998" y="36" fill="rgb(32,38,25)">○</text>
  <text x="165.59999999999997" y="36" fill="rgb(34,38,30)">○</text>
  <text x="172.79999999999995" y="36" fill="rgb(34,38,31)">◉</text>
  <text x="179.99999999999994" y="36" fill="rgb(34,38,32)">◉</text>
  <text x="187.19999999999993" y="36" fill="rgb(33,38,32)">◉</text>
  <text x="194.39999999999992" y="36" fill="rgb(32,38,31)">◉</text>
  <text x="201.5999999999999" y="36" fill="rgb(30,38,29)">○</text>
  <text x="208.7999999999999" y="36" fill="rgb(23,38,22)">*</text>
  <text x="215.9999999999999" y="36" fill="rgb(12,38,12)">.</text>
  <text x="259.1999999999998" y="36" fill="rgb(15,38,24)">·</text>
  <text x="266.3999999999998" y="36" fill="rgb(24,38,31)">*</text>
  <text x="273.5999999999998" y="36" fill="rgb(30,38,34)">○</text>
  <text x="280.7999999999998" y="36" fill="rgb(31,38,35)">◉</text>
  <text x="287.9999999999998" y="36" fill="rgb(32,38,36)">◉</text>
  <text x="295.19999999999976" y="36" fill="rgb(32,38,36)">◉</text>
  <text x="302.39999999999975" y="36" fill="rgb(31,38,36)">◉</text>
  <text x="309.59999999999974" y="36" fill="rgb(29,38,37)">○</text>
  <text x="316.7999999999997" y="36" fill="rgb(23,38,37)">*</text>
  <text x="323.9999999999997" y="36" fill="rgb(13,38,38)">·</text>
  <text x="367.19999999999965" y="36" fill="rgb(14,28,38)">·</text>
  <text x="374.39999999999964" y="36" fill="rgb(24,31,38)">*</text>
  <text x="381.5999999999996" y="36" fill="rgb(29,33,38)">○</text>
  <text x="388.7999999999996" y="36" fill="rgb(31,34,38)">◉</text>
  <text x="395.9999999999996" y="36" fill="rgb(31,34,38)">◉</text>
  <text x="403.1999999999996" y="36" fill="rgb(32,33,38)">◉</text>
  <text x="410.3999999999996" y="36" fill="rgb(31,33,38)">◉</text>
  <text x="417.59999999999957" y="36" fill="rgb(30,31,38)">○</text>
  <text x="424.79999999999956" y="36" fill="rgb(24,25,38)">*</text>
  <text x="431.99999999999955" y="36" fill="rgb(14,14,38)">·</text>
  <text x="475.1999999999995" y="36" fill="rgb(22,12,38)">·</text>
  <text x="482.39999999999947" y="36" fill="rgb(30,22,38)">*</text>
  <text x="489.59999999999945" y="36" fill="rgb(34,29,38)">○</text>
  <text x="496.79999999999944" y="36" fill="rgb(35,31,38)">◉</text>
  <text x="503.99999999999943" y="36" fill="rgb(36,31,38)">◉</text>
  <text x="511.1999999999994" y="36" fill="rgb(36,31,38)">○</text>
  <text x="518.3999999999994" y="36" fill="rgb(36,31,38)">◉</text>
  <text x="525.5999999999995" y="36" fill="rgb(37,30,38)">○</text>
  <text x="532.7999999999995" y="36" fill="rgb(37,25,38)">○</text>
  <text x="539.9999999999995" y="36" fill="rgb(38,16,38)">·</text>
  <text x="136.8" y="48" fill="rgb(33,38,20)">*</text>
  <text x="144.0" y="48" fill="rgb(36,38,33)">◉</text>
  <text x="151.2" y="48" fill="rgb(36,38,33)">◉</text>
  <text x="158.39999999999998" y="48" fill="rgb(31,38,23)">*</text>
  <text x="165.59999999999997" y="48" fill="rgb(25,38,14)">·</text>
  <text x="172.79999999999995" y="48" fill="rgb(20,38,9)">.</text>
  <text x="179.99999999999994" y="48" fill="rgb(17,38,6)">.</text>
  <text x="187.19999999999993" y="48" fill="rgb(15,38,7)">.</text>
  <text x="194.39999999999992" y="48" fill="rgb(16,38,10)">.</text>
  <text x="201.5999999999999" y="48" fill="rgb(20,38,17)">·</text>
  <text x="208.7999999999999" y="48" fill="rgb(28,38,27)">○</text>
  <text x="215.9999999999999" y="48" fill="rgb(35,38,35)">◉</text>
  <text x="223.19999999999987" y="48" fill="rgb(30,38,30)">○</text>
  <text x="230.39999999999986" y="48" fill="rgb(13,38,16)">·</text>
  <text x="244.79999999999984" y="48" fill="rgb(18,38,23)">·</text>
  <text x="251.99999999999983" y="48" fill="rgb(32,38,34)">◉</text>
  <text x="259.1999999999998" y="48" fill="rgb(33,38,35)">◉</text>
  <text x="266.3999999999998" y="48" fill="rgb(24,38,31)">*</text>
  <text x="273.5999999999998" y="48" fill="rgb(15,38,27)">·</text>
  <text x="280.7999999999998" y="48" fill="rgb(9,38,26)">.</text>
  <text x="287.9999999999998" y="48" fill="rgb(7,38,27)">.</text>
  <text x="295.19999999999976" y="48" fill="rgb(7,38,29)">.</text>
  <text x="302.39999999999975" y="48" fill="rgb(10,38,32)">.</text>
  <text x="309.59999999999974" y="48" fill="rgb(16,38,35)">·</text>
  <text x="316.7999999999997" y="48" fill="rgb(26,38,37)">○</text>
  <text x="323.9999999999997" y="48" fill="rgb(34,38,38)">◉</text>
  <text x="331.1999999999997" y="48" fill="rgb(31,37,38)">◉</text>
  <text x="338.3999999999997" y="48" fill="rgb(15,35,38)">·</text>
  <text x="352.79999999999967" y="48" fill="rgb(15,32,38)">·</text>
  <text x="359.99999999999966" y="48" fill="rgb(31,36,38)">◉</text>
  <text x="367.19999999999965" y="48" fill="rgb(34,36,38)">◉</text>
  <text x="374.39999999999964" y="48" fill="rgb(26,32,38)">○</text>
  <text x="381.5999999999996" y="48" fill="rgb(16,26,38)">·</text>
  <text x="388.7999999999996" y="48" fill="rgb(10,21,38)">.</text>
  <text x="395.9999999999996" y="48" fill="rgb(7,17,38)">.</text>
  <text x="403.1999999999996" y="48" fill="rgb(7,15,38)">.</text>
  <text x="410.3999999999996" y="48" fill="rgb(9,15,38)">.</text>
  <text x="417.59999999999957" y="48" fill="rgb(15,18,38)">·</text>
  <text x="424.79999999999956" y="48" fill="rgb(25,25,38)">○</text>
  <text x="431.99999999999955" y="48" fill="rgb(34,34,38)">◉</text>
  <text x="439.19999999999953" y="48" fill="rgb(32,32,38)">◉</text>
  <text x="446.3999999999995" y="48" fill="rgb(20,17,38)">·</text>
  <text x="460.7999999999995" y="48" fill="rgb(20,13,38)">·</text>
  <text x="467.9999999999995" y="48" fill="rgb(33,30,38)">○</text>
  <text x="475.1999999999995" y="48" fill="rgb(36,35,38)">◉</text>
  <text x="482.39999999999947" y="48" fill="rgb(32,27,38)">○</text>
  <text x="489.59999999999945" y="48" fill="rgb(28,17,38)">·</text>
  <text x="496.79999999999944" y="48" fill="rgb(27,10,38)">.</text>
  <text x="503.99999999999943" y="48" fill="rgb(29,10,38)">.</text>
  <text x="511.1999999999994" y="48" fill="rgb(31,14,38)">·</text>
  <text x="518.3999999999994" y="48" fill="rgb(33,12,38)">.</text>
  <text x="525.5999999999995" y="48" fill="rgb(34,14,38)">·</text>
  <text x="532.7999999999995" y="48" fill="rgb(37,23,38)">*</text>
  <text x="539.9999999999995" y="48" fill="rgb(38,33,38)">◉</text>
  <text x="547.1999999999996" y="48" fill="rgb(38,33,37)">◉</text>
  <text x="554.3999999999996" y="48" fill="rgb(38,20,35)">*</text>
  <text x="129.60000000000002" y="60" fill="rgb(36,38,27)">○</text>
  <text x="136.8" y="60" fill="rgb(37,38,35)">◉</text>
  <text x="144.0" y="60" fill="rgb(33,38,24)">*</text>
  <text x="215.9999999999999" y="60" fill="rgb(11,38,11)">.</text>
  <text x="223.19999999999987" y="60" fill="rgb(30,38,31)">○</text>
  <text x="230.39999999999986" y="60" fill="rgb(34,38,34)">◉</text>
  <text x="237.59999999999985" y="60" fill="rgb(29,38,31)">○</text>
  <text x="244.79999999999984" y="60" fill="rgb(35,38,36)">◉</text>
  <text x="251.99999999999983" y="60" fill="rgb(26,38,30)">○</text>
  <text x="259.1999999999998" y="60" fill="rgb(7,38,19)">.</text>
  <text x="323.9999999999997" y="60" fill="rgb(9,38,38)">.</text>
  <text x="331.1999999999997" y="60" fill="rgb(28,37,38)">○</text>
  <text x="338.3999999999997" y="60" fill="rgb(34,37,38)">◉</text>
  <text x="345.5999999999997" y="60" fill="rgb(29,36,38)">○</text>
  <text x="352.79999999999967" y="60" fill="rgb(34,37,38)">◉</text>
  <text x="359.99999999999966" y="60" fill="rgb(28,34,38)">○</text>
  <text x="367.19999999999965" y="60" fill="rgb(9,26,38)">.</text>
  <text x="431.99999999999955" y="60" fill="rgb(7,7,38)">.</text>
  <text x="439.19999999999953" y="60" fill="rgb(27,26,38)">○</text>
  <text x="446.3999999999995" y="60" fill="rgb(35,35,38)">◉</text>
  <text x="453.5999999999995" y="60" fill="rgb(31,29,38)">○</text>
  <text x="460.7999999999995" y="60" fill="rgb(35,34,38)">◉</text>
  <text x="467.9999999999995" y="60" fill="rgb(33,30,38)">○</text>
  <text x="475.1999999999995" y="60" fill="rgb(21,10,38)">.</text>
  <text x="503.99999999999943" y="60" fill="rgb(35,29,38)">○</text>
  <text x="511.1999999999994" y="60" fill="rgb(37,34,38)">◉</text>
  <text x="518.3999999999994" y="60" fill="rgb(35,26,38)">○</text>
  <text x="547.1999999999996" y="60" fill="rgb(38,24,37)">*</text>
  <text x="554.3999999999996" y="60" fill="rgb(38,35,37)">◉</text>
  <text x="561.5999999999997" y="60" fill="rgb(38,27,36)">○</text>
  <text x="122.40000000000003" y="72" fill="rgb(36,38,21)">*</text>
  <text x="129.60000000000002" y="72" fill="rgb(37,38,35)">◉</text>
  <text x="136.8" y="72" fill="rgb(34,38,25)">○</text>
  <text x="223.19999999999987" y="72" fill="rgb(8,38,10)">.</text>
  <text x="230.39999999999986" y="72" fill="rgb(32,38,33)">◉</text>
  <text x="237.59999999999985" y="72" fill="rgb(34,38,35)">◉</text>
  <text x="244.79999999999984" y="72" fill="rgb(28,38,31)">○</text>
  <text x="338.3999999999997" y="72" fill="rgb(30,37,38)">○</text>
  <text x="345.5999999999997" y="72" fill="rgb(34,37,38)">◉</text>
  <text x="352.79999999999967" y="72" fill="rgb(30,36,38)">○</text>
  <text x="446.3999999999995" y="72" fill="rgb(30,28,38)">○</text>
  <text x="453.5999999999995" y="72" fill="rgb(35,34,38)">◉</text>
  <text x="460.7999999999995" y="72" fill="rgb(33,32,38)">◉</text>
  <text x="467.9999999999995" y="72" fill="rgb(18,8,38)">.</text>
  <text x="503.99999999999943" y="72" fill="rgb(30,13,38)">·</text>
  <text x="511.1999999999994" y="72" fill="rgb(33,21,38)">*</text>
  <text x="518.3999999999994" y="72" fill="rgb(33,13,38)">·</text>
  <text x="554.3999999999996" y="72" fill="rgb(38,26,36)">○</text>
  <text x="561.5999999999997" y="72" fill="rgb(38,35,37)">◉</text>
  <text x="568.7999999999997" y="72" fill="rgb(38,20,33)">*</text>
  <text x="64.80000000000001" y="84" fill="rgb(38,25,6)">.</text>
  <text x="72.00000000000001" y="84" fill="rgb(38,34,28)">○</text>
  <text x="79.20000000000002" y="84" fill="rgb(38,36,30)">○</text>
  <text x="86.40000000000002" y="84" fill="rgb(38,36,30)">○</text>
  <text x="93.60000000000002" y="84" fill="rgb(38,37,30)">○</text>
  <text x="100.80000000000003" y="84" fill="rgb(38,37,31)">○</text>
  <text x="108.00000000000003" y="84" fill="rgb(38,38,31)">○</text>
  <text x="115.20000000000003" y="84" fill="rgb(37,38,31)">○</text>
  <text x="122.40000000000003" y="84" fill="rgb(37,38,33)">◉</text>
  <text x="129.60000000000002" y="84" fill="rgb(37,38,34)">◉</text>
  <text x="136.8" y="84" fill="rgb(31,38,13)">·</text>
  <text x="179.99999999999994" y="84" fill="rgb(30,38,27)">○</text>
  <text x="187.19999999999993" y="84" fill="rgb(30,38,27)">○</text>
  <text x="230.39999999999986" y="84" fill="rgb(25,38,27)">○</text>
  <text x="237.59999999999985" y="84" fill="rgb(35,38,36)">◉</text>
  <text x="244.79999999999984" y="84" fill="rgb(17,38,23)">·</text>
  <text x="287.9999999999998" y="84" fill="rgb(25,38,33)">○</text>
  <text x="295.19999999999976" y="84" fill="rgb(29,38,35)">○</text>
  <text x="302.39999999999975" y="84" fill="rgb(6,38,31)">.</text>
  <text x="338.3999999999997" y="84" fill="rgb(21,36,38)">*</text>
  <text x="345.5999999999997" y="84" fill="rgb(36,37,38)">◉</text>
  <text x="352.79999999999967" y="84" fill="rgb(21,33,38)">*</text>
  <text x="395.9999999999996" y="84" fill="rgb(22,27,38)">*</text>
  <text x="403.1999999999996" y="84" fill="rgb(30,32,38)">○</text>
  <text x="410.3999999999996" y="84" fill="rgb(9,15,38)">.</text>
  <text x="446.3999999999995" y="84" fill="rgb(20,18,38)">·</text>
  <text x="453.5999999999995" y="84" fill="rgb(36,35,38)">◉</text>
  <text x="460.7999999999995" y="84" fill="rgb(28,24,38)">*</text>
  <text x="503.99999999999943" y="84" fill="rgb(31,18,38)">·</text>
  <text x="511.1999999999994" y="84" fill="rgb(35,29,38)">○</text>
  <text x="518.3999999999994" y="84" fill="rgb(36,29,38)">○</text>
  <text x="525.5999999999995" y="84" fill="rgb(37,30,38)">○</text>
  <text x="532.7999999999995" y="84" fill="rgb(37,30,38)">○</text>
  <text x="539.9999999999995" y="84" fill="rgb(38,30,38)">○</text>
  <text x="547.1999999999996" y="84" fill="rgb(38,30,37)">○</text>
  <text x="554.3999999999996" y="84" fill="rgb(38,32,37)">◉</text>
  <text x="561.5999999999997" y="84" fill="rgb(38,34,37)">◉</text>
  <text x="568.7999999999997" y="84" fill="rgb(38,27,35)">○</text>
  <text x="64.80000000000001" y="96" fill="rgb(38,25,6)">.</text>
  <text x="72.00000000000001" y="96" fill="rgb(38,36,33)">◉</text>
  <text x="79.20000000000002" y="96" fill="rgb(38,37,34)">◉</text>
  <text x="86.40000000000002" y="96" fill="rgb(38,34,19)">*</text>
  <text x="93.60000000000002" y="96" fill="rgb(38,34,10)">.</text>
  <text x="100.80000000000003" y="96" fill="rgb(38,36,10)">.</text>
  <text x="108.00000000000003" y="96" fill="rgb(38,38,11)">.</text>
  <text x="115.20000000000003" y="96" fill="rgb(36,38,10)">.</text>
  <text x="122.40000000000003" y="96" fill="rgb(34,38,10)">.</text>
  <text x="129.60000000000002" y="96" fill="rgb(32,38,9)">.</text>
  <text x="172.79999999999995" y="96" fill="rgb(23,38,13)">·</text>
  <text x="179.99999999999994" y="96" fill="rgb(35,38,34)">◉</text>
  <text x="187.19999999999993" y="96" fill="rgb(35,38,35)">◉</text>
  <text x="194.39999999999992" y="96" fill="rgb(18,38,13)">·</text>
  <text x="237.59999999999985" y="96" fill="rgb(9,38,15)">.</text>
  <text x="280.7999999999998" y="96" fill="rgb(9,38,26)">.</text>
  <text x="287.9999999999998" y="96" fill="rgb(34,38,36)">◉</text>
  <text x="295.19999999999976" y="96" fill="rgb(35,38,37)">◉</text>
  <text x="302.39999999999975" y="96" fill="rgb(17,38,34)">·</text>
  <text x="345.5999999999997" y="96" fill="rgb(9,32,38)">.</text>
  <text x="388.7999999999996" y="96" fill="rgb(6,19,38)">.</text>
  <text x="395.9999999999996" y="96" fill="rgb(32,34,38)">◉</text>
  <text x="403.1999999999996" y="96" fill="rgb(35,36,38)">◉</text>
  <text x="410.3999999999996" y="96" fill="rgb(21,24,38)">*</text>
  <text x="453.5999999999995" y="96" fill="rgb(15,9,38)">.</text>
  <text x="503.99999999999943" y="96" fill="rgb(35,31,38)">○</text>
  <text x="511.1999999999994" y="96" fill="rgb(37,35,38)">◉</text>
  <text x="518.3999999999994" y="96" fill="rgb(34,19,38)">*</text>
  <text x="525.5999999999995" y="96" fill="rgb(34,10,38)">.</text>
  <text x="532.7999999999995" y="96" fill="rgb(36,10,38)">.</text>
  <text x="539.9999999999995" y="96" fill="rgb(38,10,38)">.</text>
  <text x="547.1999999999996" y="96" fill="rgb(38,10,36)">.</text>
  <text x="554.3999999999996" y="96" fill="rgb(38,10,34)">.</text>
  <text x="561.5999999999997" y="96" fill="rgb(38,10,32)">.</text>
  <text x="72.00000000000001" y="108" fill="rgb(38,31,19)">*</text>
  <text x="79.20000000000002" y="108" fill="rgb(38,37,35)">◉</text>
  <text x="86.40000000000002" y="108" fill="rgb(38,36,28)">○</text>
  <text x="93.60000000000002" y="108" fill="rgb(38,33,6)">.</text>
  <text x="165.59999999999997" y="108" fill="rgb(22,38,9)">.</text>
  <text x="172.79999999999995" y="108" fill="rgb(33,38,30)">○</text>
  <text x="179.99999999999994" y="108" fill="rgb(35,38,34)">◉</text>
  <text x="187.19999999999993" y="108" fill="rgb(35,38,34)">◉</text>
  <text x="194.39999999999992" y="108" fill="rgb(32,38,31)">○</text>
  <text x="201.5999999999999" y="108" fill="rgb(13,38,9)">.</text>
  <text x="273.5999999999998" y="108" fill="rgb(7,38,23)">.</text>
  <text x="280.7999999999998" y="108" fill="rgb(28,38,34)">○</text>
  <text x="287.9999999999998" y="108" fill="rgb(34,38,37)">◉</text>
  <text x="295.19999999999976" y="108" fill="rgb(34,38,37)">◉</text>
  <text x="302.39999999999975" y="108" fill="rgb(32,38,37)">◉</text>
  <text x="309.59999999999974" y="108" fill="rgb(12,38,34)">.</text>
  <text x="388.7999999999996" y="108" fill="rgb(26,31,38)">○</text>
  <text x="395.9999999999996" y="108" fill="rgb(34,36,38)">◉</text>
  <text x="403.1999999999996" y="108" fill="rgb(34,35,38)">◉</text>
  <text x="410.3999999999996" y="108" fill="rgb(33,34,38)">◉</text>
  <text x="417.59999999999957" y="108" fill="rgb(14,17,38)">·</text>
  <text x="496.79999999999944" y="108" fill="rgb(32,24,38)">*</text>
  <text x="503.99999999999943" y="108" fill="rgb(37,35,38)">◉</text>
  <text x="511.1999999999994" y="108" fill="rgb(34,25,38)">○</text>
  <text x="79.20000000000002" y="120" fill="rgb(38,32,17)">·</text>
  <text x="86.40000000000002" y="120" fill="rgb(38,37,33)">◉</text>
  <text x="93.60000000000002" y="120" fill="rgb(38,37,33)">◉</text>
  <text x="100.80000000000003" y="120" fill="rgb(38,37,20)">*</text>
  <text x="108.00000000000003" y="120" fill="rgb(38,38,9)">.</text>
  <text x="151.2" y="120" fill="rgb(27,38,10)">.</text>
  <text x="158.39999999999998" y="120" fill="rgb(30,38,22)">*</text>
  <text x="165.59999999999997" y="120" fill="rgb(36,38,34)">◉</text>
  <text x="172.79999999999995" y="120" fill="rgb(34,38,32)">◉</text>
  <text x="179.99999999999994" y="120" fill="rgb(22,38,15)">·</text>
  <text x="187.19999999999993" y="120" fill="rgb(21,38,15)">·</text>
  <text x="194.39999999999992" y="120" fill="rgb(33,38,32)">◉</text>
  <text x="201.5999999999999" y="120" fill="rgb(34,38,34)">◉</text>
  <text x="208.7999999999999" y="120" fill="rgb(23,38,22)">*</text>
  <text x="215.9999999999999" y="120" fill="rgb(10,38,10)">.</text>
  <text x="259.1999999999998" y="120" fill="rgb(9,38,20)">.</text>
  <text x="266.3999999999998" y="120" fill="rgb(20,38,28)">*</text>
  <text x="273.5999999999998" y="120" fill="rgb(33,38,36)">◉</text>
  <text x="280.7999999999998" y="120" fill="rgb(33,38,36)">◉</text>
  <text x="287.9999999999998" y="120" fill="rgb(17,38,31)">·</text>
  <text x="295.19999999999976" y="120" fill="rgb(13,38,31)">·</text>
  <text x="302.39999999999975" y="120" fill="rgb(30,38,36)">○</text>
  <text x="309.59999999999974" y="120" fill="rgb(35,38,37)">◉</text>
  <text x="316.7999999999997" y="120" fill="rgb(24,38,37)">*</text>
  <text x="323.9999999999997" y="120" fill="rgb(11,38,38)">.</text>
  <text x="367.19999999999965" y="120" fill="rgb(8,26,38)">.</text>
  <text x="374.39999999999964" y="120" fill="rgb(18,29,38)">*</text>
  <text x="381.5999999999996" y="120" fill="rgb(32,34,38)">◉</text>
  <text x="388.7999999999996" y="120" fill="rgb(34,36,38)">◉</text>
  <text x="395.9999999999996" y="120" fill="rgb(19,25,38)">*</text>
  <text x="403.1999999999996" y="120" fill="rgb(11,18,38)">.</text>
  <text x="410.3999999999996" y="120" fill="rgb(29,31,38)">○</text>
  <text x="417.59999999999957" y="120" fill="rgb(35,35,38)">◉</text>
  <text x="424.79999999999956" y="120" fill="rgb(26,26,38)">○</text>
  <text x="431.99999999999955" y="120" fill="rgb(12,12,38)">·</text>
  <text x="475.1999999999995" y="120" fill="rgb(19,7,38)">.</text>
  <text x="482.39999999999947" y="120" fill="rgb(27,17,38)">·</text>
  <text x="489.59999999999945" y="120" fill="rgb(34,30,38)">○</text>
  <text x="496.79999999999944" y="120" fill="rgb(36,34,38)">◉</text>
  <text x="503.99999999999943" y="120" fill="rgb(33,22,38)">*</text>
  <text x="86.40000000000002" y="132" fill="rgb(38,31,6)">.</text>
  <text x="93.60000000000002" y="132" fill="rgb(38,35,19)">*</text>
  <text x="100.80000000000003" y="132" fill="rgb(38,37,29)">○</text>
  <text x="108.00000000000003" y="132" fill="rgb(38,38,33)">◉</text>
  <text x="115.20000000000003" y="132" fill="rgb(37,38,31)">◉</text>
  <text x="122.40000000000003" y="132" fill="rgb(37,38,29)">○</text>
  <text x="129.60000000000002" y="132" fill="rgb(36,38,28)">○</text>
  <text x="136.8" y="132" fill="rgb(35,38,29)">○</text>
  <text x="144.0" y="132" fill="rgb(36,38,31)">◉</text>
  <text x="151.2" y="132" fill="rgb(36,38,33)">◉</text>
  <text x="158.39999999999998" y="132" fill="rgb(34,38,29)">○</text>
  <text x="165.59999999999997" y="132" fill="rgb(27,38,18)">·</text>
  <text x="201.5999999999999" y="132" fill="rgb(21,38,18)">·</text>
  <text x="208.7999999999999" y="132" fill="rgb(29,38,29)">○</text>
  <text x="215.9999999999999" y="132" fill="rgb(33,38,33)">◉</text>
  <text x="223.19999999999987" y="132" fill="rgb(32,38,32)">◉</text>
  <text x="230.39999999999986" y="132" fill="rgb(29,38,30)">○</text>
  <text x="237.59999999999985" y="132" fill="rgb(28,38,30)">○</text>
  <text x="244.79999999999984" y="132" fill="rgb(29,38,31)">○</text>
  <text x="251.99999999999983" y="132" fill="rgb(31,38,33)">◉</text>
  <text x="259.1999999999998" y="132" fill="rgb(33,38,35)">◉</text>
  <text x="266.3999999999998" y="132" fill="rgb(30,38,33)">○</text>
  <text x="273.5999999999998" y="132" fill="rgb(20,38,29)">*</text>
  <text x="280.7999999999998" y="132" fill="rgb(7,38,25)">.</text>
  <text x="309.59999999999974" y="132" fill="rgb(16,38,35)">·</text>
  <text x="316.7999999999997" y="132" fill="rgb(28,38,37)">○</text>
  <text x="323.9999999999997" y="132" fill="rgb(33,38,38)">◉</text>
  <text x="331.1999999999997" y="132" fill="rgb(32,37,38)">◉</text>
  <text x="338.3999999999997" y="132" fill="rgb(29,37,38)">○</text>
  <text x="345.5999999999997" y="132" fill="rgb(28,36,38)">○</text>
  <text x="352.79999999999967" y="132" fill="rgb(29,35,38)">○</text>
  <text x="359.99999999999966" y="132" fill="rgb(31,36,38)">◉</text>
  <text x="367.19999999999965" y="132" fill="rgb(33,36,38)">◉</text>
  <text x="374.39999999999964" y="132" fill="rgb(30,34,38)">○</text>
  <text x="381.5999999999996" y="132" fill="rgb(21,29,38)">*</text>
  <text x="388.7999999999996" y="132" fill="rgb(8,20,38)">.</text>
  <text x="417.59999999999957" y="132" fill="rgb(15,18,38)">·</text>
  <text x="424.79999999999956" y="132" fill="rgb(27,27,38)">○</text>
  <text x="431.99999999999955" y="132" fill="rgb(32,32,38)">◉</text>
  <text x="439.19999999999953" y="132" fill="rgb(32,32,38)">◉</text>
  <text x="446.3999999999995" y="132" fill="rgb(31,30,38)">○</text>
  <text x="453.5999999999995" y="132" fill="rgb(30,28,38)">○</text>
  <text x="460.7999999999995" y="132" fill="rgb(31,28,38)">○</text>
  <text x="467.9999999999995" y="132" fill="rgb(33,31,38)">○</text>
  <text x="475.1999999999995" y="132" fill="rgb(35,33,38)">◉</text>
  <text x="482.39999999999947" y="132" fill="rgb(34,31,38)">◉</text>
  <text x="489.59999999999945" y="132" fill="rgb(31,23,38)">*</text>
  <text x="496.79999999999944" y="132" fill="rgb(26,9,38)">.</text>
  <text x="108.00000000000003" y="144" fill="rgb(38,38,6)">.</text>
  <text x="115.20000000000003" y="144" fill="rgb(36,38,11)">.</text>
  <text x="122.40000000000003" y="144" fill="rgb(34,38,14)">·</text>
  <text x="129.60000000000002" y="144" fill="rgb(33,38,15)">·</text>
  <text x="136.8" y="144" fill="rgb(31,38,14)">·</text>
  <text x="144.0" y="144" fill="rgb(29,38,10)">.</text>
  <text x="223.19999999999987" y="144" fill="rgb(10,38,12)">.</text>
  <text x="230.39999999999986" y="144" fill="rgb(14,38,17)">·</text>
  <text x="237.59999999999985" y="144" fill="rgb(15,38,19)">·</text>
  <text x="244.79999999999984" y="144" fill="rgb(14,38,20)">·</text>
  <text x="251.99999999999983" y="144" fill="rgb(11,38,20)">.</text>
  <text x="259.1999999999998" y="144" fill="rgb(6,38,19)">.</text>
  <text x="331.1999999999997" y="144" fill="rgb(10,36,38)">.</text>
  <text x="338.3999999999997" y="144" fill="rgb(13,34,38)">·</text>
  <text x="345.5999999999997" y="144" fill="rgb(15,33,38)">·</text>
  <text x="352.79999999999967" y="144" fill="rgb(14,31,38)">·</text>
  <text x="359.99999999999966" y="144" fill="rgb(11,29,38)">.</text>
  <text x="367.19999999999965" y="144" fill="rgb(7,25,38)">.</text>
  <text x="439.19999999999953" y="144" fill="rgb(11,9,38)">.</text>
  <text x="446.3999999999995" y="144" fill="rgb(16,13,38)">·</text>
  <text x="453.5999999999995" y="144" fill="rgb(19,15,38)">·</text>
  <text x="460.7999999999995" y="144" fill="rgb(21,15,38)">·</text>
  <text x="467.9999999999995" y="144" fill="rgb(20,12,38)">.</text>
  <text x="475.1999999999995" y="144" fill="rgb(19,7,38)">.</text>
  <text x="86.40000000000002" y="168" fill="rgb(38,32,7)">.</text>
  <text x="93.60000000000002" y="168" fill="rgb(38,34,7)">.</text>
  <text x="100.80000000000003" y="168" fill="rgb(38,36,7)">.</text>
  <text x="108.00000000000003" y="168" fill="rgb(38,38,7)">.</text>
  <text x="129.60000000000002" y="168" fill="rgb(31,38,6)">.</text>
  <text x="158.39999999999998" y="168" fill="rgb(23,38,6)">.</text>
  <text x="223.19999999999987" y="168" fill="rgb(7,38,9)">.</text>
  <text x="230.39999999999986" y="168" fill="rgb(7,38,11)">.</text>
  <text x="237.59999999999985" y="168" fill="rgb(7,38,13)">.</text>
  <text x="244.79999999999984" y="168" fill="rgb(7,38,15)">.</text>
  <text x="287.9999999999998" y="168" fill="rgb(7,38,27)">.</text>
  <text x="295.19999999999976" y="168" fill="rgb(7,38,30)">.</text>
  <text x="302.39999999999975" y="168" fill="rgb(7,38,31)">.</text>
  <text x="309.59999999999974" y="168" fill="rgb(6,38,33)">.</text>
  <text x="316.7999999999997" y="168" fill="rgb(7,38,36)">.</text>
  <text x="323.9999999999997" y="168" fill="rgb(7,38,38)">.</text>
  <text x="345.5999999999997" y="168" fill="rgb(6,31,38)">.</text>
  <text x="410.3999999999996" y="168" fill="rgb(6,13,38)">.</text>
  <text x="446.3999999999995" y="168" fill="rgb(10,6,38)">.</text>
  <text x="475.1999999999995" y="168" fill="rgb(19,6,38)">.</text>
  <text x="482.39999999999947" y="168" fill="rgb(22,7,38)">.</text>
  <text x="489.59999999999945" y="168" fill="rgb(24,7,38)">.</text>
  <text x="496.79999999999944" y="168" fill="rgb(26,7,38)">.</text>
  <text x="532.7999999999995" y="168" fill="rgb(36,7,38)">.</text>
  <text x="539.9999999999995" y="168" fill="rgb(38,7,38)">.</text>
  <text x="547.1999999999996" y="168" fill="rgb(38,7,36)">.</text>
  <text x="72.00000000000001" y="180" fill="rgb(38,28,10)">.</text>
  <text x="79.20000000000002" y="180" fill="rgb(38,37,37)">◉</text>
  <text x="86.40000000000002" y="180" fill="rgb(38,35,23)">*</text>
  <text x="93.60000000000002" y="180" fill="rgb(38,35,20)">*</text>
  <text x="100.80000000000003" y="180" fill="rgb(38,36,19)">*</text>
  <text x="108.00000000000003" y="180" fill="rgb(38,38,19)">*</text>
  <text x="122.40000000000003" y="180" fill="rgb(35,38,15)">·</text>
  <text x="129.60000000000002" y="180" fill="rgb(37,38,37)">◉</text>
  <text x="151.2" y="180" fill="rgb(35,38,32)">◉</text>
  <text x="158.39999999999998" y="180" fill="rgb(38,38,38)">◉</text>
  <text x="165.59999999999997" y="180" fill="rgb(32,38,27)">○</text>
  <text x="187.19999999999993" y="180" fill="rgb(22,38,17)">·</text>
  <text x="194.39999999999992" y="180" fill="rgb(36,38,36)">◉</text>
  <text x="215.9999999999999" y="180" fill="rgb(36,38,36)">◉</text>
  <text x="223.19999999999987" y="180" fill="rgb(26,38,27)">○</text>
  <text x="230.39999999999986" y="180" fill="rgb(20,38,22)">*</text>
  <text x="237.59999999999985" y="180" fill="rgb(19,38,23)">*</text>
  <text x="244.79999999999984" y="180" fill="rgb(20,38,24)">*</text>
  <text x="251.99999999999983" y="180" fill="rgb(7,38,18)">.</text>
  <text x="287.9999999999998" y="180" fill="rgb(18,38,31)">·</text>
  <text x="295.19999999999976" y="180" fill="rgb(20,38,33)">*</text>
  <text x="302.39999999999975" y="180" fill="rgb(27,38,36)">○</text>
  <text x="309.59999999999974" y="180" fill="rgb(37,38,38)">◉</text>
  <text x="316.7999999999997" y="180" fill="rgb(22,38,37)">*</text>
  <text x="323.9999999999997" y="180" fill="rgb(20,38,38)">*</text>
  <text x="331.1999999999997" y="180" fill="rgb(11,36,38)">.</text>
  <text x="338.3999999999997" y="180" fill="rgb(8,34,38)">.</text>
  <text x="345.5999999999997" y="180" fill="rgb(37,38,38)">◉</text>
  <text x="352.79999999999967" y="180" fill="rgb(9,30,38)">.</text>
  <text x="381.5999999999996" y="180" fill="rgb(36,37,38)">◉</text>
  <text x="388.7999999999996" y="180" fill="rgb(17,25,38)">·</text>
  <text x="403.1999999999996" y="180" fill="rgb(22,26,38)">*</text>
  <text x="410.3999999999996" y="180" fill="rgb(37,37,38)">◉</text>
  <text x="417.59999999999957" y="180" fill="rgb(34,34,38)">◉</text>
  <text x="446.3999999999995" y="180" fill="rgb(37,37,38)">◉</text>
  <text x="453.5999999999995" y="180" fill="rgb(17,12,38)">.</text>
  <text x="467.9999999999995" y="180" fill="rgb(32,29,38)">○</text>
  <text x="475.1999999999995" y="180" fill="rgb(34,31,38)">◉</text>
  <text x="482.39999999999947" y="180" fill="rgb(28,20,38)">*</text>
  <text x="489.59999999999945" y="180" fill="rgb(29,19,38)">*</text>
  <text x="496.79999999999944" y="180" fill="rgb(30,19,38)">*</text>
  <text x="503.99999999999943" y="180" fill="rgb(30,14,38)">·</text>
  <text x="518.3999999999994" y="180" fill="rgb(33,16,38)">·</text>
  <text x="525.5999999999995" y="180" fill="rgb(37,33,38)">◉</text>
  <text x="532.7999999999995" y="180" fill="rgb(37,21,38)">*</text>
  <text x="539.9999999999995" y="180" fill="rgb(38,20,38)">*</text>
  <text x="547.1999999999996" y="180" fill="rgb(38,20,37)">*</text>
  <text x="554.3999999999996" y="180" fill="rgb(38,30,37)">○</text>
  <text x="561.5999999999997" y="180" fill="rgb(38,28,36)">○</text>
  <text x="72.00000000000001" y="192" fill="rgb(38,29,11)">.</text>
  <text x="79.20000000000002" y="192" fill="rgb(38,38,38)">◉</text>
  <text x="86.40000000000002" y="192" fill="rgb(38,31,6)">.</text>
  <text x="122.40000000000003" y="192" fill="rgb(35,38,16)">·</text>
  <text x="129.60000000000002" y="192" fill="rgb(38,38,38)">◉</text>
  <text x="151.2" y="192" fill="rgb(37,38,35)">◉</text>
  <text x="158.39999999999998" y="192" fill="rgb(33,38,27)">○</text>
  <text x="165.59999999999997" y="192" fill="rgb(35,38,33)">◉</text>
  <text x="172.79999999999995" y="192" fill="rgb(26,38,19)">*</text>
  <text x="187.19999999999993" y="192" fill="rgb(23,38,18)">·</text>
  <text x="194.39999999999992" y="192" fill="rgb(37,38,37)">◉</text>
  <text x="215.9999999999999" y="192" fill="rgb(38,38,38)">◉</text>
  <text x="223.19999999999987" y="192" fill="rgb(12,38,14)">.</text>
  <text x="302.39999999999975" y="192" fill="rgb(16,38,33)">·</text>
  <text x="309.59999999999974" y="192" fill="rgb(37,38,38)">◉</text>
  <text x="338.3999999999997" y="192" fill="rgb(9,34,38)">.</text>
  <text x="345.5999999999997" y="192" fill="rgb(38,38,38)">◉</text>
  <text x="352.79999999999967" y="192" fill="rgb(9,30,38)">.</text>
  <text x="381.5999999999996" y="192" fill="rgb(37,37,38)">◉</text>
  <text x="388.7999999999996" y="192" fill="rgb(18,26,38)">·</text>
  <text x="403.1999999999996" y="192" fill="rgb(25,28,38)">*</text>
  <text x="410.3999999999996" y="192" fill="rgb(33,34,38)">◉</text>
  <text x="417.59999999999957" y="192" fill="rgb(27,28,38)">○</text>
  <text x="424.79999999999956" y="192" fill="rgb(30,30,38)">○</text>
  <text x="446.3999999999995" y="192" fill="rgb(38,38,38)">◉</text>
  <text x="453.5999999999995" y="192" fill="rgb(18,13,38)">·</text>
  <text x="467.9999999999995" y="192" fill="rgb(34,31,38)">◉</text>
  <text x="475.1999999999995" y="192" fill="rgb(30,25,38)">○</text>
  <text x="518.3999999999994" y="192" fill="rgb(36,27,38)">○</text>
  <text x="525.5999999999995" y="192" fill="rgb(37,33,38)">◉</text>
  <text x="554.3999999999996" y="192" fill="rgb(38,10,34)">.</text>
  <text x="561.5999999999997" y="192" fill="rgb(38,23,35)">*</text>
  <text x="72.00000000000001" y="204" fill="rgb(38,29,11)">.</text>
  <text x="79.20000000000002" y="204" fill="rgb(38,38,38)">◉</text>
  <text x="86.40000000000002" y="204" fill="rgb(38,31,6)">.</text>
  <text x="93.60000000000002" y="204" fill="rgb(38,35,18)">·</text>
  <text x="100.80000000000003" y="204" fill="rgb(38,37,32)">◉</text>
  <text x="108.00000000000003" y="204" fill="rgb(38,38,7)">.</text>
  <text x="122.40000000000003" y="204" fill="rgb(35,38,16)">·</text>
  <text x="129.60000000000002" y="204" fill="rgb(38,38,37)">◉</text>
  <text x="151.2" y="204" fill="rgb(37,38,35)">◉</text>
  <text x="158.39999999999998" y="204" fill="rgb(29,38,19)">*</text>
  <text x="165.59999999999997" y="204" fill="rgb(22,38,9)">.</text>
  <text x="172.79999999999995" y="204" fill="rgb(37,38,37)">◉</text>
  <text x="179.99999999999994" y="204" fill="rgb(18,38,8)">.</text>
  <text x="187.19999999999993" y="204" fill="rgb(22,38,16)">·</text>
  <text x="194.39999999999992" y="204" fill="rgb(37,38,36)">◉</text>
  <text x="215.9999999999999" y="204" fill="rgb(38,38,38)">◉</text>
  <text x="223.19999999999987" y="204" fill="rgb(12,38,13)">.</text>
  <text x="230.39999999999986" y="204" fill="rgb(12,38,15)">.</text>
  <text x="237.59999999999985" y="204" fill="rgb(33,38,34)">◉</text>
  <text x="244.79999999999984" y="204" fill="rgb(12,38,19)">.</text>
  <text x="302.39999999999975" y="204" fill="rgb(16,38,33)">·</text>
  <text x="309.59999999999974" y="204" fill="rgb(37,38,38)">◉</text>
  <text x="338.3999999999997" y="204" fill="rgb(9,34,38)">.</text>
  <text x="345.5999999999997" y="204" fill="rgb(38,38,38)">◉</text>
  <text x="352.79999999999967" y="204" fill="rgb(9,30,38)">.</text>
  <text x="381.5999999999996" y="204" fill="rgb(36,37,38)">◉</text>
  <text x="388.7999999999996" y="204" fill="rgb(18,26,38)">·</text>
  <text x="403.1999999999996" y="204" fill="rgb(25,28,38)">*</text>
  <text x="410.3999999999996" y="204" fill="rgb(31,33,38)">◉</text>
  <text x="424.79999999999956" y="204" fill="rgb(34,34,38)">◉</text>
  <text x="431.99999999999955" y="204" fill="rgb(20,20,38)">*</text>
  <text x="446.3999999999995" y="204" fill="rgb(38,38,38)">◉</text>
  <text x="453.5999999999995" y="204" fill="rgb(17,12,38)">·</text>
  <text x="467.9999999999995" y="204" fill="rgb(33,31,38)">◉</text>
  <text x="475.1999999999995" y="204" fill="rgb(30,25,38)">*</text>
  <text x="489.59999999999945" y="204" fill="rgb(35,32,38)">◉</text>
  <text x="496.79999999999944" y="204" fill="rgb(31,22,38)">*</text>
  <text x="518.3999999999994" y="204" fill="rgb(32,8,38)">.</text>
  <text x="525.5999999999995" y="204" fill="rgb(36,25,38)">○</text>
  <text x="532.7999999999995" y="204" fill="rgb(37,24,38)">*</text>
  <text x="539.9999999999995" y="204" fill="rgb(38,23,38)">*</text>
  <text x="547.1999999999996" y="204" fill="rgb(38,24,37)">*</text>
  <text x="554.3999999999996" y="204" fill="rgb(38,26,36)">○</text>
  <text x="561.5999999999997" y="204" fill="rgb(38,16,33)">·</text>
  <text x="72.00000000000001" y="216" fill="rgb(38,29,11)">.</text>
  <text x="79.20000000000002" y="216" fill="rgb(38,38,38)">◉</text>
  <text x="86.40000000000002" y="216" fill="rgb(38,32,7)">.</text>
  <text x="122.40000000000003" y="216" fill="rgb(35,38,16)">·</text>
  <text x="129.60000000000002" y="216" fill="rgb(38,38,38)">◉</text>
  <text x="151.2" y="216" fill="rgb(37,38,35)">◉</text>
  <text x="158.39999999999998" y="216" fill="rgb(30,38,20)">*</text>
  <text x="172.79999999999995" y="216" fill="rgb(27,38,20)">*</text>
  <text x="179.99999999999994" y="216" fill="rgb(34,38,33)">◉</text>
  <text x="187.19999999999993" y="216" fill="rgb(27,38,23)">*</text>
  <text x="194.39999999999992" y="216" fill="rgb(36,38,36)">◉</text>
  <text x="215.9999999999999" y="216" fill="rgb(38,38,38)">◉</text>
  <text x="223.19999999999987" y="216" fill="rgb(12,38,13)">.</text>
  <text x="302.39999999999975" y="216" fill="rgb(16,38,33)">·</text>
  <text x="309.59999999999974" y="216" fill="rgb(37,38,38)">◉</text>
  <text x="338.3999999999997" y="216" fill="rgb(9,34,38)">.</text>
  <text x="345.5999999999997" y="216" fill="rgb(38,38,38)">◉</text>
  <text x="352.79999999999967" y="216" fill="rgb(8,30,38)">.</text>
  <text x="381.5999999999996" y="216" fill="rgb(37,37,38)">◉</text>
  <text x="388.7999999999996" y="216" fill="rgb(18,26,38)">·</text>
  <text x="403.1999999999996" y="216" fill="rgb(25,28,38)">*</text>
  <text x="410.3999999999996" y="216" fill="rgb(32,33,38)">◉</text>
  <text x="424.79999999999956" y="216" fill="rgb(9,11,38)">.</text>
  <text x="431.99999999999955" y="216" fill="rgb(36,36,38)">◉</text>
  <text x="439.19999999999953" y="216" fill="rgb(20,19,38)">*</text>
  <text x="446.3999999999995" y="216" fill="rgb(37,37,38)">◉</text>
  <text x="453.5999999999995" y="216" fill="rgb(17,12,38)">·</text>
  <text x="467.9999999999995" y="216" fill="rgb(33,31,38)">◉</text>
  <text x="475.1999999999995" y="216" fill="rgb(30,25,38)">○</text>
  <text x="518.3999999999994" y="216" fill="rgb(33,14,38)">·</text>
  <text x="525.5999999999995" y="216" fill="rgb(35,16,38)">·</text>
  <text x="554.3999999999996" y="216" fill="rgb(38,19,35)">*</text>
  <text x="561.5999999999997" y="216" fill="rgb(38,38,38)">◉</text>
  <text x="72.00000000000001" y="228" fill="rgb(38,29,11)">.</text>
  <text x="79.20000000000002" y="228" fill="rgb(38,38,38)">◉</text>
  <text x="86.40000000000002" y="228" fill="rgb(38,32,7)">.</text>
  <text x="122.40000000000003" y="228" fill="rgb(35,38,16)">·</text>
  <text x="129.60000000000002" y="228" fill="rgb(38,38,38)">◉</text>
  <text x="151.2" y="228" fill="rgb(37,38,36)">◉</text>
  <text x="158.39999999999998" y="228" fill="rgb(30,38,21)">*</text>
  <text x="179.99999999999994" y="228" fill="rgb(31,38,28)">○</text>
  <text x="187.19999999999993" y="228" fill="rgb(38,38,38)">◉</text>
  <text x="194.39999999999992" y="228" fill="rgb(35,38,35)">◉</text>
  <text x="215.9999999999999" y="228" fill="rgb(38,38,38)">◉</text>
  <text x="223.19999999999987" y="228" fill="rgb(24,38,25)">*</text>
  <text x="230.39999999999986" y="228" fill="rgb(16,38,19)">·</text>
  <text x="237.59999999999985" y="228" fill="rgb(16,38,20)">·</text>
  <text x="244.79999999999984" y="228" fill="rgb(16,38,22)">·</text>
  <text x="251.99999999999983" y="228" fill="rgb(9,38,19)">.</text>
  <text x="302.39999999999975" y="228" fill="rgb(16,38,33)">·</text>
  <text x="309.59999999999974" y="228" fill="rgb(38,38,38)">◉</text>
  <text x="345.5999999999997" y="228" fill="rgb(34,37,38)">◉</text>
  <text x="352.79999999999967" y="228" fill="rgb(24,34,38)">*</text>
  <text x="359.99999999999966" y="228" fill="rgb(16,31,38)">·</text>
  <text x="367.19999999999965" y="228" fill="rgb(16,29,38)">·</text>
  <text x="374.39999999999964" y="228" fill="rgb(20,30,38)">*</text>
  <text x="381.5999999999996" y="228" fill="rgb(35,36,38)">◉</text>
  <text x="388.7999999999996" y="228" fill="rgb(12,22,38)">.</text>
  <text x="403.1999999999996" y="228" fill="rgb(25,28,38)">○</text>
  <text x="410.3999999999996" y="228" fill="rgb(33,34,38)">◉</text>
  <text x="431.99999999999955" y="228" fill="rgb(17,17,38)">·</text>
  <text x="439.19999999999953" y="228" fill="rgb(38,38,38)">◉</text>
  <text x="446.3999999999995" y="228" fill="rgb(38,38,38)">◉</text>
  <text x="453.5999999999995" y="228" fill="rgb(17,12,38)">.</text>
  <text x="467.9999999999995" y="228" fill="rgb(33,31,38)">○</text>
  <text x="475.1999999999995" y="228" fill="rgb(34,31,38)">◉</text>
  <text x="482.39999999999947" y="228" fill="rgb(26,16,38)">·</text>
  <text x="489.59999999999945" y="228" fill="rgb(28,16,38)">·</text>
  <text x="496.79999999999944" y="228" fill="rgb(29,16,38)">·</text>
  <text x="503.99999999999943" y="228" fill="rgb(30,14,38)">·</text>
  <text x="518.3999999999994" y="228" fill="rgb(34,20,38)">*</text>
  <text x="525.5999999999995" y="228" fill="rgb(37,36,38)">◉</text>
  <text x="532.7999999999995" y="228" fill="rgb(36,18,38)">·</text>
  <text x="539.9999999999995" y="228" fill="rgb(38,16,38)">·</text>
  <text x="547.1999999999996" y="228" fill="rgb(38,16,36)">·</text>
  <text x="554.3999999999996" y="228" fill="rgb(38,28,36)">○</text>
  <text x="561.5999999999997" y="228" fill="rgb(38,30,36)">○</text>
  <text x="79.20000000000002" y="240" fill="rgb(38,30,10)">.</text>
  <text x="129.60000000000002" y="240" fill="rgb(32,38,10)">.</text>
  <text x="151.2" y="240" fill="rgb(26,38,9)">.</text>
  <text x="187.19999999999993" y="240" fill="rgb(17,38,10)">.</text>
  <text x="194.39999999999992" y="240" fill="rgb(13,38,7)">.</text>
  <text x="215.9999999999999" y="240" fill="rgb(9,38,9)">.</text>
  <text x="223.19999999999987" y="240" fill="rgb(11,38,12)">.</text>
  <text x="230.39999999999986" y="240" fill="rgb(11,38,15)">.</text>
  <text x="237.59999999999985" y="240" fill="rgb(11,38,17)">.</text>
  <text x="244.79999999999984" y="240" fill="rgb(11,38,18)">.</text>
  <text x="251.99999999999983" y="240" fill="rgb(7,38,17)">.</text>
  <text x="309.59999999999974" y="240" fill="rgb(10,38,34)">.</text>
  <text x="352.79999999999967" y="240" fill="rgb(10,30,38)">.</text>
  <text x="359.99999999999966" y="240" fill="rgb(11,29,38)">.</text>
  <text x="367.19999999999965" y="240" fill="rgb(11,27,38)">.</text>
  <text x="374.39999999999964" y="240" fill="rgb(11,25,38)">.</text>
  <text x="403.1999999999996" y="240" fill="rgb(6,14,38)">.</text>
  <text x="410.3999999999996" y="240" fill="rgb(8,14,38)">.</text>
  <text x="439.19999999999953" y="240" fill="rgb(10,9,38)">.</text>
  <text x="446.3999999999995" y="240" fill="rgb(13,9,38)">.</text>
  <text x="467.9999999999995" y="240" fill="rgb(17,6,38)">.</text>
  <text x="475.1999999999995" y="240" fill="rgb(21,10,38)">.</text>
  <text x="482.39999999999947" y="240" fill="rgb(24,11,38)">.</text>
  <text x="489.59999999999945" y="240" fill="rgb(25,11,38)">.</text>
  <text x="496.79999999999944" y="240" fill="rgb(27,11,38)">.</text>
  <text x="503.99999999999943" y="240" fill="rgb(28,9,38)">.</text>
  <text x="525.5999999999995" y="240" fill="rgb(34,6,38)">.</text>
  <text x="532.7999999999995" y="240" fill="rgb(36,11,38)">.</text>
  <text x="539.9999999999995" y="240" fill="rgb(38,11,38)">.</text>
  <text x="547.1999999999996" y="240" fill="rgb(38,11,36)">.</text>
  <text x="554.3999999999996" y="240" fill="rgb(38,9,34)">.</text>
</svg>