<svg width="648" height="264" xmlns="http://www.w3.org/2000/svg">
  <style>
    text { font-family: "Courier New", monospace; font-size: 12px; }
  </style>
  <text x="151.2" y="36" fill="rgb(58,0,144)">·</text>
  <text x="158.39999999999998" y="36" fill="rgb(39,0,83)">○</text>
  <text x="165.59999999999997" y="36" fill="rgb(28,0,52)">○</text>
  <text x="172.79999999999995" y="36" fill="rgb(26,0,42)">◉</text>
  <text x="179.99999999999994" y="36" fill="rgb(27,0,40)">◉</text>
  <text x="187.19999999999993" y="36" fill="rgb(31,0,41)">◉</text>
  <text x="194.39999999999992" y="36" fill="rgb(36,0,45)">◉</text>
  <text x="201.5999999999999" y="36" fill="rgb(53,0,61)">○</text>
  <text x="208.7999999999999" y="36" fill="rgb(97,0,103)">*</text>
  <text x="215.9999999999999" y="36" fill="rgb(173,0,173)">.</text>
  <text x="259.1999999999998" y="36" fill="rgb(152,0,92)">·</text>
  <text x="266.3999999999998" y="36" fill="rgb(89,0,48)">*</text>
  <text x="273.5999999999998" y="36" fill="rgb(53,0,25)">○</text>
  <text x="280.7999999999998" y="36" fill="rgb(42,0,17)">◉</text>
  <text x="287.9999999999998" y="36" fill="rgb(41,0,14)">◉</text>
  <text x="295.19999999999976" y="36" fill="rgb(41,0,11)">◉</text>
  <text x="302.39999999999975" y="36" fill="rgb(44,0,9)">◉</text>
  <text x="309.59999999999974" y="36" fill="rgb(57,0,8)">○</text>
  <text x="316.7999999999997" y="36" fill="rgb(96,0,7)">*</text>
  <text x="323.9999999999997" y="36" fill="rgb(163,0,0)">·</text>
  <text x="367.19999999999965" y="36" fill="rgb(161,65,0)">·</text>
  <text x="374.39999999999964" y="36" fill="rgb(95,45,0)">*</text>
  <text x="381.5999999999996" y="36" fill="rgb(56,30,0)">○</text>
  <text x="388.7999999999996" y="36" fill="rgb(44,26,0)">◉</text>
  <text x="395.9999999999996" y="36" fill="rgb(42,28,0)">◉</text>
  <text x="403.1999999999996" y="36" fill="rgb(41,31,0)">◉</text>
  <text x="410.3999999999996" y="36" fill="rgb(42,34,0)">◉</text>
  <text x="417.59999999999957" y="36" fill="rgb(54,47,0)">○</text>
  <text x="424.79999999999956" y="36" fill="rgb(91,85,0)">*</text>
  <text x="431.99999999999955" y="36" fill="rgb(157,157,0)">·</text>
  <text x="475.1999999999995" y="36" fill="rgb(103,170,0)">·</text>
  <text x="482.39999999999947" y="36" fill="rgb(55,103,0)">*</text>
  <text x="489.59999999999945" y="36" fill="rgb(28,60,0)">○</text>
  <text x="496.79999999999944" y="36" fill="rgb(18,44,0)">◉</text>
  <text x="503.99999999999943" y="36" fill="rgb(15,44,0)">◉</text>
  <text x="511.1999999999994" y="36" fill="rgb(13,47,0)">○</text>
  <text x="518.3999999999994" y="36" fill="rgb(9,44,0)">◉</text>
  <text x="525.5999999999995" y="36" fill="rgb(7,52,0)">○</text>
  <text x="532.7999999999995" y="36" fill="rgb(6,84,0)">○</text>
  <text x="539.9999999999995" y="36" fill="rgb(0,146,0)">·</text>
  <text x="136.8" y="48" fill="rgb(32,0,117)">*</text>
  <text x="144.0" y="48" fill="rgb(11,0,31)">◉</text>
  <text x="151.2" y="48" fill="rgb(14,0,33)">◉</text>
  <text x="158.39999999999998" y="48" fill="rgb(46,0,97)">*</text>
  <text x="165.59999999999997" y="48" fill="rgb(85,0,158)">·</text>
  <text x="172.79999999999995" y="48" fill="rgb(116,0,193)">.</text>
  <text x="179.99999999999994" y="48" fill="rgb(140,0,209)">.</text>
  <text x="187.19999999999993" y="48" fill="rgb(152,0,207)">.</text>
  <text x="194.39999999999992" y="48" fill="rgb(147,0,183)">.</text>
  <text x="201.5999999999999" y="48" fill="rgb(121,0,139)">·</text>
  <text x="208.7999999999999" y="48" fill="rgb(67,0,71)">○</text>
  <text x="215.9999999999999" y="48" fill="rgb(21,0,21)">◉</text>
  <text x="223.19999999999987" y="48" fill="rgb(54,0,51)">○</text>
  <text x="230.39999999999986" y="48" fill="rgb(166,0,143)">·</text>
  <text x="244.79999999999984" y="48" fill="rgb(134,0,98)">·</text>
  <text x="251.99999999999983" y="48" fill="rgb(38,0,26)">◉</text>
  <text x="259.1999999999998" y="48" fill="rgb(30,0,18)">◉</text>
  <text x="266.3999999999998" y="48" fill="rgb(91,0,48)">*</text>
  <text x="273.5999999999998" y="48" fill="rgb(152,0,71)">·</text>
  <text x="280.7999999999998" y="48" fill="rgb(190,0,76)">.</text>
  <text x="287.9999999999998" y="48" fill="rgb(207,0,70)">.</text>
  <text x="295.19999999999976" y="48" fill="rgb(207,0,56)">.</text>
  <text x="302.39999999999975" y="48" fill="rgb(186,0,38)">.</text>
  <text x="309.59999999999974" y="48" fill="rgb(145,0,20)">·</text>
  <text x="316.7999999999997" y="48" fill="rgb(79,0,6)">○</text>
  <text x="323.9999999999997" y="48" fill="rgb(26,0,0)">◉</text>
  <text x="331.1999999999997" y="48" fill="rgb(45,3,0)">◉</text>
  <text x="338.3999999999997" y="48" fill="rgb(150,21,0)">·</text>
  <text x="352.79999999999967" y="48" fill="rgb(149,40,0)">·</text>
  <text x="359.99999999999966" y="48" fill="rgb(45,15,0)">◉</text>
  <text x="367.19999999999965" y="48" fill="rgb(24,10,0)">◉</text>
  <text x="374.39999999999964" y="48" fill="rgb(79,37,0)">○</text>
  <text x="381.5999999999996" y="48" fill="rgb(146,78,0)">·</text>
  <text x="388.7999999999996" y="48" fill="rgb(187,113,0)">.</text>
  <text x="395.9999999999996" y="48" fill="rgb(207,139,0)">.</text>
  <text x="403.1999999999996" y="48" fill="rgb(208,153,0)">.</text>
  <text x="410.3999999999996" y="48" fill="rgb(190,152,0)">.</text>
  <text x="417.59999999999957" y="48" fill="rgb(151,131,0)">·</text>
  <text x="424.79999999999956" y="48" fill="rgb(87,82,0)">○</text>
  <text x="431.99999999999955" y="48" fill="rgb(27,27,0)">◉</text>
  <text x="439.19999999999953" y="48" fill="rgb(37,39,0)">◉</text>
  <text x="446.3999999999995" y="48" fill="rgb(118,136,0)">·</text>
  <text x="460.7999999999995" y="48" fill="rgb(121,165,0)">·</text>
  <text x="467.9999999999995" y="48" fill="rgb(35,52,0)">○</text>
  <text x="475.1999999999995" y="48" fill="rgb(13,21,0)">◉</text>
  <text x="482.39999999999947" y="48" fill="rgb(39,73,0)">○</text>
  <text x="489.59999999999945" y="48" fill="rgb(65,139,0)">·</text>
  <text x="496.79999999999944" y="48" fill="rgb(74,185,0)">.</text>
  <text x="503.99999999999943" y="48" fill="rgb(61,183,0)">.</text>
  <text x="511.1999999999994" y="48" fill="rgb(43,161,0)">·</text>
  <text x="518.3999999999994" y="48" fill="rgb(35,175,0)">.</text>
  <text x="525.5999999999995" y="48" fill="rgb(22,158,0)">·</text>
  <text x="532.7999999999995" y="48" fill="rgb(7,97,0)">*</text>
  <text x="539.9999999999995" y="48" fill="rgb(0,33,0)">◉</text>
  <text x="547.1999999999996" y="48" fill="rgb(0,32,3)">◉</text>
  <text x="554.3999999999996" y="48" fill="rgb(0,119,16)">*</text>
  <text x="129.60000000000002" y="60" fill="rgb(15,0,71)">○</text>
  <text x="136.8" y="60" fill="rgb(5,0,17)">◉</text>
  <text x="144.0" y="60" fill="rgb(32,0,95)">*</text>
  <text x="215.9999999999999" y="60" fill="rgb(181,0,181)">.</text>
  <text x="223.19999999999987" y="60" fill="rgb(50,0,47)">○</text>
  <text x="230.39999999999986" y="60" fill="rgb(27,0,24)">◉</text>
  <text x="237.59999999999985" y="60" fill="rgb(57,0,46)">○</text>
  <text x="244.79999999999984" y="60" fill="rgb(20,0,15)">◉</text>
  <text x="251.99999999999983" y="60" fill="rgb(79,0,53)">○</text>
  <text x="259.1999999999998" y="60" fill="rgb(207,0,124)">.</text>
  <text x="323.9999999999997" y="60" fill="rgb(193,0,0)">.</text>
  <text x="331.1999999999997" y="60" fill="rgb(62,5,0)">○</text>
  <text x="338.3999999999997" y="60" fill="rgb(24,4,0)">◉</text>
  <text x="345.5999999999997" y="60" fill="rgb(56,12,0)">○</text>
  <text x="352.79999999999967" y="60" fill="rgb(23,7,0)">◉</text>
  <text x="359.99999999999966" y="60" fill="rgb(66,22,0)">○</text>
  <text x="367.19999999999965" y="60" fill="rgb(195,78,0)">.</text>
  <text x="431.99999999999955" y="60" fill="rgb(205,205,0)">.</text>
  <text x="439.19999999999953" y="60" fill="rgb(71,76,0)">○</text>
  <text x="446.3999999999995" y="60" fill="rgb(18,20,0)">◉</text>
  <text x="453.5999999999995" y="60" fill="rgb(47,58,0)">○</text>
  <text x="460.7999999999995" y="60" fill="rgb(20,26,0)">◉</text>
  <text x="467.9999999999995" y="60" fill="rgb(35,52,0)">○</text>
  <text x="475.1999999999995" y="60" fill="rgb(110,182,0)">.</text>
  <text x="503.99999999999943" y="60" fill="rgb(19,56,0)">○</text>
  <text x="511.1999999999994" y="60" fill="rgb(7,26,0)">◉</text>
  <text x="518.3999999999994" y="60" fill="rgb(16,79,0)">○</text>
  <text x="547.1999999999996" y="60" fill="rgb(0,95,7)">*</text>
  <text x="554.3999999999996" y="60" fill="rgb(0,17,3)">◉</text>
  <text x="561.5999999999997" y="60" fill="rgb(0,73,15)">○</text>
  <text x="122.40000000000003" y="72" fill="rgb(15,0,111)">*</text>
  <text x="129.60000000000002" y="72" fill="rgb(4,0,16)">◉</text>
  <text x="136.8" y="72" fill="rgb(23,0,83)">○</text>
  <text x="223.19999999999987" y="72" fill="rgb(199,0,186)">.</text>
  <text x="230.39999999999986" y="72" fill="rgb(38,0,33)">◉</text>
  <text x="237.59999999999985" y="72" fill="rgb(23,0,19)">◉</text>
  <text x="244.79999999999984" y="72" fill="rgb(64,0,47)">○</text>
  <text x="338.3999999999997" y="72" fill="rgb(49,7,0)">○</text>
  <text x="345.5999999999997" y="72" fill="rgb(23,5,0)">◉</text>
  <text x="352.79999999999967" y="72" fill="rgb(51,14,0)">○</text>
  <text x="446.3999999999995" y="72" fill="rgb(54,62,0)">○</text>
  <text x="453.5999999999995" y="72" fill="rgb(19,23,0)">◉</text>
  <text x="460.7999999999995" y="72" fill="rgb(29,39,0)">◉</text>
  <text x="467.9999999999995" y="72" fill="rgb(135,201,0)">.</text>
  <text x="503.99999999999943" y="72" fill="rgb(55,166,0)">·</text>
  <text x="511.1999999999994" y="72" fill="rgb(30,110,0)">*</text>
  <text x="518.3999999999994" y="72" fill="rgb(33,162,0)">·</text>
  <text x="554.3999999999996" y="72" fill="rgb(0,76,10)">○</text>
  <text x="561.5999999999997" y="72" fill="rgb(0,16,4)">◉</text>
  <text x="568.7999999999997" y="72" fill="rgb(0,116,31)">*</text>
  <text x="64.80000000000001" y="84" fill="rgb(0,84,210)">.</text>
  <text x="72.00000000000001" y="84" fill="rgb(0,22,64)">○</text>
  <text x="79.20000000000002" y="84" fill="rgb(0,15,53)">○</text>
  <text x="86.40000000000002" y="84" fill="rgb(0,11,53)">○</text>
  <text x="93.60000000000002" y="84" fill="rgb(0,7,49)">○</text>
  <text x="100.80000000000003" y="84" fill="rgb(0,4,48)">○</text>
  <text x="108.00000000000003" y="84" fill="rgb(0,0,48)">○</text>
  <text x="115.20000000000003" y="84" fill="rgb(4,0,48)">○</text>
  <text x="122.40000000000003" y="84" fill="rgb(4,0,29)">◉</text>
  <text x="129.60000000000002" y="84" fill="rgb(5,0,22)">◉</text>
  <text x="136.8" y="84" fill="rgb(44,0,162)">·</text>
  <text x="179.99999999999994" y="84" fill="rgb(49,0,73)">○</text>
  <text x="187.19999999999993" y="84" fill="rgb(52,0,70)">○</text>
  <text x="230.39999999999986" y="84" fill="rgb(84,0,73)">○</text>
  <text x="237.59999999999985" y="84" fill="rgb(16,0,13)">◉</text>
  <text x="244.79999999999984" y="84" fill="rgb(137,0,101)">·</text>
  <text x="287.9999999999998" y="84" fill="rgb(86,0,29)">○</text>
  <text x="295.19999999999976" y="84" fill="rgb(60,0,16)">○</text>
  <text x="302.39999999999975" y="84" fill="rgb(210,0,43)">.</text>
  <text x="338.3999999999997" y="84" fill="rgb(109,15,0)">*</text>
  <text x="345.5999999999997" y="84" fill="rgb(15,3,0)">◉</text>
  <text x="352.79999999999967" y="84" fill="rgb(112,30,0)">*</text>
  <text x="395.9999999999996" y="84" fill="rgb(104,70,0)">*</text>
  <text x="403.1999999999996" y="84" fill="rgb(52,39,0)">○</text>
  <text x="410.3999999999996" y="84" fill="rgb(189,151,0)">.</text>
  <text x="446.3999999999995" y="84" fill="rgb(117,134,0)">·</text>
  <text x="453.5999999999995" y="84" fill="rgb(13,16,0)">◉</text>
  <text x="460.7999999999995" y="84" fill="rgb(66,89,0)">*</text>
  <text x="503.99999999999943" y="84" fill="rgb(44,131,0)">·</text>
  <text x="511.1999999999994" y="84" fill="rgb(16,58,0)">○</text>
  <text x="518.3999999999994" y="84" fill="rgb(12,56,0)">○</text>
  <text x="525.5999999999995" y="84" fill="rgb(7,50,0)">○</text>
  <text x="532.7999999999995" y="84" fill="rgb(4,49,0)">○</text>
  <text x="539.9999999999995" y="84" fill="rgb(0,49,0)">○</text>
  <text x="547.1999999999996" y="84" fill="rgb(0,52,4)">○</text>
  <text x="554.3999999999996" y="84" fill="rgb(0,40,6)">◉</text>
  <text x="561.5999999999997" y="84" fill="rgb(0,22,5)">◉</text>
  <text x="568.7999999999997" y="84" fill="rgb(0,75,20)">○</text>
  <text x="64.80000000000001" y="96" fill="rgb(0,85,211)">.</text>
  <text x="72.00000000000001" y="96" fill="rgb(0,11,33)">◉</text>
  <text x="79.20000000000002" y="96" fill="rgb(0,7,24)">◉</text>
  <text x="86.40000000000002" y="96" fill="rgb(0,26,128)">*</text>
  <text x="93.60000000000002" y="96" fill="rgb(0,25,187)">.</text>
  <text x="100.80000000000003" y="96" fill="rgb(0,13,182)">.</text>
  <text x="108.00000000000003" y="96" fill="rgb(0,0,181)">.</text>
  <text x="115.20000000000003" y="96" fill="rgb(13,0,182)">.</text>
  <text x="122.40000000000003" y="96" fill="rgb(25,0,182)">.</text>
  <text x="129.60000000000002" y="96" fill="rgb(39,0,191)">.</text>
  <text x="172.79999999999995" y="96" fill="rgb(101,0,167)">·</text>
  <text x="179.99999999999994" y="96" fill="rgb(16,0,23)">◉</text>
  <text x="187.19999999999993" y="96" fill="rgb(16,0,21)">◉</text>
  <text x="194.39999999999992" y="96" fill="rgb(130,0,162)">·</text>
  <text x="237.59999999999985" y="96" fill="rgb(190,0,153)">.</text>
  <text x="280.7999999999998" y="96" fill="rgb(190,0,76)">.</text>
  <text x="287.9999999999998" y="96" fill="rgb(28,0,10)">◉</text>
  <text x="295.19999999999976" y="96" fill="rgb(20,0,6)">◉</text>
  <text x="302.39999999999975" y="96" fill="rgb(139,0,28)">·</text>
  <text x="345.5999999999997" y="96" fill="rgb(189,38,0)">.</text>
  <text x="388.7999999999996" y="96" fill="rgb(213,128,0)">.</text>
  <text x="395.9999999999996" y="96" fill="rgb(37,25,0)">◉</text>
  <text x="403.1999999999996" y="96" fill="rgb(19,14,0)">◉</text>
  <text x="410.3999999999996" y="96" fill="rgb(112,90,0)">*</text>
  <text x="453.5999999999995" y="96" fill="rgb(152,190,0)">.</text>
  <text x="503.99999999999943" y="96" fill="rgb(16,47,0)">○</text>
  <text x="511.1999999999994" y="96" fill="rgb(6,20,0)">◉</text>
  <text x="518.3999999999994" y="96" fill="rgb(26,127,0)">*</text>
  <text x="525.5999999999995" y="96" fill="rgb(25,183,0)">.</text>
  <text x="532.7999999999995" y="96" fill="rgb(13,182,0)">.</text>
  <text x="539.9999999999995" y="96" fill="rgb(0,182,0)">.</text>
  <text x="547.1999999999996" y="96" fill="rgb(0,182,13)">.</text>
  <text x="554.3999999999996" y="96" fill="rgb(0,183,25)">.</text>
  <text x="561.5999999999997" y="96" fill="rgb(0,184,37)">.</text>
  <text x="72.00000000000001" y="108" fill="rgb(0,43,128)">*</text>
  <text x="79.20000000000002" y="108" fill="rgb(0,5,18)">◉</text>
  <text x="86.40000000000002" y="108" fill="rgb(0,14,66)">○</text>
  <text x="93.60000000000002" y="108" fill="rgb(0,29,213)">.</text>
  <text x="165.59999999999997" y="108" fill="rgb(103,0,192)">.</text>
  <text x="172.79999999999995" y="108" fill="rgb(30,0,49)">○</text>
  <text x="179.99999999999994" y="108" fill="rgb(17,0,25)">◉</text>
  <text x="187.19999999999993" y="108" fill="rgb(20,0,26)">◉</text>
  <text x="194.39999999999992" y="108" fill="rgb(38,0,47)">○</text>
  <text x="201.5999999999999" y="108" fill="rgb(166,0,191)">.</text>
  <text x="273.5999999999998" y="108" fill="rgb(208,0,98)">.</text>
  <text x="280.7999999999998" y="108" fill="rgb(62,0,25)">○</text>
  <text x="287.9999999999998" y="108" fill="rgb(23,0,8)">◉</text>
  <text x="295.19999999999976" y="108" fill="rgb(27,0,8)">◉</text>
  <text x="302.39999999999975" y="108" fill="rgb(37,0,8)">◉</text>
  <text x="309.59999999999974" y="108" fill="rgb(174,0,24)">.</text>
  <text x="388.7999999999996" y="108" fill="rgb(77,47,0)">○</text>
  <text x="395.9999999999996" y="108" fill="rgb(22,15,0)">◉</text>
  <text x="403.1999999999996" y="108" fill="rgb(28,21,0)">◉</text>
  <text x="410.3999999999996" y="108" fill="rgb(30,24,0)">◉</text>
  <text x="417.59999999999957" y="108" fill="rgb(157,136,0)">·</text>
  <text x="496.79999999999944" y="108" fill="rgb(38,94,0)">*</text>
  <text x="503.99999999999943" y="108" fill="rgb(6,16,0)">◉</text>
  <text x="511.1999999999994" y="108" fill="rgb(23,83,0)">○</text>
  <text x="79.20000000000002" y="120" fill="rgb(0,37,138)">·</text>
  <text x="86.40000000000002" y="120" fill="rgb(0,7,32)">◉</text>
  <text x="93.60000000000002" y="120" fill="rgb(0,5,31)">◉</text>
  <text x="100.80000000000003" y="120" fill="rgb(0,8,116)">*</text>
  <text x="108.00000000000003" y="120" fill="rgb(0,0,194)">.</text>
  <text x="151.2" y="120" fill="rgb(75,0,187)">.</text>
  <text x="158.39999999999998" y="120" fill="rgb(50,0,107)">*</text>
  <text x="165.59999999999997" y="120" fill="rgb(14,0,26)">◉</text>
  <text x="172.79999999999995" y="120" fill="rgb(24,0,40)">◉</text>
  <text x="179.99999999999994" y="120" fill="rgb(102,0,153)">·</text>
  <text x="187.19999999999993" y="120" fill="rgb(114,0,155)">·</text>
  <text x="194.39999999999992" y="120" fill="rgb(32,0,40)">◉</text>
  <text x="201.5999999999999" y="120" fill="rgb(23,0,26)">◉</text>
  <text x="208.7999999999999" y="120" fill="rgb(97,0,103)">*</text>
  <text x="215.9999999999999" y="120" fill="rgb(187,0,187)">.</text>
  <text x="259.1999999999998" y="120" fill="rgb(194,0,117)">.</text>
  <text x="266.3999999999998" y="120" fill="rgb(117,0,63)">*</text>
  <text x="273.5999999999998" y="120" fill="rgb(32,0,15)">◉</text>
  <text x="280.7999999999998" y="120" fill="rgb(32,0,13)">◉</text>
  <text x="287.9999999999998" y="120" fill="rgb(138,0,46)">·</text>
  <text x="295.19999999999976" y="120" fill="rgb(167,0,45)">·</text>
  <text x="302.39999999999975" y="120" fill="rgb(50,0,11)">○</text>
  <text x="309.59999999999974" y="120" fill="rgb(20,0,3)">◉</text>
  <text x="316.7999999999997" y="120" fill="rgb(92,0,7)">*</text>
  <text x="323.9999999999997" y="120" fill="rgb(177,0,0)">.</text>
  <text x="367.19999999999965" y="120" fill="rgb(201,81,0)">.</text>
  <text x="374.39999999999964" y="120" fill="rgb(129,61,0)">*</text>
  <text x="381.5999999999996" y="120" fill="rgb(40,22,0)">◉</text>
  <text x="388.7999999999996" y="120" fill="rgb(25,15,0)">◉</text>
  <text x="395.9999999999996" y="120" fill="rgb(123,82,0)">*</text>
  <text x="403.1999999999996" y="120" fill="rgb(176,130,0)">.</text>
  <text x="410.3999999999996" y="120" fill="rgb(60,48,0)">○</text>
  <text x="417.59999999999957" y="120" fill="rgb(20,18,0)">◉</text>
  <text x="424.79999999999956" y="120" fill="rgb(81,76,0)">○</text>
  <text x="431.99999999999955" y="120" fill="rgb(169,169,0)">·</text>
  <text x="475.1999999999995" y="120" fill="rgb(124,207,0)">.</text>
  <text x="482.39999999999947" y="120" fill="rgb(75,141,0)">·</text>
  <text x="489.59999999999945" y="120" fill="rgb(23,49,0)">○</text>
  <text x="496.79999999999944" y="120" fill="rgb(10,23,0)">◉</text>
  <text x="503.99999999999943" y="120" fill="rgb(34,102,0)">*</text>
  <text x="86.40000000000002" y="132" fill="rgb(0,42,209)">.</text>
  <text x="93.60000000000002" y="132" fill="rgb(0,17,123)">*</text>
  <text x="100.80000000000003" y="132" fill="rgb(0,4,56)">○</text>
  <text x="108.00000000000003" y="132" fill="rgb(0,0,34)">◉</text>
  <text x="115.20000000000003" y="132" fill="rgb(3,0,44)">◉</text>
  <text x="122.40000000000003" y="132" fill="rgb(8,0,60)">○</text>
  <text x="129.60000000000002" y="132" fill="rgb(14,0,66)">○</text>
  <text x="136.8" y="132" fill="rgb(16,0,58)">○</text>
  <text x="144.0" y="132" fill="rgb(14,0,42)">◉</text>
  <text x="151.2" y="132" fill="rgb(14,0,34)">◉</text>
  <text x="158.39999999999998" y="132" fill="rgb(28,0,60)">○</text>
  <text x="165.59999999999997" y="132" fill="rgb(70,0,131)">·</text>
  <text x="201.5999999999999" y="132" fill="rgb(115,0,133)">·</text>
  <text x="208.7999999999999" y="132" fill="rgb(57,0,60)">○</text>
  <text x="215.9999999999999" y="132" fill="rgb(33,0,33)">◉</text>
  <text x="223.19999999999987" y="132" fill="rgb(40,0,38)">◉</text>
  <text x="230.39999999999986" y="132" fill="rgb(57,0,50)">○</text>
  <text x="237.59999999999985" y="132" fill="rgb(65,0,52)">○</text>
  <text x="244.79999999999984" y="132" fill="rgb(60,0,44)">○</text>
  <text x="251.99999999999983" y="132" fill="rgb(44,0,30)">◉</text>
  <text x="259.1999999999998" y="132" fill="rgb(33,0,20)">◉</text>
  <text x="266.3999999999998" y="132" fill="rgb(53,0,29)">○</text>
  <text x="273.5999999999998" y="132" fill="rgb(119,0,56)">*</text>
  <text x="280.7999999999998" y="132" fill="rgb(208,0,84)">.</text>
  <text x="309.59999999999974" y="132" fill="rgb(143,0,20)">·</text>
  <text x="316.7999999999997" y="132" fill="rgb(66,0,5)">○</text>
  <text x="323.9999999999997" y="132" fill="rgb(34,0,0)">◉</text>
  <text x="331.1999999999997" y="132" fill="rgb(39,3,0)">◉</text>
  <text x="338.3999999999997" y="132" fill="rgb(57,8,0)">○</text>
  <text x="345.5999999999997" y="132" fill="rgb(66,14,0)">○</text>
  <text x="352.79999999999967" y="132" fill="rgb(61,17,0)">○</text>
  <text x="359.99999999999966" y="132" fill="rgb(45,15,0)">◉</text>
  <text x="367.19999999999965" y="132" fill="rgb(33,14,0)">◉</text>
  <text x="374.39999999999964" y="132" fill="rgb(50,24,0)">○</text>
  <text x="381.5999999999996" y="132" fill="rgb(110,59,0)">*</text>
  <text x="388.7999999999996" y="132" fill="rgb(198,119,0)">.</text>
  <text x="417.59999999999957" y="132" fill="rgb(153,133,0)">·</text>
  <text x="424.79999999999956" y="132" fill="rgb(73,69,0)">○</text>
  <text x="431.99999999999955" y="132" fill="rgb(37,37,0)">◉</text>
  <text x="439.19999999999953" y="132" fill="rgb(36,38,0)">◉</text>
  <text x="446.3999999999995" y="132" fill="rgb(47,54,0)">○</text>
  <text x="453.5999999999995" y="132" fill="rgb(53,65,0)">○</text>
  <text x="460.7999999999995" y="132" fill="rgb(46,62,0)">○</text>
  <text x="467.9999999999995" y="132" fill="rgb(32,48,0)">○</text>
  <text x="475.1999999999995" y="132" fill="rgb(21,34,0)">◉</text>
  <text x="482.39999999999947" y="132" fill="rgb(24,44,0)">◉</text>
  <text x="489.59999999999945" y="132" fill="rgb(48,101,0)">*</text>
  <text x="496.79999999999944" y="132" fill="rgb(76,190,0)">.</text>
  <text x="108.00000000000003" y="144" fill="rgb(0,0,211)">.</text>
  <text x="115.20000000000003" y="144" fill="rgb(12,0,181)">.</text>
  <text x="122.40000000000003" y="144" fill="rgb(22,0,159)">·</text>
  <text x="129.60000000000002" y="144" fill="rgb(31,0,151)">·</text>
  <text x="136.8" y="144" fill="rgb(43,0,161)">·</text>
  <text x="144.0" y="144" fill="rgb(61,0,183)">.</text>
  <text x="223.19999999999987" y="144" fill="rgb(184,0,172)">.</text>
  <text x="230.39999999999986" y="144" fill="rgb(161,0,140)">·</text>
  <text x="237.59999999999985" y="144" fill="rgb(153,0,123)">·</text>
  <text x="244.79999999999984" y="144" fill="rgb(158,0,116)">·</text>
  <text x="251.99999999999983" y="144" fill="rgb(181,0,120)">.</text>
  <text x="259.1999999999998" y="144" fill="rgb(213,0,128)">.</text>
  <text x="331.1999999999997" y="144" fill="rgb(187,13,0)">.</text>
  <text x="338.3999999999997" y="144" fill="rgb(163,22,0)">·</text>
  <text x="345.5999999999997" y="144" fill="rgb(152,31,0)">·</text>
  <text x="352.79999999999967" y="144" fill="rgb(157,42,0)">·</text>
  <text x="359.99999999999966" y="144" fill="rgb(177,60,0)">.</text>
  <text x="367.19999999999965" y="144" fill="rgb(208,84,0)">.</text>
  <text x="439.19999999999953" y="144" fill="rgb(180,192,0)">.</text>
  <text x="446.3999999999995" y="144" fill="rgb(144,166,0)">·</text>
  <text x="453.5999999999995" y="144" fill="rgb(123,153,0)">·</text>
  <text x="460.7999999999995" y="144" fill="rgb(114,155,0)">·</text>
  <text x="467.9999999999995" y="144" fill="rgb(117,174,0)">.</text>
  <text x="475.1999999999995" y="144" fill="rgb(122,203,0)">.</text>
  <text x="86.40000000000002" y="168" fill="rgb(0,41,205)">.</text>
  <text x="93.60000000000002" y="168" fill="rgb(0,27,202)">.</text>
  <text x="100.80000000000003" y="168" fill="rgb(0,14,202)">.</text>
  <text x="108.00000000000003" y="168" fill="rgb(0,0,205)">.</text>
  <text x="129.60000000000002" y="168" fill="rgb(43,0,214)">.</text>
  <text x="158.39999999999998" y="168" fill="rgb(98,0,210)">.</text>
  <text x="223.19999999999987" y="168" fill="rgb(207,0,193)">.</text>
  <text x="230.39999999999986" y="168" fill="rgb(202,0,176)">.</text>
  <text x="237.59999999999985" y="168" fill="rgb(202,0,162)">.</text>
  <text x="244.79999999999984" y="168" fill="rgb(202,0,149)">.</text>
  <text x="287.9999999999998" y="168" fill="rgb(207,0,70)">.</text>
  <text x="295.19999999999976" y="168" fill="rgb(202,0,54)">.</text>
  <text x="302.39999999999975" y="168" fill="rgb(207,0,42)">.</text>
  <text x="309.59999999999974" y="168" fill="rgb(213,0,29)">.</text>
  <text x="316.7999999999997" y="168" fill="rgb(203,0,14)">.</text>
  <text x="323.9999999999997" y="168" fill="rgb(202,0,0)">.</text>
  <text x="345.5999999999997" y="168" fill="rgb(213,43,0)">.</text>
  <text x="410.3999999999996" y="168" fill="rgb(209,168,0)">.</text>
  <text x="446.3999999999995" y="168" fill="rgb(184,213,0)">.</text>
  <text x="475.1999999999995" y="168" fill="rgb(126,209,0)">.</text>
  <text x="482.39999999999947" y="168" fill="rgb(108,202,0)">.</text>
  <text x="489.59999999999945" y="168" fill="rgb(95,202,0)">.</text>
  <text x="496.79999999999944" y="168" fill="rgb(81,202,0)">.</text>
  <text x="532.7999999999995" y="168" fill="rgb(14,203,0)">.</text>
  <text x="539.9999999999995" y="168" fill="rgb(0,202,0)">.</text>
  <text x="547.1999999999996" y="168" fill="rgb(0,202,14)">.</text>
  <text x="72.00000000000001" y="180" fill="rgb(0,62,186)">.</text>
  <text x="79.20000000000002" y="180" fill="rgb(0,2,6)">◉</text>
  <text x="86.40000000000002" y="180" fill="rgb(0,20,96)">*</text>
  <text x="93.60000000000002" y="180" fill="rgb(0,17,121)">*</text>
  <text x="100.80000000000003" y="180" fill="rgb(0,9,124)">*</text>
  <text x="108.00000000000003" y="180" fill="rgb(0,0,124)">*</text>
  <text x="122.40000000000003" y="180" fill="rgb(21,0,154)">·</text>
  <text x="129.60000000000002" y="180" fill="rgb(2,0,7)">◉</text>
  <text x="151.2" y="180" fill="rgb(16,0,40)">◉</text>
  <text x="158.39999999999998" y="180" fill="rgb(0,0,0)">◉</text>
  <text x="165.59999999999997" y="180" fill="rgb(40,0,75)">○</text>
  <text x="187.19999999999993" y="180" fill="rgb(103,0,141)">·</text>
  <text x="194.39999999999992" y="180" fill="rgb(12,0,14)">◉</text>
  <text x="215.9999999999999" y="180" fill="rgb(12,0,12)">◉</text>
  <text x="223.19999999999987" y="180" fill="rgb(79,0,74)">○</text>
  <text x="230.39999999999986" y="180" fill="rgb(121,0,105)">*</text>
  <text x="237.59999999999985" y="180" fill="rgb(124,0,100)">*</text>
  <text x="244.79999999999984" y="180" fill="rgb(121,0,89)">*</text>
  <text x="251.99999999999983" y="180" fill="rgb(202,0,135)">.</text>
  <text x="287.9999999999998" y="180" fill="rgb(131,0,44)">·</text>
  <text x="295.19999999999976" y="180" fill="rgb(119,0,32)">*</text>
  <text x="302.39999999999975" y="180" fill="rgb(69,0,14)">○</text>
  <text x="309.59999999999974" y="180" fill="rgb(7,0,1)">◉</text>
  <text x="316.7999999999997" y="180" fill="rgb(108,0,8)">*</text>
  <text x="323.9999999999997" y="180" fill="rgb(119,0,0)">*</text>
  <text x="331.1999999999997" y="180" fill="rgb(178,12,0)">.</text>
  <text x="338.3999999999997" y="180" fill="rgb(199,27,0)">.</text>
  <text x="345.5999999999997" y="180" fill="rgb(5,1,0)">◉</text>
  <text x="352.79999999999967" y="180" fill="rgb(193,52,0)">.</text>
  <text x="381.5999999999996" y="180" fill="rgb(14,8,0)">◉</text>
  <text x="388.7999999999996" y="180" fill="rgb(139,84,0)">·</text>
  <text x="403.1999999999996" y="180" fill="rgb(107,78,0)">*</text>
  <text x="410.3999999999996" y="180" fill="rgb(2,2,0)">◉</text>
  <text x="417.59999999999957" y="180" fill="rgb(25,22,0)">◉</text>
  <text x="446.3999999999995" y="180" fill="rgb(5,5,0)">◉</text>
  <text x="453.5999999999995" y="180" fill="rgb(139,174,0)">.</text>
  <text x="467.9999999999995" y="180" fill="rgb(40,60,0)">○</text>
  <text x="475.1999999999995" y="180" fill="rgb(26,42,0)">◉</text>
  <text x="482.39999999999947" y="180" fill="rgb(64,120,0)">*</text>
  <text x="489.59999999999945" y="180" fill="rgb(58,124,0)">*</text>
  <text x="496.79999999999944" y="180" fill="rgb(49,123,0)">*</text>
  <text x="503.99999999999943" y="180" fill="rgb(54,161,0)">·</text>
  <text x="518.3999999999994" y="180" fill="rgb(29,143,0)">·</text>
  <text x="525.5999999999995" y="180" fill="rgb(5,33,0)">◉</text>
  <text x="532.7999999999995" y="180" fill="rgb(8,113,0)">*</text>
  <text x="539.9999999999995" y="180" fill="rgb(0,121,0)">*</text>
  <text x="547.1999999999996" y="180" fill="rgb(0,119,8)">*</text>
  <text x="554.3999999999996" y="180" fill="rgb(0,53,8)">○</text>
  <text x="561.5999999999997" y="180" fill="rgb(0,64,13)">○</text>
  <text x="72.00000000000001" y="192" fill="rgb(0,60,178)">.</text>
  <text x="79.20000000000002" y="192" fill="rgb(0,0,0)">◉</text>
  <text x="86.40000000000002" y="192" fill="rgb(0,43,211)">.</text>
  <text x="122.40000000000003" y="192" fill="rgb(20,0,146)">·</text>
  <text x="129.60000000000002" y="192" fill="rgb(0,0,0)">◉</text>
  <text x="151.2" y="192" fill="rgb(8,0,20)">◉</text>
  <text x="158.39999999999998" y="192" fill="rgb(35,0,75)">○</text>
  <text x="165.59999999999997" y="192" fill="rgb(16,0,29)">◉</text>
  <text x="172.79999999999995" y="192" fill="rgb(76,0,126)">*</text>
  <text x="187.19999999999993" y="192" fill="rgb(99,0,134)">·</text>
  <text x="194.39999999999992" y="192" fill="rgb(6,0,7)">◉</text>
  <text x="215.9999999999999" y="192" fill="rgb(0,0,0)">◉</text>
  <text x="223.19999999999987" y="192" fill="rgb(173,0,161)">.</text>
  <text x="302.39999999999975" y="192" fill="rgb(146,0,30)">·</text>
  <text x="309.59999999999974" y="192" fill="rgb(4,0,1)">◉</text>
  <text x="338.3999999999997" y="192" fill="rgb(190,26,0)">.</text>
  <text x="345.5999999999997" y="192" fill="rgb(0,0,0)">◉</text>
  <text x="352.79999999999967" y="192" fill="rgb(190,51,0)">.</text>
  <text x="381.5999999999996" y="192" fill="rgb(7,4,0)">◉</text>
  <text x="388.7999999999996" y="192" fill="rgb(134,80,0)">·</text>
  <text x="403.1999999999996" y="192" fill="rgb(88,65,0)">*</text>
  <text x="410.3999999999996" y="192" fill="rgb(31,25,0)">◉</text>
  <text x="417.59999999999957" y="192" fill="rgb(72,63,0)">○</text>
  <text x="424.79999999999956" y="192" fill="rgb(53,50,0)">○</text>
  <text x="446.3999999999995" y="192" fill="rgb(0,0,0)">◉</text>
  <text x="453.5999999999995" y="192" fill="rgb(135,168,0)">·</text>
  <text x="467.9999999999995" y="192" fill="rgb(28,42,0)">◉</text>
  <text x="475.1999999999995" y="192" fill="rgb(52,85,0)">○</text>
  <text x="518.3999999999994" y="192" fill="rgb(14,70,0)">○</text>
  <text x="525.5999999999995" y="192" fill="rgb(4,30,0)">◉</text>
  <text x="554.3999999999996" y="192" fill="rgb(0,185,25)">.</text>
  <text x="561.5999999999997" y="192" fill="rgb(0,101,21)">*</text>
  <text x="72.00000000000001" y="204" fill="rgb(0,60,179)">.</text>
  <text x="79.20000000000002" y="204" fill="rgb(0,0,0)">◉</text>
  <text x="86.40000000000002" y="204" fill="rgb(0,43,211)">.</text>
  <text x="93.60000000000002" y="204" fill="rgb(0,19,135)">·</text>
  <text x="100.80000000000003" y="204" fill="rgb(0,3,36)">◉</text>
  <text x="108.00000000000003" y="204" fill="rgb(0,0,203)">.</text>
  <text x="122.40000000000003" y="204" fill="rgb(20,0,147)">·</text>
  <text x="129.60000000000002" y="204" fill="rgb(1,0,2)">◉</text>
  <text x="151.2" y="204" fill="rgb(7,0,17)">◉</text>
  <text x="158.39999999999998" y="204" fill="rgb(60,0,127)">*</text>
  <text x="165.59999999999997" y="204" fill="rgb(103,0,192)">.</text>
  <text x="172.79999999999995" y="204" fill="rgb(3,0,4)">◉</text>
  <text x="179.99999999999994" y="204" fill="rgb(133,0,199)">.</text>
  <text x="187.19999999999993" y="204" fill="rgb(108,0,146)">·</text>
  <text x="194.39999999999992" y="204" fill="rgb(8,0,9)">◉</text>
  <text x="215.9999999999999" y="204" fill="rgb(0,0,0)">◉</text>
  <text x="223.19999999999987" y="204" fill="rgb(174,0,163)">.</text>
  <text x="230.39999999999986" y="204" fill="rgb(173,0,150)">.</text>
  <text x="237.59999999999985" y="204" fill="rgb(34,0,28)">◉</text>
  <text x="244.79999999999984" y="204" fill="rgb(173,0,127)">.</text>
  <text x="302.39999999999975" y="204" fill="rgb(142,0,29)">·</text>
  <text x="309.59999999999974" y="204" fill="rgb(5,0,1)">◉</text>
  <text x="338.3999999999997" y="204" fill="rgb(191,26,0)">.</text>
  <text x="345.5999999999997" y="204" fill="rgb(0,0,0)">◉</text>
  <text x="352.79999999999967" y="204" fill="rgb(190,51,0)">.</text>
  <text x="381.5999999999996" y="204" fill="rgb(9,5,0)">◉</text>
  <text x="388.7999999999996" y="204" fill="rgb(134,81,0)">·</text>
  <text x="403.1999999999996" y="204" fill="rgb(88,65,0)">*</text>
  <text x="410.3999999999996" y="204" fill="rgb(44,35,0)">◉</text>
  <text x="424.79999999999956" y="204" fill="rgb(28,27,0)">◉</text>
  <text x="431.99999999999955" y="204" fill="rgb(120,120,0)">*</text>
  <text x="446.3999999999995" y="204" fill="rgb(0,0,0)">◉</text>
  <text x="453.5999999999995" y="204" fill="rgb(136,169,0)">·</text>
  <text x="467.9999999999995" y="204" fill="rgb(30,44,0)">◉</text>
  <text x="475.1999999999995" y="204" fill="rgb(53,88,0)">*</text>
  <text x="489.59999999999945" y="204" fill="rgb(19,40,0)">◉</text>
  <text x="496.79999999999944" y="204" fill="rgb(42,104,0)">*</text>
  <text x="518.3999999999994" y="204" fill="rgb(40,199,0)">.</text>
  <text x="525.5999999999995" y="204" fill="rgb(12,87,0)">○</text>
  <text x="532.7999999999995" y="204" fill="rgb(7,92,0)">*</text>
  <text x="539.9999999999995" y="204" fill="rgb(0,96,0)">*</text>
  <text x="547.1999999999996" y="204" fill="rgb(0,95,7)">*</text>
  <text x="554.3999999999996" y="204" fill="rgb(0,78,11)">○</text>
  <text x="561.5999999999997" y="204" fill="rgb(0,145,29)">·</text>
  <text x="72.00000000000001" y="216" fill="rgb(0,60,179)">.</text>
  <text x="79.20000000000002" y="216" fill="rgb(0,0,0)">◉</text>
  <text x="86.40000000000002" y="216" fill="rgb(0,41,205)">.</text>
  <text x="122.40000000000003" y="216" fill="rgb(20,0,147)">·</text>
  <text x="129.60000000000002" y="216" fill="rgb(1,0,1)">◉</text>
  <text x="151.2" y="216" fill="rgb(7,0,16)">◉</text>
  <text x="158.39999999999998" y="216" fill="rgb(55,0,116)">*</text>
  <text x="172.79999999999995" y="216" fill="rgb(71,0,118)">*</text>
  <text x="179.99999999999994" y="216" fill="rgb(23,0,34)">◉</text>
  <text x="187.19999999999993" y="216" fill="rgb(75,0,101)">*</text>
  <text x="194.39999999999992" y="216" fill="rgb(10,0,12)">◉</text>
  <text x="215.9999999999999" y="216" fill="rgb(0,0,0)">◉</text>
  <text x="223.19999999999987" y="216" fill="rgb(174,0,162)">.</text>
  <text x="302.39999999999975" y="216" fill="rgb(142,0,29)">·</text>
  <text x="309.59999999999974" y="216" fill="rgb(5,0,1)">◉</text>
  <text x="338.3999999999997" y="216" fill="rgb(190,26,0)">.</text>
  <text x="345.5999999999997" y="216" fill="rgb(0,0,0)">◉</text>
  <text x="352.79999999999967" y="216" fill="rgb(198,53,0)">.</text>
  <text x="381.5999999999996" y="216" fill="rgb(7,4,0)">◉</text>
  <text x="388.7999999999996" y="216" fill="rgb(130,78,0)">·</text>
  <text x="403.1999999999996" y="216" fill="rgb(88,65,0)">*</text>
  <text x="410.3999999999996" y="216" fill="rgb(37,30,0)">◉</text>
  <text x="424.79999999999956" y="216" fill="rgb(193,181,0)">.</text>
  <text x="431.99999999999955" y="216" fill="rgb(10,10,0)">◉</text>
  <text x="439.19999999999953" y="216" fill="rgb(116,124,0)">*</text>
  <text x="446.3999999999995" y="216" fill="rgb(2,2,0)">◉</text>
  <text x="453.5999999999995" y="216" fill="rgb(136,169,0)">·</text>
  <text x="467.9999999999995" y="216" fill="rgb(29,44,0)">◉</text>
  <text x="475.1999999999995" y="216" fill="rgb(52,86,0)">○</text>
  <text x="518.3999999999994" y="216" fill="rgb(32,159,0)">·</text>
  <text x="525.5999999999995" y="216" fill="rgb(20,144,0)">·</text>
  <text x="554.3999999999996" y="216" fill="rgb(0,125,17)">*</text>
  <text x="561.5999999999997" y="216" fill="rgb(0,0,0)">◉</text>
  <text x="72.00000000000001" y="228" fill="rgb(0,60,179)">.</text>
  <text x="79.20000000000002" y="228" fill="rgb(0,0,0)">◉</text>
  <text x="86.40000000000002" y="228" fill="rgb(0,41,203)">.</text>
  <text x="122.40000000000003" y="228" fill="rgb(20,0,146)">·</text>
  <text x="129.60000000000002" y="228" fill="rgb(0,0,0)">◉</text>
  <text x="151.2" y="228" fill="rgb(6,0,13)">◉</text>
  <text x="158.39999999999998" y="228" fill="rgb(54,0,115)">*</text>
  <text x="179.99999999999994" y="228" fill="rgb(44,0,65)">○</text>
  <text x="187.19999999999993" y="228" fill="rgb(0,0,0)">◉</text>
  <text x="194.39999999999992" y="228" fill="rgb(17,0,21)">◉</text>
  <text x="215.9999999999999" y="228" fill="rgb(0,0,0)">◉</text>
  <text x="223.19999999999987" y="228" fill="rgb(91,0,85)">*</text>
  <text x="230.39999999999986" y="228" fill="rgb(143,0,124)">·</text>
  <text x="237.59999999999985" y="228" fill="rgb(145,0,117)">·</text>
  <text x="244.79999999999984" y="228" fill="rgb(142,0,105)">·</text>
  <text x="251.99999999999983" y="228" fill="rgb(189,0,126)">.</text>
  <text x="302.39999999999975" y="228" fill="rgb(142,0,29)">·</text>
  <text x="309.59999999999974" y="228" fill="rgb(0,0,0)">◉</text>
  <text x="345.5999999999997" y="228" fill="rgb(27,6,0)">◉</text>
  <text x="352.79999999999967" y="228" fill="rgb(91,24,0)">*</text>
  <text x="359.99999999999966" y="228" fill="rgb(142,48,0)">·</text>
  <text x="367.19999999999965" y="228" fill="rgb(142,57,0)">·</text>
  <text x="374.39999999999964" y="228" fill="rgb(116,55,0)">*</text>
  <text x="381.5999999999996" y="228" fill="rgb(16,9,0)">◉</text>
  <text x="388.7999999999996" y="228" fill="rgb(174,104,0)">.</text>
  <text x="403.1999999999996" y="228" fill="rgb(86,64,0)">○</text>
  <text x="410.3999999999996" y="228" fill="rgb(35,28,0)">◉</text>
  <text x="431.99999999999955" y="228" fill="rgb(136,136,0)">·</text>
  <text x="439.19999999999953" y="228" fill="rgb(0,0,0)">◉</text>
  <text x="446.3999999999995" y="228" fill="rgb(0,0,0)">◉</text>
  <text x="453.5999999999995" y="228" fill="rgb(141,175,0)">.</text>
  <text x="467.9999999999995" y="228" fill="rgb(32,48,0)">○</text>
  <text x="475.1999999999995" y="228" fill="rgb(26,44,0)">◉</text>
  <text x="482.39999999999947" y="228" fill="rgb(76,142,0)">·</text>
  <text x="489.59999999999945" y="228" fill="rgb(68,145,0)">·</text>
  <text x="496.79999999999944" y="228" fill="rgb(58,143,0)">·</text>
  <text x="503.99999999999943" y="228" fill="rgb(53,158,0)">·</text>
  <text x="518.3999999999994" y="228" fill="rgb(24,119,0)">*</text>
  <text x="525.5999999999995" y="228" fill="rgb(2,15,0)">◉</text>
  <text x="532.7999999999995" y="228" fill="rgb(9,134,0)">·</text>
  <text x="539.9999999999995" y="228" fill="rgb(0,143,0)">·</text>
  <text x="547.1999999999996" y="228" fill="rgb(0,142,10)">·</text>
  <text x="554.3999999999996" y="228" fill="rgb(0,63,9)">○</text>
  <text x="561.5999999999997" y="228" fill="rgb(0,51,11)">○</text>
  <text x="79.20000000000002" y="240" fill="rgb(0,50,185)">.</text>
  <text x="129.60000000000002" y="240" fill="rgb(38,0,187)">.</text>
  <text x="151.2" y="240" fill="rgb(77,0,192)">.</text>
  <text x="187.19999999999993" y="240" fill="rgb(136,0,185)">.</text>
  <text x="194.39999999999992" y="240" fill="rgb(164,0,205)">.</text>
  <text x="215.9999999999999" y="240" fill="rgb(194,0,194)">.</text>
  <text x="223.19999999999987" y="240" fill="rgb(181,0,169)">.</text>
  <text x="230.39999999999986" y="240" fill="rgb(176,0,153)">.</text>
  <text x="237.59999999999985" y="240" fill="rgb(176,0,141)">.</text>
  <text x="244.79999999999984" y="240" fill="rgb(176,0,130)">.</text>
  <text x="251.99999999999983" y="240" fill="rgb(208,0,139)">.</text>
  <text x="309.59999999999974" y="240" fill="rgb(185,0,25)">.</text>
  <text x="352.79999999999967" y="240" fill="rgb(184,50,0)">.</text>
  <text x="359.99999999999966" y="240" fill="rgb(176,59,0)">.</text>
  <text x="367.19999999999965" y="240" fill="rgb(176,71,0)">.</text>
  <text x="374.39999999999964" y="240" fill="rgb(179,84,0)">.</text>
  <text x="403.1999999999996" y="240" fill="rgb(214,157,0)">.</text>
  <text x="410.3999999999996" y="240" fill="rgb(199,159,0)">.</text>
  <text x="439.19999999999953" y="240" fill="rgb(182,194,0)">.</text>
  <text x="446.3999999999995" y="240" fill="rgb(165,190,0)">.</text>
  <text x="467.9999999999995" y="240" fill="rgb(141,211,0)">.</text>
  <text x="475.1999999999995" y="240" fill="rgb(110,183,0)">.</text>
  <text x="482.39999999999947" y="240" fill="rgb(94,176,0)">.</text>
  <text x="489.59999999999945" y="240" fill="rgb(83,176,0)">.</text>
  <text x="496.79999999999944" y="240" fill="rgb(71,176,0)">.</text>
  <text x="503.99999999999943" y="240" fill="rgb(63,189,0)">.</text>
  <text x="525.5999999999995" y="240" fill="rgb(28,209,0)">.</text>
  <text x="532.7999999999995" y="240" fill="rgb(12,177,0)">.</text>
  <text x="539.9999999999995" y="240" fill="rgb(0,176,0)">.</text>
  <text x="547.1999999999996" y="240" fill="rgb(0,176,12)">.</text>
  <text x="554.3999999999996" y="240" fill="rgb(0,192,26)">.</text>
</svg>