<svg width="648" height="264" xmlns="http://www.w3.org/2000/svg">
  <style>
    text { font-family: "Courier New", monospace; font-size: 12px; }
  </style>
  <text x="151.2" y="36" fill="#FF1493">·</text>
  <text x="158.39999999999998" y="36" fill="#FF1493">○</text>
  <text x="165.59999999999997" y="36" fill="#FF1493">○</text>
  <text x="172.79999999999995" y="36" fill="#FF1493">◉</text>
  <text x="179.99999999999994" y="36" fill="#FF1493">◉</text>
  <text x="187.19999999999993" y="36" fill="#FF1493">◉</text>
  <text x="194.39999999999992" y="36" fill="#FF1493">◉</text>
  <text x="201.5999999999999" y="36" fill="#FF1493">○</text>
  <text x="208.7999999999999" y="36" fill="#FF1493">*</text>
  <text x="215.9999999999999" y="36" fill="#FF1493">.</text>
  <text x="259.1999999999998" y="36" fill="#FF1493">·</text>
  <text x="266.3999999999998" y="36" fill="#FF1493">*</text>
  <text x="273.5999999999998" y="36" fill="#FF1493">○</text>
  <text x="280.7999999999998" y="36" fill="#FF1493">◉</text>
  <text x="287.9999999999998" y="36" fill="#FF1493">◉</text>
  <text x="295.19999999999976" y="36" fill="#FF1493">◉</text>
  <text x="302.39999999999975" y="36" fill="#FF1493">◉</text>
  <text x="309.59999999999974" y="36" fill="#FF1493">○</text>
  <text x="316.7999999999997" y="36" fill="#FF1493">*</text>
  <text x="323.9999999999997" y="36" fill="#FF1493">·</text>
  <text x="367.19999999999965" y="36" fill="#FF1493">·</text>
  <text x="374.39999999999964" y="36" fill="#FF1493">*</text>
  <text x="381.5999999999996" y="36" fill="#FF1493">○</text>
  <text x="388.7999999999996" y="36" fill="#FF1493">◉</text>
  <text x="395.9999999999996" y="36" fill="#FF1493">◉</text>
  <text x="403.1999999999996" y="36" fill="#FF1493">◉</text>
  <text x="410.3999999999996" y="36" fill="#FF1493">◉</text>
  <text x="417.59999999999957" y="36" fill="#FF1493">○</text>
  <text x="424.79999999999956" y="36" fill="#FF1493">*</text>
  <text x="431.99999999999955" y="36" fill="#FF1493">·</text>
  <text x="475.1999999999995" y="36" fill="#FF1493">·</text>
  <text x="482.39999999999947" y="36" fill="#FF1493">*</text>
  <text x="489.59999999999945" y="36" fill="#FF1493">○</text>
  <text x="496.79999999999944" y="36" fill="#FF1493">◉</text>
  <text x="503.99999999999943" y="36" fill="#FF1493">◉</text>
  <text x="511.1999999999994" y="36" fill="#FF1493">○</text>
  <text x="518.3999999999994" y="36" fill="#FF1493">◉</text>
  <text x="525.5999999999995" y="36" fill="#FF1493">○</text>
  <text x="532.7999999999995" y="36" fill="#FF1493">○</text>
  <text x="539.9999999999995" y="36" fill="#FF1493">·</text>
  <text x="136.8" y="48" fill="#FF1493">*</text>
  <text x="144.0" y="48" fill="#FF1493">◉</text>
  <text x="151.2" y="48" fill="#FF1493">◉</text>
  <text x="158.39999999999998" y="48" fill="#FF1493">*</text>
  <text x="165.59999999999997" y="48" fill="#FF1493">·</text>
  <text x="172.79999999999995" y="48" fill="#FF1493">.</text>
  <text x="179.99999999999994" y="48" fill="#FF1493">.</text>
  <text x="187.19999999999993" y="48" fill="#FF1493">.</text>
  <text x="194.39999999999992" y="48" fill="#FF1493">.</text>
  <text x="201.5999999999999" y="48" fill="#FF1493">·</text>
  <text x="208.7999999999999" y="48" fill="#FF1493">○</text>
  <text x="215.9999999999999" y="48" fill="#FF1493">◉</text>
  <text x="223.19999999999987" y="48" fill="#FF1493">○</text>
  <text x="230.39999999999986" y="48" fill="#FF1493">·</text>
  <text x="244.79999999999984" y="48" fill="#FF1493">·</text>
  <text x="251.99999999999983" y="48" fill="#FF1493">◉</text>
  <text x="259.1999999999998" y="48" fill="#FF1493">◉</text>
  <text x="266.3999999999998" y="48" fill="#FF1493">*</text>
  <text x="273.5999999999998" y="48" fill="#FF1493">·</text>
  <text x="280.7999999999998" y="48" fill="#FF1493">.</text>
  <text x="287.9999999999998" y="48" fill="#FF1493">.</text>
  <text x="295.19999999999976" y="48" fill="#FF1493">.</text>
  <text x="302.39999999999975" y="48" fill="#FF1493">.</text>
  <text x="309.59999999999974" y="48" fill="#FF1493">·</text>
  <text x="316.7999999999997" y="48" fill="#FF1493">○</text>
  <text x="323.9999999999997" y="48" fill="#FF1493">◉</text>
  <text x="331.1999999999997" y="48" fill="#FF1493">◉</text>
  <text x="338.3999999999997" y="48" fill="#FF1493">·</text>
  <text x="352.79999999999967" y="48" fill="#FF1493">·</text>
  <text x="359.99999999999966" y="48" fill="#FF1493">◉</text>
  <text x="367.19999999999965" y="48" fill="#FF1493">◉</text>
  <text x="374.39999999999964" y="48" fill="#FF1493">○</text>
  <text x="381.5999999999996" y="48" fill="#FF1493">·</text>
  <text x="388.7999999999996" y="48" fill="#FF1493">.</text>
  <text x="395.9999999999996" y="48" fill="#FF1493">.</text>
  <text x="403.1999999999996" y="48" fill="#FF1493">.</text>
  <text x="410.3999999999996" y="48" fill="#FF1493">.</text>
  <text x="417.59999999999957" y="48" fill="#FF1493">·</text>
  <text x="424.79999999999956" y="48" fill="#FF1493">○</text>
  <text x="431.99999999999955" y="48" fill="#FF1493">◉</text>
  <text x="439.19999999999953" y="48" fill="#FF1493">◉</text>
  <text x="446.3999999999995" y="48" fill="#FF1493">·</text>
  <text x="460.7999999999995" y="48" fill="#FF1493">·</text>
  <text x="467.9999999999995" y="48" fill="#FF1493">○</text>
  <text x="475.1999999999995" y="48" fill="#FF1493">◉</text>
  <text x="482.39999999999947" y="48" fill="#FF1493">○</text>
  <text x="489.59999999999945" y="48" fill="#FF1493">·</text>
  <text x="496.79999999999944" y="48" fill="#FF1493">.</text>
  <text x="503.99999999999943" y="48" fill="#FF1493">.</text>
  <text x="511.1999999999994" y="48" fill="#FF1493">·</text>
  <text x="518.3999999999994" y="48" fill="#FF1493">.</text>
  <text x="525.5999999999995" y="48" fill="#FF1493">·</text>
  <text x="532.7999999999995" y="48" fill="#FF1493">*</text>
  <text x="539.9999999999995" y="48" fill="#FF1493">◉</text>
  <text x="547.1999999999996" y="48" fill="#FF1493">◉</text>
  <text x="554.3999999999996" y="48" fill="#FF1493">*</text>
  <text x="129.60000000000002" y="60" fill="#FF1493">○</text>
  <text x="136.8" y="60" fill="#FF1493">◉</text>
  <text x="144.0" y="60" fill="#FF1493">*</text>
  <text x="215.9999999999999" y="60" fill="#FF1493">.</text>
  <text x="223.19999999999987" y="60" fill="#FF1493">○</text>
  <text x="230.39999999999986" y="60" fill="#FF1493">◉</text>
  <text x="237.59999999999985" y="60" fill="#FF1493">○</text>
  <text x="244.79999999999984" y="60" fill="#FF1493">◉</text>
  <text x="251.99999999999983" y="60" fill="#FF1493">○</text>
  <text x="259.1999999999998" y="60" fill="#FF1493">.</text>
  <text x="323.9999999999997" y="60" fill="#FF1493">.</text>
  <text x="331.1999999999997" y="60" fill="#FF1493">○</text>
  <text x="338.3999999999997" y="60" fill="#FF1493">◉</text>
  <text x="345.5999999999997" y="60" fill="#FF1493">○</text>
  <text x="352.79999999999967" y="60" fill="#FF1493">◉</text>
  <text x="359.99999999999966" y="60" fill="#FF1493">○</text>
  <text x="367.19999999999965" y="60" fill="#FF1493">.</text>
  <text x="431.99999999999955" y="60" fill="#FF1493">.</text>
  <text x="439.19999999999953" y="60" fill="#FF1493">○</text>
  <text x="446.3999999999995" y="60" fill="#FF1493">◉</text>
  <text x="453.5999999999995" y="60" fill="#FF1493">○</text>
  <text x="460.7999999999995" y="60" fill="#FF1493">◉</text>
  <text x="467.9999999999995" y="60" fill="#FF1493">○</text>
  <text x="475.1999999999995" y="60" fill="#FF1493">.</text>
  <text x="503.99999999999943" y="60" fill="#FF1493">○</text>
  <text x="511.1999999999994" y="60" fill="#FF1493">◉</text>
  <text x="518.3999999999994" y="60" fill="#FF1493">○</text>
  <text x="547.1999999999996" y="60" fill="#FF1493">*</text>
  <text x="554.3999999999996" y="60" fill="#FF1493">◉</text>
  <text x="561.5999999999997" y="60" fill="#FF1493">○</text>
  <text x="122.40000000000003" y="72" fill="#FF1493">*</text>
  <text x="129.60000000000002" y="72" fill="#FF1493">◉</text>
  <text x="136.8" y="72" fill="#FF1493">○</text>
  <text x="223.19999999999987" y="72" fill="#FF1493">.</text>
  <text x="230.39999999999986" y="72" fill="#FF1493">◉</text>
  <text x="237.59999999999985" y="72" fill="#FF1493">◉</text>
  <text x="244.79999999999984" y="72" fill="#FF1493">○</text>
  <text x="338.3999999999997" y="72" fill="#FF1493">○</text>
  <text x="345.5999999999997" y="72" fill="#FF1493">◉</text>
  <text x="352.79999999999967" y="72" fill="#FF1493">○</text>
  <text x="446.3999999999995" y="72" fill="#FF1493">○</text>
  <text x="453.5999999999995" y="72" fill="#FF1493">◉</text>
  <text x="460.7999999999995" y="72" fill="#FF1493">◉</text>
  <text x="467.9999999999995" y="72" fill="#FF1493">.</text>
  <text x="503.99999999999943" y="72" fill="#FF1493">·</text>
  <text x="511.1999999999994" y="72" fill="#FF1493">*</text>
  <text x="518.3999999999994" y="72" fill="#FF1493">·</text>
  <text x="554.3999999999996" y="72" fill="#FF1493">○</text>
  <text x="561.5999999999997" y="72" fill="#FF1493">◉</text>
  <text x="568.7999999999997" y="72" fill="#FF1493">*</text>
  <text x="64.80000000000001" y="84" fill="#FF1493">.</text>
  <text x="72.00000000000001" y="84" fill="#FF1493">○</text>
  <text x="79.20000000000002" y="84" fill="#FF1493">○</text>
  <text x="86.40000000000002" y="84" fill="#FF1493">○</text>
  <text x="93.60000000000002" y="84" fill="#FF1493">○</text>
  <text x="100.80000000000003" y="84" fill="#FF1493">○</text>
  <text x="108.00000000000003" y="84" fill="#FF1493">○</text>
  <text x="115.20000000000003" y="84" fill="#FF1493">○</text>
  <text x="122.40000000000003" y="84" fill="#FF1493">◉</text>
  <text x="129.60000000000002" y="84" fill="#FF1493">◉</text>
  <text x="136.8" y="84" fill="#FF1493">·</text>
  <text x="179.99999999999994" y="84" fill="#FF1493">○</text>
  <text x="187.19999999999993" y="84" fill="#FF1493">○</text>
  <text x="230.39999999999986" y="84" fill="#FF1493">○</text>
  <text x="237.59999999999985" y="84" fill="#FF1493">◉</text>
  <text x="244.79999999999984" y="84" fill="#FF1493">·</text>
  <text x="287.9999999999998" y="84" fill="#FF1493">○</text>
  <text x="295.19999999999976" y="84" fill="#FF1493">○</text>
  <text x="302.39999999999975" y="84" fill="#FF1493">.</text>
  <text x="338.3999999999997" y="84" fill="#FF1493">*</text>
  <text x="345.5999999999997" y="84" fill="#FF1493">◉</text>
  <text x="352.79999999999967" y="84" fill="#FF1493">*</text>
  <text x="395.9999999999996" y="84" fill="#FF1493">*</text>
  <text x="403.1999999999996" y="84" fill="#FF1493">○</text>
  <text x="410.3999999999996" y="84" fill="#FF1493">.</text>
  <text x="446.3999999999995" y="84" fill="#FF1493">·</text>
  <text x="453.5999999999995" y="84" fill="#FF1493">◉</text>
  <text x="460.7999999999995" y="84" fill="#FF1493">*</text>
  <text x="503.99999999999943" y="84" fill="#FF1493">·</text>
  <text x="511.1999999999994" y="84" fill="#FF1493">○</text>
  <text x="518.3999999999994" y="84" fill="#FF1493">○</text>
  <text x="525.5999999999995" y="84" fill="#FF1493">○</text>
  <text x="532.7999999999995" y="84" fill="#FF1493">○</text>
  <text x="539.9999999999995" y="84" fill="#FF1493">○</text>
  <text x="547.1999999999996" y="84" fill="#FF1493">○</text>
  <text x="554.3999999999996" y="84" fill="#FF1493">◉</text>
  <text x="561.5999999999997" y="84" fill="#FF1493">◉</text>
  <text x="568.7999999999997" y="84" fill="#FF1493">○</text>
  <text x="64.80000000000001" y="96" fill="#FF1493">.</text>
  <text x="72.00000000000001" y="96" fill="#FF1493">◉</text>
  <text x="79.20000000000002" y="96" fill="#FF1493">◉</text>
  <text x="86.40000000000002" y="96" fill="#FF1493">*</text>
  <text x="93.60000000000002" y="96" fill="#FF1493">.</text>
  <text x="100.80000000000003" y="96" fill="#FF1493">.</text>
  <text x="108.00000000000003" y="96" fill="#FF1493">.</text>
  <text x="115.20000000000003" y="96" fill="#FF1493">.</text>
  <text x="122.40000000000003" y="96" fill="#FF1493">.</text>
  <text x="129.60000000000002" y="96" fill="#FF1493">.</text>
  <text x="172.79999999999995" y="96" fill="#FF1493">·</text>
  <text x="179.99999999999994" y="96" fill="#FF1493">◉</text>
  <text x="187.19999999999993" y="96" fill="#FF1493">◉</text>
  <text x="194.39999999999992" y="96" fill="#FF1493">·</text>
  <text x="237.59999999999985" y="96" fill="#FF1493">.</text>
  <text x="280.7999999999998" y="96" fill="#FF1493">.</text>
  <text x="287.9999999999998" y="96" fill="#FF1493">◉</text>
  <text x="295.19999999999976" y="96" fill="#FF1493">◉</text>
  <text x="302.39999999999975" y="96" fill="#FF1493">·</text>
  <text x="345.5999999999997" y="96" fill="#FF1493">.</text>
  <text x="388.7999999999996" y="96" fill="#FF1493">.</text>
  <text x="395.9999999999996" y="96" fill="#FF1493">◉</text>
  <text x="403.1999999999996" y="96" fill="#FF1493">◉</text>
  <text x="410.3999999999996" y="96" fill="#FF1493">*</text>
  <text x="453.5999999999995" y="96" fill="#FF1493">.</text>
  <text x="503.99999999999943" y="96" fill="#FF1493">○</text>
  <text x="511.1999999999994" y="96" fill="#FF1493">◉</text>
  <text x="518.3999999999994" y="96" fill="#FF1493">*</text>
  <text x="525.5999999999995" y="96" fill="#FF1493">.</text>
  <text x="532.7999999999995" y="96" fill="#FF1493">.</text>
  <text x="539.9999999999995" y="96" fill="#FF1493">.</text>
  <text x="547.1999999999996" y="96" fill="#FF1493">.</text>
  <text x="554.3999999999996" y="96" fill="#FF1493">.</text>
  <text x="561.5999999999997" y="96" fill="#FF1493">.</text>
  <text x="72.00000000000001" y="108" fill="#FF1493">*</text>
  <text x="79.20000000000002" y="108" fill="#FF1493">◉</text>
  <text x="86.40000000000002" y="108" fill="#FF1493">○</text>
  <text x="93.60000000000002" y="108" fill="#FF1493">.</text>
  <text x="165.59999999999997" y="108" fill="#FF1493">.</text>
  <text x="172.79999999999995" y="108" fill="#FF1493">○</text>
  <text x="179.99999999999994" y="108" fill="#FF1493">◉</text>
  <text x="187.19999999999993" y="108" fill="#FF1493">◉</text>
  <text x="194.39999999999992" y="108" fill="#FF1493">○</text>
  <text x="201.5999999999999" y="108" fill="#FF1493">.</text>
  <text x="273.5999999999998" y="108" fill="#FF1493">.</text>
  <text x="280.7999999999998" y="108" fill="#FF1493">○</text>
  <text x="287.9999999999998" y="108" fill="#FF1493">◉</text>
  <text x="295.19999999999976" y="108" fill="#FF1493">◉</text>
  <text x="302.39999999999975" y="108" fill="#FF1493">◉</text>
  <text x="309.59999999999974" y="108" fill="#FF1493">.</text>
  <text x="388.7999999999996" y="108" fill="#FF1493">○</text>
  <text x="395.9999999999996" y="108" fill="#FF1493">◉</text>
  <text x="403.1999999999996" y="108" fill="#FF1493">◉</text>
  <text x="410.3999999999996" y="108" fill="#FF1493">◉</text>
  <text x="417.59999999999957" y="108" fill="#FF1493">·</text>
  <text x="496.79999999999944" y="108" fill="#FF1493">*</text>
  <text x="503.99999999999943" y="108" fill="#FF1493">◉</text>
  <text x="511.1999999999994" y="108" fill="#FF1493">○</text>
  <text x="79.20000000000002" y="120" fill="#FF1493">·</text>
  <text x="86.40000000000002" y="120" fill="#FF1493">◉</text>
  <text x="93.60000000000002" y="120" fill="#FF1493">◉</text>
  <text x="100.80000000000003" y="120" fill="#FF1493">*</text>
  <text x="108.00000000000003" y="120" fill="#FF1493">.</text>
  <text x="151.2" y="120" fill="#FF1493">.</text>
  <text x="158.39999999999998" y="120" fill="#FF1493">*</text>
  <text x="165.59999999999997" y="120" fill="#FF1493">◉</text>
  <text x="172.79999999999995" y="120" fill="#FF1493">◉</text>
  <text x="179.99999999999994" y="120" fill="#FF1493">·</text>
  <text x="187.19999999999993" y="120" fill="#FF1493">·</text>
  <text x="194.39999999999992" y="120" fill="#FF1493">◉</text>
  <text x="201.5999999999999" y="120" fill="#FF1493">◉</text>
  <text x="208.7999999999999" y="120" fill="#FF1493">*</text>
  <text x="215.9999999999999" y="120" fill="#FF1493">.</text>
  <text x="259.1999999999998" y="120" fill="#FF1493">.</text>
  <text x="266.3999999999998" y="120" fill="#FF1493">*</text>
  <text x="273.5999999999998" y="120" fill="#FF1493">◉</text>
  <text x="280.7999999999998" y="120" fill="#FF1493">◉</text>
  <text x="287.9999999999998" y="120" fill="#FF1493">·</text>
  <text x="295.19999999999976" y="120" fill="#FF1493">·</text>
  <text x="302.39999999999975" y="120" fill="#FF1493">○</text>
  <text x="309.59999999999974" y="120" fill="#FF1493">◉</text>
  <text x="316.7999999999997" y="120" fill="#FF1493">*</text>
  <text x="323.9999999999997" y="120" fill="#FF1493">.</text>
  <text x="367.19999999999965" y="120" fill="#FF1493">.</text>
  <text x="374.39999999999964" y="120" fill="#FF1493">*</text>
  <text x="381.5999999999996" y="120" fill="#FF1493">◉</text>
  <text x="388.7999999999996" y="120" fill="#FF1493">◉</text>
  <text x="395.9999999999996" y="120" fill="#FF1493">*</text>
  <text x="403.1999999999996" y="120" fill="#FF1493">.</text>
  <text x="410.3999999999996" y="120" fill="#FF1493">○</text>
  <text x="417.59999999999957" y="120" fill="#FF1493">◉</text>
  <text x="424.79999999999956" y="120" fill="#FF1493">○</text>
  <text x="431.99999999999955" y="120" fill="#FF1493">·</text>
  <text x="475.1999999999995" y="120" fill="#FF1493">.</text>
  <text x="482.39999999999947" y="120" fill="#FF1493">·</text>
  <text x="489.59999999999945" y="120" fill="#FF1493">○</text>
  <text x="496.79999999999944" y="120" fill="#FF1493">◉</text>
  <text x="503.99999999999943" y="120" fill="#FF1493">*</text>
  <text x="86.40000000000002" y="132" fill="#FF1493">.</text>
  <text x="93.60000000000002" y="132" fill="#FF1493">*</text>
  <text x="100.80000000000003" y="132" fill="#FF1493">○</text>
  <text x="108.00000000000003" y="132" fill="#FF1493">◉</text>
  <text x="115.20000000000003" y="132" fill="#FF1493">◉</text>
  <text x="122.40000000000003" y="132" fill="#FF1493">○</text>
  <text x="129.60000000000002" y="132" fill="#FF1493">○</text>
  <text x="136.8" y="132" fill="#FF1493">○</text>
  <text x="144.0" y="132" fill="#FF1493">◉</text>
  <text x="151.2" y="132" fill="#FF1493">◉</text>
  <text x="158.39999999999998" y="132" fill="#FF1493">○</text>
  <text x="165.59999999999997" y="132" fill="#FF1493">·</text>
  <text x="201.5999999999999" y="132" fill="#FF1493">·</text>
  <text x="208.7999999999999" y="132" fill="#FF1493">○</text>
  <text x="215.9999999999999" y="132" fill="#FF1493">◉</text>
  <text x="223.19999999999987" y="132" fill="#FF1493">◉</text>
  <text x="230.39999999999986" y="132" fill="#FF1493">○</text>
  <text x="237.59999999999985" y="132" fill="#FF1493">○</text>
  <text x="244.79999999999984" y="132" fill="#FF1493">○</text>
  <text x="251.99999999999983" y="132" fill="#FF1493">◉</text>
  <text x="259.1999999999998" y="132" fill="#FF1493">◉</text>
  <text x="266.3999999999998" y="132" fill="#FF1493">○</text>
  <text x="273.5999999999998" y="132" fill="#FF1493">*</text>
  <text x="280.7999999999998" y="132" fill="#FF1493">.</text>
  <text x="309.59999999999974" y="132" fill="#FF1493">·</text>
  <text x="316.7999999999997" y="132" fill="#FF1493">○</text>
  <text x="323.9999999999997" y="132" fill="#FF1493">◉</text>
  <text x="331.1999999999997" y="132" fill="#FF1493">◉</text>
  <text x="338.3999999999997" y="132" fill="#FF1493">○</text>
  <text x="345.5999999999997" y="132" fill="#FF1493">○</text>
  <text x="352.79999999999967" y="132" fill="#FF1493">○</text>
  <text x="359.99999999999966" y="132" fill="#FF1493">◉</text>
  <text x="367.19999999999965" y="132" fill="#FF1493">◉</text>
  <text x="374.39999999999964" y="132" fill="#FF1493">○</text>
  <text x="381.5999999999996" y="132" fill="#FF1493">*</text>
  <text x="388.7999999999996" y="132" fill="#FF1493">.</text>
  <text x="417.59999999999957" y="132" fill="#FF1493">·</text>
  <text x="424.79999999999956" y="132" fill="#FF1493">○</text>
  <text x="431.99999999999955" y="132" fill="#FF1493">◉</text>
  <text x="439.19999999999953" y="132" fill="#FF1493">◉</text>
  <text x="446.3999999999995" y="132" fill="#FF1493">○</text>
  <text x="453.5999999999995" y="132" fill="#FF1493">○</text>
  <text x="460.7999999999995" y="132" fill="#FF1493">○</text>
  <text x="467.9999999999995" y="132" fill="#FF1493">○</text>
  <text x="475.1999999999995" y="132" fill="#FF1493">◉</text>
  <text x="482.39999999999947" y="132" fill="#FF1493">◉</text>
  <text x="489.59999999999945" y="132" fill="#FF1493">*</text>
  <text x="496.79999999999944" y="132" fill="#FF1493">.</text>
  <text x="108.00000000000003" y="144" fill="#FF1493">.</text>
  <text x="115.20000000000003" y="144" fill="#FF1493">.</text>
  <text x="122.40000000000003" y="144" fill="#FF1493">·</text>
  <text x="129.60000000000002" y="144" fill="#FF1493">·</text>
  <text x="136.8" y="144" fill="#FF1493">·</text>
  <text x="144.0" y="144" fill="#FF1493">.</text>
  <text x="223.19999999999987" y="144" fill="#FF1493">.</text>
  <text x="230.39999999999986" y="144" fill="#FF1493">·</text>
  <text x="237.59999999999985" y="144" fill="#FF1493">·</text>
  <text x="244.79999999999984" y="144" fill="#FF1493">·</text>
  <text x="251.99999999999983" y="144" fill="#FF1493">.</text>
  <text x="259.1999999999998" y="144" fill="#FF1493">.</text>
  <text x="331.1999999999997" y="144" fill="#FF1493">.</text>
  <text x="338.3999999999997" y="144" fill="#FF1493">·</text>
  <text x="345.5999999999997" y="144" fill="#FF1493">·</text>
  <text x="352.79999999999967" y="144" fill="#FF1493">·</text>
  <text x="359.99999999999966" y="144" fill="#FF1493">.</text>
  <text x="367.19999999999965" y="144" fill="#FF1493">.</text>
  <text x="439.19999999999953" y="144" fill="#FF1493">.</text>
  <text x="446.3999999999995" y="144" fill="#FF1493">·</text>
  <text x="453.5999999999995" y="144" fill="#FF1493">·</text>
  <text x="460.7999999999995" y="144" fill="#FF1493">·</text>
  <text x="467.9999999999995" y="144" fill="#FF1493">.</text>
  <text x="475.1999999999995" y="144" fill="#FF1493">.</text>
  <text x="86.40000000000002" y="168" fill="#FF1493">.</text>
  <text x="93.60000000000002" y="168" fill="#FF1493">.</text>
  <text x="100.80000000000003" y="168" fill="#FF1493">.</text>
  <text x="108.00000000000003" y="168" fill="#FF1493">.</text>
  <text x="129.60000000000002" y="168" fill="#FF1493">.</text>
  <text x="158.39999999999998" y="168" fill="#FF1493">.</text>
  <text x="223.19999999999987" y="168" fill="#FF1493">.</text>
  <text x="230.39999999999986" y="168" fill="#FF1493">.</text>
  <text x="237.59999999999985" y="168" fill="#FF1493">.</text>
  <text x="244.79999999999984" y="168" fill="#FF1493">.</text>
  <text x="287.9999999999998" y="168" fill="#FF1493">.</text>
  <text x="295.19999999999976" y="168" fill="#FF1493">.</text>
  <text x="302.39999999999975" y="168" fill="#FF1493">.</text>
  <text x="309.59999999999974" y="168" fill="#FF1493">.</text>
  <text x="316.7999999999997" y="168" fill="#FF1493">.</text>
  <text x="323.9999999999997" y="168" fill="#FF1493">.</text>
  <text x="345.5999999999997" y="168" fill="#FF1493">.</text>
  <text x="410.3999999999996" y="168" fill="#FF1493">.</text>
  <text x="446.3999999999995" y="168" fill="#FF1493">.</text>
  <text x="475.1999999999995" y="168" fill="#FF1493">.</text>
  <text x="482.39999999999947" y="168" fill="#FF1493">.</text>
  <text x="489.59999999999945" y="168" fill="#FF1493">.</text>
  <text x="496.79999999999944" y="168" fill="#FF1493">.</text>
  <text x="532.7999999999995" y="168" fill="#FF1493">.</text>
  <text x="539.9999999999995" y="168" fill="#FF1493">.</text>
  <text x="547.1999999999996" y="168" fill="#FF1493">.</text>
  <text x="72.00000000000001" y="180" fill="#FF1493">.</text>
  <text x="79.20000000000002" y="180" fill="#FF1493">◉</text>
  <text x="86.40000000000002" y="180" fill="#FF1493">*</text>
  <text x="93.60000000000002" y="180" fill="#FF1493">*</text>
  <text x="100.80000000000003" y="180" fill="#FF1493">*</text>
  <text x="108.00000000000003" y="180" fill="#FF1493">*</text>
  <text x="122.40000000000003" y="180" fill="#FF1493">·</text>
  <text x="129.60000000000002" y="180" fill="#FF1493">◉</text>
  <text x="151.2" y="180" fill="#FF1493">◉</text>
  <text x="158.39999999999998" y="180" fill="#FF1493">◉</text>
  <text x="165.59999999999997" y="180" fill="#FF1493">○</text>
  <text x="187.19999999999993" y="180" fill="#FF1493">·</text>
  <text x="194.39999999999992" y="180" fill="#FF1493">◉</text>
  <text x="215.9999999999999" y="180" fill="#FF1493">◉</text>
  <text x="223.19999999999987" y="180" fill="#FF1493">○</text>
  <text x="230.39999999999986" y="180" fill="#FF1493">*</text>
  <text x="237.59999999999985" y="180" fill="#FF1493">*</text>
  <text x="244.79999999999984" y="180" fill="#FF1493">*</text>
  <text x="251.99999999999983" y="180" fill="#FF1493">.</text>
  <text x="287.9999999999998" y="180" fill="#FF1493">·</text>
  <text x="295.19999999999976" y="180" fill="#FF1493">*</text>
  <text x="302.39999999999975" y="180" fill="#FF1493">○</text>
  <text x="309.59999999999974" y="180" fill="#FF1493">◉</text>
  <text x="316.7999999999997" y="180" fill="#FF1493">*</text>
  <text x="323.9999999999997" y="180" fill="#FF1493">*</text>
  <text x="331.1999999999997" y="180" fill="#FF1493">.</text>
  <text x="338.3999999999997" y="180" fill="#FF1493">.</text>
  <text x="345.5999999999997" y="180" fill="#FF1493">◉</text>
  <text x="352.79999999999967" y="180" fill="#FF1493">.</text>
  <text x="381.5999999999996" y="180" fill="#FF1493">◉</text>
  <text x="388.7999999999996" y="180" fill="#FF1493">·</text>
  <text x="403.1999999999996" y="180" fill="#FF1493">*</text>
  <text x="410.3999999999996" y="180" fill="#FF1493">◉</text>
  <text x="417.59999999999957" y="180" fill="#FF1493">◉</text>
  <text x="446.3999999999995" y="180" fill="#FF1493">◉</text>
  <text x="453.5999999999995" y="180" fill="#FF1493">.</text>
  <text x="467.9999999999995" y="180" fill="#FF1493">○</text>
  <text x="475.1999999999995" y="180" fill="#FF1493">◉</text>
  <text x="482.39999999999947" y="180" fill="#FF1493">*</text>
  <text x="489.59999999999945" y="180" fill="#FF1493">*</text>
  <text x="496.79999999999944" y="180" fill="#FF1493">*</text>
  <text x="503.99999999999943" y="180" fill="#FF1493">·</text>
  <text x="518.3999999999994" y="180" fill="#FF1493">·</text>
  <text x="525.5999999999995" y="180" fill="#FF1493">◉</text>
  <text x="532.7999999999995" y="180" fill="#FF1493">*</text>
  <text x="539.9999999999995" y="180" fill="#FF1493">*</text>
  <text x="547.1999999999996" y="180" fill="#FF1493">*</text>
  <text x="554.3999999999996" y="180" fill="#FF1493">○</text>
  <text x="561.5999999999997" y="180" fill="#FF1493">○</text>
  <text x="72.00000000000001" y="192" fill="#FF1493">.</text>
  <text x="79.20000000000002" y="192" fill="#FF1493">◉</text>
  <text x="86.40000000000002" y="192" fill="#FF1493">.</text>
  <text x="122.40000000000003" y="192" fill="#FF1493">·</text>
  <text x="129.60000000000002" y="192" fill="#FF1493">◉</text>
  <text x="151.2" y="192" fill="#FF1493">◉</text>
  <text x="158.39999999999998" y="192" fill="#FF1493">○</text>
  <text x="165.59999999999997" y="192" fill="#FF1493">◉</text>
  <text x="172.79999999999995" y="192" fill="#FF1493">*</text>
  <text x="187.19999999999993" y="192" fill="#FF1493">·</text>
  <text x="194.39999999999992" y="192" fill="#FF1493">◉</text>
  <text x="215.9999999999999" y="192" fill="#FF1493">◉</text>
  <text x="223.19999999999987" y="192" fill="#FF1493">.</text>
  <text x="302.39999999999975" y="192" fill="#FF1493">·</text>
  <text x="309.59999999999974" y="192" fill="#FF1493">◉</text>
  <text x="338.3999999999997" y="192" fill="#FF1493">.</text>
  <text x="345.5999999999997" y="192" fill="#FF1493">◉</text>
  <text x="352.79999999999967" y="192" fill="#FF1493">.</text>
  <text x="381.5999999999996" y="192" fill="#FF1493">◉</text>
  <text x="388.7999999999996" y="192" fill="#FF1493">·</text>
  <text x="403.1999999999996" y="192" fill="#FF1493">*</text>
  <text x="410.3999999999996" y="192" fill="#FF1493">◉</text>
  <text x="417.59999999999957" y="192" fill="#FF1493">○</text>
  <text x="424.79999999999956" y="192" fill="#FF1493">○</text>
  <text x="446.3999999999995" y="192" fill="#FF1493">◉</text>
  <text x="453.5999999999995" y="192" fill="#FF1493">·</text>
  <text x="467.9999999999995" y="192" fill="#FF1493">◉</text>
  <text x="475.1999999999995" y="192" fill="#FF1493">○</text>
  <text x="518.3999999999994" y="192" fill="#FF1493">○</text>
  <text x="525.5999999999995" y="192" fill="#FF1493">◉</text>
  <text x="554.3999999999996" y="192" fill="#FF1493">.</text>
  <text x="561.5999999999997" y="192" fill="#FF1493">*</text>
  <text x="72.00000000000001" y="204" fill="#FF1493">.</text>
  <text x="79.20000000000002" y="204" fill="#FF1493">◉</text>
  <text x="86.40000000000002" y="204" fill="#FF1493">.</text>
  <text x="93.60000000000002" y="204" fill="#FF1493">·</text>
  <text x="100.80000000000003" y="204" fill="#FF1493">◉</text>
  <text x="108.00000000000003" y="204" fill="#FF1493">.</text>
  <text x="122.40000000000003" y="204" fill="#FF1493">·</text>
  <text x="129.60000000000002" y="204" fill="#FF1493">◉</text>
  <text x="151.2" y="204" fill="#FF1493">◉</text>
  <text x="158.39999999999998" y="204" fill="#FF1493">*</text>
  <text x="165.59999999999997" y="204" fill="#FF1493">.</text>
  <text x="172.79999999999995" y="204" fill="#FF1493">◉</text>
  <text x="179.99999999999994" y="204" fill="#FF1493">.</text>
  <text x="187.19999999999993" y="204" fill="#FF1493">·</text>
  <text x="194.39999999999992" y="204" fill="#FF1493">◉</text>
  <text x="215.9999999999999" y="204" fill="#FF1493">◉</text>
  <text x="223.19999999999987" y="204" fill="#FF1493">.</text>
  <text x="230.39999999999986" y="204" fill="#FF1493">.</text>
  <text x="237.59999999999985" y="204" fill="#FF1493">◉</text>
  <text x="244.79999999999984" y="204" fill="#FF1493">.</text>
  <text x="302.39999999999975" y="204" fill="#FF1493">·</text>
  <text x="309.59999999999974" y="204" fill="#FF1493">◉</text>
  <text x="338.3999999999997" y="204" fill="#FF1493">.</text>
  <text x="345.5999999999997" y="204" fill="#FF1493">◉</text>
  <text x="352.79999999999967" y="204" fill="#FF1493">.</text>
  <text x="381.5999999999996" y="204" fill="#FF1493">◉</text>
  <text x="388.7999999999996" y="204" fill="#FF1493">·</text>
  <text x="403.1999999999996" y="204" fill="#FF1493">*</text>
  <text x="410.3999999999996" y="204" fill="#FF1493">◉</text>
  <text x="424.79999999999956" y="204" fill="#FF1493">◉</text>
  <text x="431.99999999999955" y="204" fill="#FF1493">*</text>
  <text x="446.3999999999995" y="204" fill="#FF1493">◉</text>
  <text x="453.5999999999995" y="204" fill="#FF1493">·</text>
  <text x="467.9999999999995" y="204" fill="#FF1493">◉</text>
  <text x="475.1999999999995" y="204" fill="#FF1493">*</text>
  <text x="489.59999999999945" y="204" fill="#FF1493">◉</text>
  <text x="496.79999999999944" y="204" fill="#FF1493">*</text>
  <text x="518.3999999999994" y="204" fill="#FF1493">.</text>
  <text x="525.5999999999995" y="204" fill="#FF1493">○</text>
  <text x="532.7999999999995" y="204" fill="#FF1493">*</text>
  <text x="539.9999999999995" y="204" fill="#FF1493">*</text>
  <text x="547.1999999999996" y="204" fill="#FF1493">*</text>
  <text x="554.3999999999996" y="204" fill="#FF1493">○</text>
  <text x="561.5999999999997" y="204" fill="#FF1493">·</text>
  <text x="72.00000000000001" y="216" fill="#FF1493">.</text>
  <text x="79.20000000000002" y="216" fill="#FF1493">◉</text>
  <text x="86.40000000000002" y="216" fill="#FF1493">.</text>
  <text x="122.40000000000003" y="216" fill="#FF1493">·</text>
  <text x="129.60000000000002" y="216" fill="#FF1493">◉</text>
  <text x="151.2" y="216" fill="#FF1493">◉</text>
  <text x="158.39999999999998" y="216" fill="#FF1493">*</text>
  <text x="172.79999999999995" y="216" fill="#FF1493">*</text>
  <text x="179.99999999999994" y="216" fill="#FF1493">◉</text>
  <text x="187.19999999999993" y="216" fill="#FF1493">*</text>
  <text x="194.39999999999992" y="216" fill="#FF1493">◉</text>
  <text x="215.9999999999999" y="216" fill="#FF1493">◉</text>
  <text x="223.19999999999987" y="216" fill="#FF1493">.</text>
  <text x="302.39999999999975" y="216" fill="#FF1493">·</text>
  <text x="309.59999999999974" y="216" fill="#FF1493">◉</text>
  <text x="338.3999999999997" y="216" fill="#FF1493">.</text>
  <text x="345.5999999999997" y="216" fill="#FF1493">◉</text>
  <text x="352.79999999999967" y="216" fill="#FF1493">.</text>
  <text x="381.5999999999996" y="216" fill="#FF1493">◉</text>
  <text x="388.7999999999996" y="216" fill="#FF1493">·</text>
  <text x="403.1999999999996" y="216" fill="#FF1493">*</text>
  <text x="410.3999999999996" y="216" fill="#FF1493">◉</text>
  <text x="424.79999999999956" y="216" fill="#FF1493">.</text>
  <text x="431.99999999999955" y="216" fill="#FF1493">◉</text>
  <text x="439.19999999999953" y="216" fill="#FF1493">*</text>
  <text x="446.3999999999995" y="216" fill="#FF1493">◉</text>
  <text x="453.5999999999995" y="216" fill="#FF1493">·</text>
  <text x="467.9999999999995" y="216" fill="#FF1493">◉</text>
  <text x="475.1999999999995" y="216" fill="#FF1493">○</text>
  <text x="518.3999999999994" y="216" fill="#FF1493">·</text>
  <text x="525.5999999999995" y="216" fill="#FF1493">·</text>
  <text x="554.3999999999996" y="216" fill="#FF1493">*</text>
  <text x="561.5999999999997" y="216" fill="#FF1493">◉</text>
  <text x="72.00000000000001" y="228" fill="#FF1493">.</text>
  <text x="79.20000000000002" y="228" fill="#FF1493">◉</text>
  <text x="86.40000000000002" y="228" fill="#FF1493">.</text>
  <text x="122.40000000000003" y="228" fill="#FF1493">·</text>
  <text x="129.60000000000002" y="228" fill="#FF1493">◉</text>
  <text x="151.2" y="228" fill="#FF1493">◉</text>
  <text x="158.39999999999998" y="228" fill="#FF1493">*</text>
  <text x="179.99999999999994" y="228" fill="#FF1493">○</text>
  <text x="187.19999999999993" y="228" fill="#FF1493">◉</text>
  <text x="194.39999999999992" y="228" fill="#FF1493">◉</text>
  <text x="215.9999999999999" y="228" fill="#FF1493">◉</text>
  <text x="223.19999999999987" y="228" fill="#FF1493">*</text>
  <text x="230.39999999999986" y="228" fill="#FF1493">·</text>
  <text x="237.59999999999985" y="228" fill="#FF1493">·</text>
  <text x="244.79999999999984" y="228" fill="#FF1493">·</text>
  <text x="251.99999999999983" y="228" fill="#FF1493">.</text>
  <text x="302.39999999999975" y="228" fill="#FF1493">·</text>
  <text x="309.59999999999974" y="228" fill="#FF1493">◉</text>
  <text x="345.5999999999997" y="228" fill="#FF1493">◉</text>
  <text x="352.79999999999967" y="228" fill="#FF1493">*</text>
  <text x="359.99999999999966" y="228" fill="#FF1493">·</text>
  <text x="367.19999999999965" y="228" fill="#FF1493">·</text>
  <text x="374.39999999999964" y="228" fill="#FF1493">*</text>
  <text x="381.5999999999996" y="228" fill="#FF1493">◉</text>
  <text x="388.7999999999996" y="228" fill="#FF1493">.</text>
  <text x="403.1999999999996" y="228" fill="#FF1493">○</text>
  <text x="410.3999999999996" y="228" fill="#FF1493">◉</text>
  <text x="431.99999999999955" y="228" fill="#FF1493">·</text>
  <text x="439.19999999999953" y="228" fill="#FF1493">◉</text>
  <text x="446.3999999999995" y="228" fill="#FF1493">◉</text>
  <text x="453.5999999999995" y="228" fill="#FF1493">.</text>
  <text x="467.9999999999995" y="228" fill="#FF1493">○</text>
  <text x="475.1999999999995" y="228" fill="#FF1493">◉</text>
  <text x="482.39999999999947" y="228" fill="#FF1493">·</text>
  <text x="489.59999999999945" y="228" fill="#FF1493">·</text>
  <text x="496.79999999999944" y="228" fill="#FF1493">·</text>
  <text x="503.99999999999943" y="228" fill="#FF1493">·</text>
  <text x="518.3999999999994" y="228" fill="#FF1493">*</text>
  <text x="525.5999999999995" y="228" fill="#FF1493">◉</text>
  <text x="532.7999999999995" y="228" fill="#FF1493">·</text>
  <text x="539.9999999999995" y="228" fill="#FF1493">·</text>
  <text x="547.1999999999996" y="228" fill="#FF1493">·</text>
  <text x="554.3999999999996" y="228" fill="#FF1493">○</text>
  <text x="561.5999999999997" y="228" fill="#FF1493">○</text>
  <text x="79.20000000000002" y="240" fill="#FF1493">.</text>
  <text x="129.60000000000002" y="240" fill="#FF1493">.</text>
  <text x="151.2" y="240" fill="#FF1493">.</text>
  <text x="187.19999999999993" y="240" fill="#FF1493">.</text>
  <text x="194.39999999999992" y="240" fill="#FF1493">.</text>
  <text x="215.9999999999999" y="240" fill="#FF1493">.</text>
  <text x="223.19999999999987" y="240" fill="#FF1493">.</text>
  <text x="230.39999999999986" y="240" fill="#FF1493">.</text>
  <text x="237.59999999999985" y="240" fill="#FF1493">.</text>
  <text x="244.79999999999984" y="240" fill="#FF1493">.</text>
  <text x="251.99999999999983" y="240" fill="#FF1493">.</text>
  <text x="309.59999999999974" y="240" fill="#FF1493">.</text>
  <text x="352.79999999999967" y="240" fill="#FF1493">.</text>
  <text x="359.99999999999966" y="240" fill="#FF1493">.</text>
  <text x="367.19999999999965" y="240" fill="#FF1493">.</text>
  <text x="374.39999999999964" y="240" fill="#FF1493">.</text>
  <text x="403.1999999999996" y="240" fill="#FF1493">.</text>
  <text x="410.3999999999996" y="240" fill="#FF1493">.</text>
  <text x="439.19999999999953" y="240" fill="#FF1493">.</text>
  <text x="446.3999999999995" y="240" fill="#FF1493">.</text>
  <text x="467.9999999999995" y="240" fill="#FF1493">.</text>
  <text x="475.1999999999995" y="240" fill="#FF1493">.</text>
  <text x="482.39999999999947" y="240" fill="#FF1493">.</text>
  <text x="489.59999999999945" y="240" fill="#FF1493">.</text>
  <text x="496.79999999999944" y="240" fill="#FF1493">.</text>
  <text x="503.99999999999943" y="240" fill="#FF1493">.</text>
  <text x="525.5999999999995" y="240" fill="#FF1493">.</text>
  <text x="532.7999999999995" y="240" fill="#FF1493">.</text>
  <text x="539.9999999999995" y="240" fill="#FF1493">.</text>
  <text x="547.1999999999996" y="240" fill="#FF1493">.</text>
  <text x="554.3999999999996" y="240" fill="#FF1493">.</text>
</svg>