<svg width="648" height="264" xmlns="http://www.w3.org/2000/svg">
  <rect width="100%" height="100%" fill="#000000"/>
  <style>
    text { font-family: "Courier New", monospace; font-size: 12px; }
  </style>
  <text x="151.2" y="36" fill="rgb(110,111,111)">·</text>
  <text x="158.39999999999998" y="36" fill="rgb(171,173,172)">○</text>
  <text x="165.59999999999997" y="36" fill="rgb(202,204,203)">○</text>
  <text x="172.79999999999995" y="36" fill="rgb(212,214,213)">◉</text>
  <text x="179.99999999999994" y="36" fill="rgb(214,216,215)">◉</text>
  <text x="187.19999999999993" y="36" fill="rgb(212,215,213)">◉</text>
  <text x="194.39999999999992" y="36" fill="rgb(209,211,210)">◉</text>
  <text x="201.5999999999999" y="36" fill="rgb(193,195,194)">○</text>
  <text x="208.7999999999999" y="36" fill="rgb(151,152,152)">*</text>
  <text x="215.9999999999999" y="36" fill="rgb(83,83,83)">.</text>
  <text x="259.1999999999998" y="36" fill="rgb(102,103,102)">·</text>
  <text x="266.3999999999998" y="36" fill="rgb(165,166,165)">*</text>
  <text x="273.5999999999998" y="36" fill="rgb(201,203,202)">○</text>
  <text x="280.7999999999998" y="36" fill="rgb(212,214,213)">◉</text>
  <text x="287.9999999999998" y="36" fill="rgb(213,215,214)">◉</text>
  <text x="295.19999999999976" y="36" fill="rgb(213,215,214)">◉</text>
  <text x="302.39999999999975" y="36" fill="rgb(210,212,211)">◉</text>
  <text x="309.59999999999974" y="36" fill="rgb(197,199,198)">○</text>
  <text x="316.7999999999997" y="36" fill="rgb(159,159,159)">*</text>
  <text x="323.9999999999997" y="36" fill="rgb(92,92,92)">·</text>
  <text x="367.19999999999965" y="36" fill="rgb(94,94,94)">·</text>
  <text x="374.39999999999964" y="36" fill="rgb(159,161,160)">*</text>
  <text x="381.5999999999996" y="36" fill="rgb(197,200,198)">○</text>
  <text x="388.7999999999996" y="36" fill="rgb(210,213,212)">◉</text>
  <text x="395.9999999999996" y="36" fill="rgb(212,214,213)">◉</text>
  <text x="403.1999999999996" y="36" fill="rgb(213,215,214)">◉</text>
  <text x="410.3999999999996" y="36" fill="rgb(212,214,213)">◉</text>
  <text x="417.59999999999957" y="36" fill="rgb(200,202,201)">○</text>
  <text x="424.79999999999956" y="36" fill="rgb(164,166,165)">*</text>
  <text x="431.99999999999955" y="36" fill="rgb(98,100,99)">·</text>
  <text x="475.1999999999995" y="36" fill="rgb(85,85,85)">·</text>
  <text x="482.39999999999947" y="36" fill="rgb(151,153,152)">*</text>
  <text x="489.59999999999945" y="36" fill="rgb(193,196,195)">○</text>
  <text x="496.79999999999944" y="36" fill="rgb(209,212,211)">◉</text>
  <text x="503.99999999999943" y="36" fill="rgb(209,212,211)">◉</text>
  <text x="511.1999999999994" y="36" fill="rgb(207,209,208)">○</text>
  <text x="518.3999999999994" y="36" fill="rgb(209,212,211)">◉</text>
  <text x="525.5999999999995" y="36" fill="rgb(202,204,203)">○</text>
  <text x="532.7999999999995" y="36" fill="rgb(169,172,171)">○</text>
  <text x="539.9999999999995" y="36" fill="rgb(108,110,109)">·</text>
  <text x="136.8" y="48" fill="rgb(137,139,138)">*</text>
  <text x="144.0" y="48" fill="rgb(223,224,223)">◉</text>
  <text x="151.2" y="48" fill="rgb(221,223,222)">◉</text>
  <text x="158.39999999999998" y="48" fill="rgb(157,159,158)">*</text>
  <text x="165.59999999999997" y="48" fill="rgb(96,97,96)">·</text>
  <text x="172.79999999999995" y="48" fill="rgb(61,62,62)">.</text>
  <text x="179.99999999999994" y="48" fill="rgb(46,46,46)">.</text>
  <text x="187.19999999999993" y="48" fill="rgb(49,49,49)">.</text>
  <text x="194.39999999999992" y="48" fill="rgb(71,72,71)">.</text>
  <text x="201.5999999999999" y="48" fill="rgb(115,116,116)">·</text>
  <text x="208.7999999999999" y="48" fill="rgb(183,185,184)">○</text>
  <text x="215.9999999999999" y="48" fill="rgb(233,235,234)">◉</text>
  <text x="223.19999999999987" y="48" fill="rgb(200,202,201)">○</text>
  <text x="230.39999999999986" y="48" fill="rgb(89,90,90)">·</text>
  <text x="244.79999999999984" y="48" fill="rgb(121,123,122)">·</text>
  <text x="251.99999999999983" y="48" fill="rgb(216,218,217)">◉</text>
  <text x="259.1999999999998" y="48" fill="rgb(224,226,225)">◉</text>
  <text x="266.3999999999998" y="48" fill="rgb(164,166,165)">*</text>
  <text x="273.5999999999998" y="48" fill="rgb(102,103,103)">·</text>
  <text x="280.7999999999998" y="48" fill="rgb(65,65,65)">.</text>
  <text x="287.9999999999998" y="48" fill="rgb(47,48,48)">.</text>
  <text x="295.19999999999976" y="48" fill="rgb(47,49,48)">.</text>
  <text x="302.39999999999975" y="48" fill="rgb(68,69,68)">.</text>
  <text x="309.59999999999974" y="48" fill="rgb(109,110,110)">·</text>
  <text x="316.7999999999997" y="48" fill="rgb(175,177,176)">○</text>
  <text x="323.9999999999997" y="48" fill="rgb(228,230,229)">◉</text>
  <text x="331.1999999999997" y="48" fill="rgb(209,211,210)">◉</text>
  <text x="338.3999999999997" y="48" fill="rgb(104,106,105)">·</text>
  <text x="352.79999999999967" y="48" fill="rgb(106,108,107)">·</text>
  <text x="359.99999999999966" y="48" fill="rgb(209,211,210)">◉</text>
  <text x="367.19999999999965" y="48" fill="rgb(230,232,231)">◉</text>
  <text x="374.39999999999964" y="48" fill="rgb(175,177,176)">○</text>
  <text x="381.5999999999996" y="48" fill="rgb(108,109,109)">·</text>
  <text x="388.7999999999996" y="48" fill="rgb(67,69,68)">.</text>
  <text x="395.9999999999996" y="48" fill="rgb(47,49,48)">.</text>
  <text x="403.1999999999996" y="48" fill="rgb(46,48,47)">.</text>
  <text x="410.3999999999996" y="48" fill="rgb(65,66,66)">.</text>
  <text x="417.59999999999957" y="48" fill="rgb(103,105,104)">·</text>
  <text x="424.79999999999956" y="48" fill="rgb(167,169,168)">○</text>
  <text x="431.99999999999955" y="48" fill="rgb(227,229,228)">◉</text>
  <text x="439.19999999999953" y="48" fill="rgb(215,217,216)">◉</text>
  <text x="446.3999999999995" y="48" fill="rgb(118,120,119)">·</text>
  <text x="460.7999999999995" y="48" fill="rgb(90,91,90)">·</text>
  <text x="467.9999999999995" y="48" fill="rgb(202,203,202)">○</text>
  <text x="475.1999999999995" y="48" fill="rgb(233,234,233)">◉</text>
  <text x="482.39999999999947" y="48" fill="rgb(181,183,182)">○</text>
  <text x="489.59999999999945" y="48" fill="rgb(115,116,116)">·</text>
  <text x="496.79999999999944" y="48" fill="rgb(69,71,70)">.</text>
  <text x="503.99999999999943" y="48" fill="rgb(71,73,72)">.</text>
  <text x="511.1999999999994" y="48" fill="rgb(93,95,94)">·</text>
  <text x="518.3999999999994" y="48" fill="rgb(79,81,80)">.</text>
  <text x="525.5999999999995" y="48" fill="rgb(96,97,97)">·</text>
  <text x="532.7999999999995" y="48" fill="rgb(157,159,158)">*</text>
  <text x="539.9999999999995" y="48" fill="rgb(221,222,221)">◉</text>
  <text x="547.1999999999996" y="48" fill="rgb(222,224,223)">◉</text>
  <text x="554.3999999999996" y="48" fill="rgb(135,137,136)">*</text>
  <text x="129.60000000000002" y="60" fill="rgb(183,185,184)">○</text>
  <text x="136.8" y="60" fill="rgb(237,239,238)">◉</text>
  <text x="144.0" y="60" fill="rgb(159,161,160)">*</text>
  <text x="215.9999999999999" y="60" fill="rgb(74,75,75)">.</text>
  <text x="223.19999999999987" y="60" fill="rgb(204,206,205)">○</text>
  <text x="230.39999999999986" y="60" fill="rgb(227,229,228)">◉</text>
  <text x="237.59999999999985" y="60" fill="rgb(197,199,198)">○</text>
  <text x="244.79999999999984" y="60" fill="rgb(234,236,235)">◉</text>
  <text x="251.99999999999983" y="60" fill="rgb(175,177,176)">○</text>
  <text x="259.1999999999998" y="60" fill="rgb(48,49,48)">.</text>
  <text x="323.9999999999997" y="60" fill="rgb(61,63,62)">.</text>
  <text x="331.1999999999997" y="60" fill="rgb(192,193,193)">○</text>
  <text x="338.3999999999997" y="60" fill="rgb(230,232,231)">◉</text>
  <text x="345.5999999999997" y="60" fill="rgb(198,200,199)">○</text>
  <text x="352.79999999999967" y="60" fill="rgb(231,233,232)">◉</text>
  <text x="359.99999999999966" y="60" fill="rgb(188,190,189)">○</text>
  <text x="367.19999999999965" y="60" fill="rgb(59,60,60)">.</text>
  <text x="431.99999999999955" y="60" fill="rgb(50,51,50)">.</text>
  <text x="439.19999999999953" y="60" fill="rgb(178,179,178)">○</text>
  <text x="446.3999999999995" y="60" fill="rgb(234,236,235)">◉</text>
  <text x="453.5999999999995" y="60" fill="rgb(196,198,197)">○</text>
  <text x="460.7999999999995" y="60" fill="rgb(227,230,229)">◉</text>
  <text x="467.9999999999995" y="60" fill="rgb(202,204,203)">○</text>
  <text x="475.1999999999995" y="60" fill="rgb(73,73,73)">.</text>
  <text x="503.99999999999943" y="60" fill="rgb(198,199,198)">○</text>
  <text x="511.1999999999994" y="60" fill="rgb(228,230,229)">◉</text>
  <text x="518.3999999999994" y="60" fill="rgb(175,177,176)">○</text>
  <text x="547.1999999999996" y="60" fill="rgb(159,160,160)">*</text>
  <text x="554.3999999999996" y="60" fill="rgb(236,239,238)">◉</text>
  <text x="561.5999999999997" y="60" fill="rgb(181,182,182)">○</text>
  <text x="122.40000000000003" y="72" fill="rgb(143,145,144)">*</text>
  <text x="129.60000000000002" y="72" fill="rgb(238,240,239)">◉</text>
  <text x="136.8" y="72" fill="rgb(171,173,172)">○</text>
  <text x="223.19999999999987" y="72" fill="rgb(55,56,56)">.</text>
  <text x="230.39999999999986" y="72" fill="rgb(216,218,217)">◉</text>
  <text x="237.59999999999985" y="72" fill="rgb(231,233,232)">◉</text>
  <text x="244.79999999999984" y="72" fill="rgb(190,192,191)">○</text>
  <text x="338.3999999999997" y="72" fill="rgb(205,207,206)">○</text>
  <text x="345.5999999999997" y="72" fill="rgb(231,233,232)">◉</text>
  <text x="352.79999999999967" y="72" fill="rgb(203,205,204)">○</text>
  <text x="446.3999999999995" y="72" fill="rgb(192,194,193)">○</text>
  <text x="453.5999999999995" y="72" fill="rgb(230,233,232)">◉</text>
  <text x="460.7999999999995" y="72" fill="rgb(214,217,216)">◉</text>
  <text x="467.9999999999995" y="72" fill="rgb(53,54,54)">.</text>
  <text x="503.99999999999943" y="72" fill="rgb(90,90,90)">·</text>
  <text x="511.1999999999994" y="72" fill="rgb(145,145,145)">*</text>
  <text x="518.3999999999994" y="72" fill="rgb(93,93,93)">·</text>
  <text x="554.3999999999996" y="72" fill="rgb(179,181,180)">○</text>
  <text x="561.5999999999997" y="72" fill="rgb(237,240,239)">◉</text>
  <text x="568.7999999999997" y="72" fill="rgb(138,139,138)">*</text>
  <text x="64.80000000000001" y="84" fill="rgb(45,45,45)">.</text>
  <text x="72.00000000000001" y="84" fill="rgb(190,192,191)">○</text>
  <text x="79.20000000000002" y="84" fill="rgb(201,202,201)">○</text>
  <text x="86.40000000000002" y="84" fill="rgb(201,203,202)">○</text>
  <text x="93.60000000000002" y="84" fill="rgb(205,207,206)">○</text>
  <text x="100.80000000000003" y="84" fill="rgb(205,208,207)">○</text>
  <text x="108.00000000000003" y="84" fill="rgb(205,208,207)">○</text>
  <text x="115.20000000000003" y="84" fill="rgb(205,208,207)">○</text>
  <text x="122.40000000000003" y="84" fill="rgb(224,227,226)">◉</text>
  <text x="129.60000000000002" y="84" fill="rgb(231,234,233)">◉</text>
  <text x="136.8" y="84" fill="rgb(92,94,93)">·</text>
  <text x="179.99999999999994" y="84" fill="rgb(181,183,182)">○</text>
  <text x="187.19999999999993" y="84" fill="rgb(184,186,185)">○</text>
  <text x="230.39999999999986" y="84" fill="rgb(170,172,171)">○</text>
  <text x="237.59999999999985" y="84" fill="rgb(238,240,239)">◉</text>
  <text x="244.79999999999984" y="84" fill="rgb(117,119,118)">·</text>
  <text x="287.9999999999998" y="84" fill="rgb(169,169,169)">○</text>
  <text x="295.19999999999976" y="84" fill="rgb(194,196,195)">○</text>
  <text x="302.39999999999975" y="84" fill="rgb(44,45,44)">.</text>
  <text x="338.3999999999997" y="84" fill="rgb(145,146,145)">*</text>
  <text x="345.5999999999997" y="84" fill="rgb(239,241,240)">◉</text>
  <text x="352.79999999999967" y="84" fill="rgb(142,144,143)">*</text>
  <text x="395.9999999999996" y="84" fill="rgb(151,151,151)">*</text>
  <text x="403.1999999999996" y="84" fill="rgb(203,203,203)">○</text>
  <text x="410.3999999999996" y="84" fill="rgb(67,67,67)">.</text>
  <text x="446.3999999999995" y="84" fill="rgb(120,122,121)">·</text>
  <text x="453.5999999999995" y="84" fill="rgb(237,240,239)">◉</text>
  <text x="460.7999999999995" y="84" fill="rgb(165,167,166)">*</text>
  <text x="503.99999999999943" y="84" fill="rgb(123,125,124)">·</text>
  <text x="511.1999999999994" y="84" fill="rgb(196,197,196)">○</text>
  <text x="518.3999999999994" y="84" fill="rgb(198,199,199)">○</text>
  <text x="525.5999999999995" y="84" fill="rgb(204,206,205)">○</text>
  <text x="532.7999999999995" y="84" fill="rgb(204,207,206)">○</text>
  <text x="539.9999999999995" y="84" fill="rgb(204,207,206)">○</text>
  <text x="547.1999999999996" y="84" fill="rgb(202,204,203)">○</text>
  <text x="554.3999999999996" y="84" fill="rgb(214,216,215)">◉</text>
  <text x="561.5999999999997" y="84" fill="rgb(232,234,233)">◉</text>
  <text x="568.7999999999997" y="84" fill="rgb(180,182,181)">○</text>
  <text x="64.80000000000001" y="96" fill="rgb(43,45,44)">.</text>
  <text x="72.00000000000001" y="96" fill="rgb(221,223,222)">◉</text>
  <text x="79.20000000000002" y="96" fill="rgb(229,232,230)">◉</text>
  <text x="86.40000000000002" y="96" fill="rgb(126,128,127)">*</text>
  <text x="93.60000000000002" y="96" fill="rgb(67,68,68)">.</text>
  <text x="100.80000000000003" y="96" fill="rgb(73,74,74)">.</text>
  <text x="108.00000000000003" y="96" fill="rgb(74,75,74)">.</text>
  <text x="115.20000000000003" y="96" fill="rgb(73,74,74)">.</text>
  <text x="122.40000000000003" y="96" fill="rgb(72,73,72)">.</text>
  <text x="129.60000000000002" y="96" fill="rgb(63,64,63)">.</text>
  <text x="172.79999999999995" y="96" fill="rgb(87,89,89)">·</text>
  <text x="179.99999999999994" y="96" fill="rgb(231,233,232)">◉</text>
  <text x="187.19999999999993" y="96" fill="rgb(233,235,234)">◉</text>
  <text x="194.39999999999992" y="96" fill="rgb(92,94,93)">·</text>
  <text x="237.59999999999985" y="96" fill="rgb(64,65,65)">.</text>
  <text x="280.7999999999998" y="96" fill="rgb(64,65,64)">.</text>
  <text x="287.9999999999998" y="96" fill="rgb(226,228,227)">◉</text>
  <text x="295.19999999999976" y="96" fill="rgb(234,236,235)">◉</text>
  <text x="302.39999999999975" y="96" fill="rgb(115,117,116)">·</text>
  <text x="345.5999999999997" y="96" fill="rgb(67,67,67)">.</text>
  <text x="388.7999999999996" y="96" fill="rgb(42,44,43)">.</text>
  <text x="395.9999999999996" y="96" fill="rgb(217,219,218)">◉</text>
  <text x="403.1999999999996" y="96" fill="rgb(235,237,236)">◉</text>
  <text x="410.3999999999996" y="96" fill="rgb(142,143,142)">*</text>
  <text x="453.5999999999995" y="96" fill="rgb(65,66,66)">.</text>
  <text x="503.99999999999943" y="96" fill="rgb(207,209,208)">○</text>
  <text x="511.1999999999994" y="96" fill="rgb(234,236,235)">◉</text>
  <text x="518.3999999999994" y="96" fill="rgb(127,128,127)">*</text>
  <text x="525.5999999999995" y="96" fill="rgb(71,73,72)">.</text>
  <text x="532.7999999999995" y="96" fill="rgb(72,73,73)">.</text>
  <text x="539.9999999999995" y="96" fill="rgb(72,73,73)">.</text>
  <text x="547.1999999999996" y="96" fill="rgb(73,74,73)">.</text>
  <text x="554.3999999999996" y="96" fill="rgb(71,72,72)">.</text>
  <text x="561.5999999999997" y="96" fill="rgb(70,72,71)">.</text>
  <text x="72.00000000000001" y="108" fill="rgb(125,128,127)">*</text>
  <text x="79.20000000000002" y="108" fill="rgb(236,238,237)">◉</text>
  <text x="86.40000000000002" y="108" fill="rgb(188,190,189)">○</text>
  <text x="93.60000000000002" y="108" fill="rgb(43,43,43)">.</text>
  <text x="165.59999999999997" y="108" fill="rgb(62,63,62)">.</text>
  <text x="172.79999999999995" y="108" fill="rgb(205,207,206)">○</text>
  <text x="179.99999999999994" y="108" fill="rgb(229,231,230)">◉</text>
  <text x="187.19999999999993" y="108" fill="rgb(228,230,229)">◉</text>
  <text x="194.39999999999992" y="108" fill="rgb(206,209,208)">○</text>
  <text x="201.5999999999999" y="108" fill="rgb(63,65,64)">.</text>
  <text x="273.5999999999998" y="108" fill="rgb(47,47,47)">.</text>
  <text x="280.7999999999998" y="108" fill="rgb(192,194,193)">○</text>
  <text x="287.9999999999998" y="108" fill="rgb(230,233,232)">◉</text>
  <text x="295.19999999999976" y="108" fill="rgb(226,229,228)">◉</text>
  <text x="302.39999999999975" y="108" fill="rgb(216,219,218)">◉</text>
  <text x="309.59999999999974" y="108" fill="rgb(81,82,82)">.</text>
  <text x="388.7999999999996" y="108" fill="rgb(177,179,178)">○</text>
  <text x="395.9999999999996" y="108" fill="rgb(232,233,233)">◉</text>
  <text x="403.1999999999996" y="108" fill="rgb(226,228,227)">◉</text>
  <text x="410.3999999999996" y="108" fill="rgb(224,226,225)">◉</text>
  <text x="417.59999999999957" y="108" fill="rgb(98,100,99)">·</text>
  <text x="496.79999999999944" y="108" fill="rgb(160,162,161)">*</text>
  <text x="503.99999999999943" y="108" fill="rgb(238,240,239)">◉</text>
  <text x="511.1999999999994" y="108" fill="rgb(171,173,172)">○</text>
  <text x="79.20000000000002" y="120" fill="rgb(116,118,117)">·</text>
  <text x="86.40000000000002" y="120" fill="rgb(222,224,223)">◉</text>
  <text x="93.60000000000002" y="120" fill="rgb(223,225,224)">◉</text>
  <text x="100.80000000000003" y="120" fill="rgb(138,140,139)">*</text>
  <text x="108.00000000000003" y="120" fill="rgb(60,61,61)">.</text>
  <text x="151.2" y="120" fill="rgb(67,68,67)">.</text>
  <text x="158.39999999999998" y="120" fill="rgb(148,149,149)">*</text>
  <text x="165.59999999999997" y="120" fill="rgb(228,230,229)">◉</text>
  <text x="172.79999999999995" y="120" fill="rgb(214,216,215)">◉</text>
  <text x="179.99999999999994" y="120" fill="rgb(101,102,102)">·</text>
  <text x="187.19999999999993" y="120" fill="rgb(99,101,100)">·</text>
  <text x="194.39999999999992" y="120" fill="rgb(214,216,215)">◉</text>
  <text x="201.5999999999999" y="120" fill="rgb(228,230,229)">◉</text>
  <text x="208.7999999999999" y="120" fill="rgb(151,152,152)">*</text>
  <text x="215.9999999999999" y="120" fill="rgb(68,68,68)">.</text>
  <text x="259.1999999999998" y="120" fill="rgb(60,61,61)">.</text>
  <text x="266.3999999999998" y="120" fill="rgb(137,139,138)">*</text>
  <text x="273.5999999999998" y="120" fill="rgb(222,224,223)">◉</text>
  <text x="280.7999999999998" y="120" fill="rgb(222,224,223)">◉</text>
  <text x="287.9999999999998" y="120" fill="rgb(116,118,117)">·</text>
  <text x="295.19999999999976" y="120" fill="rgb(87,89,88)">·</text>
  <text x="302.39999999999975" y="120" fill="rgb(204,206,205)">○</text>
  <text x="309.59999999999974" y="120" fill="rgb(234,236,235)">◉</text>
  <text x="316.7999999999997" y="120" fill="rgb(163,164,164)">*</text>
  <text x="323.9999999999997" y="120" fill="rgb(77,78,77)">.</text>
  <text x="367.19999999999965" y="120" fill="rgb(53,55,54)">.</text>
  <text x="374.39999999999964" y="120" fill="rgb(125,127,126)">*</text>
  <text x="381.5999999999996" y="120" fill="rgb(214,216,215)">◉</text>
  <text x="388.7999999999996" y="120" fill="rgb(229,231,230)">◉</text>
  <text x="395.9999999999996" y="120" fill="rgb(132,134,133)">*</text>
  <text x="403.1999999999996" y="120" fill="rgb(78,79,78)">.</text>
  <text x="410.3999999999996" y="120" fill="rgb(194,196,195)">○</text>
  <text x="417.59999999999957" y="120" fill="rgb(234,236,235)">◉</text>
  <text x="424.79999999999956" y="120" fill="rgb(173,175,174)">○</text>
  <text x="431.99999999999955" y="120" fill="rgb(85,86,85)">·</text>
  <text x="475.1999999999995" y="120" fill="rgb(48,49,48)">.</text>
  <text x="482.39999999999947" y="120" fill="rgb(114,115,115)">·</text>
  <text x="489.59999999999945" y="120" fill="rgb(205,207,206)">○</text>
  <text x="496.79999999999944" y="120" fill="rgb(231,233,232)">◉</text>
  <text x="503.99999999999943" y="120" fill="rgb(152,153,153)">*</text>
  <text x="86.40000000000002" y="132" fill="rgb(45,46,45)">.</text>
  <text x="93.60000000000002" y="132" fill="rgb(132,133,132)">*</text>
  <text x="100.80000000000003" y="132" fill="rgb(198,200,199)">○</text>
  <text x="108.00000000000003" y="132" fill="rgb(220,222,221)">◉</text>
  <text x="115.20000000000003" y="132" fill="rgb(210,212,211)">◉</text>
  <text x="122.40000000000003" y="132" fill="rgb(194,196,195)">○</text>
  <text x="129.60000000000002" y="132" fill="rgb(188,190,189)">○</text>
  <text x="136.8" y="132" fill="rgb(196,197,197)">○</text>
  <text x="144.0" y="132" fill="rgb(212,213,213)">◉</text>
  <text x="151.2" y="132" fill="rgb(220,222,221)">◉</text>
  <text x="158.39999999999998" y="132" fill="rgb(194,196,195)">○</text>
  <text x="165.59999999999997" y="132" fill="rgb(123,125,124)">·</text>
  <text x="201.5999999999999" y="132" fill="rgb(122,124,123)">·</text>
  <text x="208.7999999999999" y="132" fill="rgb(194,196,195)">○</text>
  <text x="215.9999999999999" y="132" fill="rgb(221,223,222)">◉</text>
  <text x="223.19999999999987" y="132" fill="rgb(214,215,214)">◉</text>
  <text x="230.39999999999986" y="132" fill="rgb(197,198,197)">○</text>
  <text x="237.59999999999985" y="132" fill="rgb(189,191,190)">○</text>
  <text x="244.79999999999984" y="132" fill="rgb(195,197,196)">○</text>
  <text x="251.99999999999983" y="132" fill="rgb(210,212,211)">◉</text>
  <text x="259.1999999999998" y="132" fill="rgb(220,223,221)">◉</text>
  <text x="266.3999999999998" y="132" fill="rgb(201,203,202)">○</text>
  <text x="273.5999999999998" y="132" fill="rgb(135,136,136)">*</text>
  <text x="280.7999999999998" y="132" fill="rgb(46,47,46)">.</text>
  <text x="309.59999999999974" y="132" fill="rgb(111,112,112)">·</text>
  <text x="316.7999999999997" y="132" fill="rgb(188,190,189)">○</text>
  <text x="323.9999999999997" y="132" fill="rgb(220,222,221)">◉</text>
  <text x="331.1999999999997" y="132" fill="rgb(215,217,216)">◉</text>
  <text x="338.3999999999997" y="132" fill="rgb(197,199,198)">○</text>
  <text x="345.5999999999997" y="132" fill="rgb(188,190,189)">○</text>
  <text x="352.79999999999967" y="132" fill="rgb(193,195,194)">○</text>
  <text x="359.99999999999966" y="132" fill="rgb(209,211,210)">◉</text>
  <text x="367.19999999999965" y="132" fill="rgb(221,223,222)">◉</text>
  <text x="374.39999999999964" y="132" fill="rgb(204,206,205)">○</text>
  <text x="381.5999999999996" y="132" fill="rgb(144,146,145)">*</text>
  <text x="388.7999999999996" y="132" fill="rgb(57,58,57)">.</text>
  <text x="417.59999999999957" y="132" fill="rgb(101,102,102)">·</text>
  <text x="424.79999999999956" y="132" fill="rgb(181,182,182)">○</text>
  <text x="431.99999999999955" y="132" fill="rgb(217,219,218)">◉</text>
  <text x="439.19999999999953" y="132" fill="rgb(217,217,217)">◉</text>
  <text x="446.3999999999995" y="132" fill="rgb(201,201,201)">○</text>
  <text x="453.5999999999995" y="132" fill="rgb(189,190,189)">○</text>
  <text x="460.7999999999995" y="132" fill="rgb(192,194,193)">○</text>
  <text x="467.9999999999995" y="132" fill="rgb(206,208,207)">○</text>
  <text x="475.1999999999995" y="132" fill="rgb(220,222,221)">◉</text>
  <text x="482.39999999999947" y="132" fill="rgb(209,212,211)">◉</text>
  <text x="489.59999999999945" y="132" fill="rgb(153,155,154)">*</text>
  <text x="496.79999999999944" y="132" fill="rgb(65,66,65)">.</text>
  <text x="108.00000000000003" y="144" fill="rgb(43,44,43)">.</text>
  <text x="115.20000000000003" y="144" fill="rgb(74,75,74)">.</text>
  <text x="122.40000000000003" y="144" fill="rgb(95,96,95)">·</text>
  <text x="129.60000000000002" y="144" fill="rgb(103,104,104)">·</text>
  <text x="136.8" y="144" fill="rgb(94,94,94)">·</text>
  <text x="144.0" y="144" fill="rgb(72,72,72)">.</text>
  <text x="223.19999999999987" y="144" fill="rgb(71,71,71)">.</text>
  <text x="230.39999999999986" y="144" fill="rgb(94,94,94)">·</text>
  <text x="237.59999999999985" y="144" fill="rgb(101,103,102)">·</text>
  <text x="244.79999999999984" y="144" fill="rgb(96,97,96)">·</text>
  <text x="251.99999999999983" y="144" fill="rgb(74,75,74)">.</text>
  <text x="259.1999999999998" y="144" fill="rgb(42,43,43)">.</text>
  <text x="331.1999999999997" y="144" fill="rgb(68,68,68)">.</text>
  <text x="338.3999999999997" y="144" fill="rgb(92,92,92)">·</text>
  <text x="345.5999999999997" y="144" fill="rgb(102,103,102)">·</text>
  <text x="352.79999999999967" y="144" fill="rgb(98,99,99)">·</text>
  <text x="359.99999999999966" y="144" fill="rgb(77,78,78)">.</text>
  <text x="367.19999999999965" y="144" fill="rgb(46,48,47)">.</text>
  <text x="439.19999999999953" y="144" fill="rgb(63,63,63)">.</text>
  <text x="446.3999999999995" y="144" fill="rgb(89,89,89)">·</text>
  <text x="453.5999999999995" y="144" fill="rgb(102,102,102)">·</text>
  <text x="460.7999999999995" y="144" fill="rgb(99,100,100)">·</text>
  <text x="467.9999999999995" y="144" fill="rgb(79,82,80)">.</text>
  <text x="475.1999999999995" y="144" fill="rgb(51,52,51)">.</text>
  <text x="86.40000000000002" y="168" fill="rgb(51,51,51)">.</text>
  <text x="93.60000000000002" y="168" fill="rgb(53,53,53)">.</text>
  <text x="100.80000000000003" y="168" fill="rgb(53,53,53)">.</text>
  <text x="108.00000000000003" y="168" fill="rgb(51,51,51)">.</text>
  <text x="129.60000000000002" y="168" fill="rgb(42,42,42)">.</text>
  <text x="158.39999999999998" y="168" fill="rgb(45,45,45)">.</text>
  <text x="223.19999999999987" y="168" fill="rgb(49,49,49)">.</text>
  <text x="230.39999999999986" y="168" fill="rgb(53,53,53)">.</text>
  <text x="237.59999999999985" y="168" fill="rgb(53,53,53)">.</text>
  <text x="244.79999999999984" y="168" fill="rgb(53,53,53)">.</text>
  <text x="287.9999999999998" y="168" fill="rgb(48,48,48)">.</text>
  <text x="295.19999999999976" y="168" fill="rgb(53,53,53)">.</text>
  <text x="302.39999999999975" y="168" fill="rgb(48,48,48)">.</text>
  <text x="309.59999999999974" y="168" fill="rgb(43,43,43)">.</text>
  <text x="316.7999999999997" y="168" fill="rgb(52,52,52)">.</text>
  <text x="323.9999999999997" y="168" fill="rgb(53,53,53)">.</text>
  <text x="345.5999999999997" y="168" fill="rgb(43,43,43)">.</text>
  <text x="410.3999999999996" y="168" fill="rgb(46,46,46)">.</text>
  <text x="446.3999999999995" y="168" fill="rgb(43,43,43)">.</text>
  <text x="475.1999999999995" y="168" fill="rgb(46,46,46)">.</text>
  <text x="482.39999999999947" y="168" fill="rgb(53,53,53)">.</text>
  <text x="489.59999999999945" y="168" fill="rgb(53,53,53)">.</text>
  <text x="496.79999999999944" y="168" fill="rgb(53,53,53)">.</text>
  <text x="532.7999999999995" y="168" fill="rgb(52,52,52)">.</text>
  <text x="539.9999999999995" y="168" fill="rgb(53,53,53)">.</text>
  <text x="547.1999999999996" y="168" fill="rgb(53,53,53)">.</text>
  <text x="72.00000000000001" y="180" fill="rgb(69,69,69)">.</text>
  <text x="79.20000000000002" y="180" fill="rgb(249,249,249)">◉</text>
  <text x="86.40000000000002" y="180" fill="rgb(159,159,159)">*</text>
  <text x="93.60000000000002" y="180" fill="rgb(134,134,134)">*</text>
  <text x="100.80000000000003" y="180" fill="rgb(131,131,131)">*</text>
  <text x="108.00000000000003" y="180" fill="rgb(131,131,131)">*</text>
  <text x="122.40000000000003" y="180" fill="rgb(101,101,101)">·</text>
  <text x="129.60000000000002" y="180" fill="rgb(248,248,248)">◉</text>
  <text x="151.2" y="180" fill="rgb(215,215,215)">◉</text>
  <text x="158.39999999999998" y="180" fill="rgb(255,255,255)">◉</text>
  <text x="165.59999999999997" y="180" fill="rgb(181,181,181)">○</text>
  <text x="187.19999999999993" y="180" fill="rgb(115,115,115)">·</text>
  <text x="194.39999999999992" y="180" fill="rgb(241,241,241)">◉</text>
  <text x="215.9999999999999" y="180" fill="rgb(243,243,243)">◉</text>
  <text x="223.19999999999987" y="180" fill="rgb(176,176,176)">○</text>
  <text x="230.39999999999986" y="180" fill="rgb(134,134,134)">*</text>
  <text x="237.59999999999985" y="180" fill="rgb(131,131,131)">*</text>
  <text x="244.79999999999984" y="180" fill="rgb(134,134,134)">*</text>
  <text x="251.99999999999983" y="180" fill="rgb(53,53,53)">.</text>
  <text x="287.9999999999998" y="180" fill="rgb(124,124,124)">·</text>
  <text x="295.19999999999976" y="180" fill="rgb(136,136,136)">*</text>
  <text x="302.39999999999975" y="180" fill="rgb(186,186,186)">○</text>
  <text x="309.59999999999974" y="180" fill="rgb(248,248,248)">◉</text>
  <text x="316.7999999999997" y="180" fill="rgb(148,148,148)">*</text>
  <text x="323.9999999999997" y="180" fill="rgb(136,136,136)">*</text>
  <text x="331.1999999999997" y="180" fill="rgb(77,77,77)">.</text>
  <text x="338.3999999999997" y="180" fill="rgb(56,56,56)">.</text>
  <text x="345.5999999999997" y="180" fill="rgb(250,250,250)">◉</text>
  <text x="352.79999999999967" y="180" fill="rgb(62,62,62)">.</text>
  <text x="381.5999999999996" y="180" fill="rgb(241,241,241)">◉</text>
  <text x="388.7999999999996" y="180" fill="rgb(116,116,116)">·</text>
  <text x="403.1999999999996" y="180" fill="rgb(149,149,149)">*</text>
  <text x="410.3999999999996" y="180" fill="rgb(253,253,253)">◉</text>
  <text x="417.59999999999957" y="180" fill="rgb(230,230,230)">◉</text>
  <text x="446.3999999999995" y="180" fill="rgb(250,250,250)">◉</text>
  <text x="453.5999999999995" y="180" fill="rgb(82,82,82)">.</text>
  <text x="467.9999999999995" y="180" fill="rgb(196,196,196)">○</text>
  <text x="475.1999999999995" y="180" fill="rgb(213,213,213)">◉</text>
  <text x="482.39999999999947" y="180" fill="rgb(135,135,135)">*</text>
  <text x="489.59999999999945" y="180" fill="rgb(131,131,131)">*</text>
  <text x="496.79999999999944" y="180" fill="rgb(133,133,133)">*</text>
  <text x="503.99999999999943" y="180" fill="rgb(94,94,94)">·</text>
  <text x="518.3999999999994" y="180" fill="rgb(112,112,112)">·</text>
  <text x="525.5999999999995" y="180" fill="rgb(222,222,222)">◉</text>
  <text x="532.7999999999995" y="180" fill="rgb(142,142,142)">*</text>
  <text x="539.9999999999995" y="180" fill="rgb(134,134,134)">*</text>
  <text x="547.1999999999996" y="180" fill="rgb(136,136,136)">*</text>
  <text x="554.3999999999996" y="180" fill="rgb(202,202,202)">○</text>
  <text x="561.5999999999997" y="180" fill="rgb(191,191,191)">○</text>
  <text x="72.00000000000001" y="192" fill="rgb(77,77,77)">.</text>
  <text x="79.20000000000002" y="192" fill="rgb(255,255,255)">◉</text>
  <text x="86.40000000000002" y="192" fill="rgb(44,44,44)">.</text>
  <text x="122.40000000000003" y="192" fill="rgb(109,109,109)">·</text>
  <text x="129.60000000000002" y="192" fill="rgb(255,255,255)">◉</text>
  <text x="151.2" y="192" fill="rgb(235,235,235)">◉</text>
  <text x="158.39999999999998" y="192" fill="rgb(181,181,181)">○</text>
  <text x="165.59999999999997" y="192" fill="rgb(226,226,226)">◉</text>
  <text x="172.79999999999995" y="192" fill="rgb(129,129,129)">*</text>
  <text x="187.19999999999993" y="192" fill="rgb(121,121,121)">·</text>
  <text x="194.39999999999992" y="192" fill="rgb(248,248,248)">◉</text>
  <text x="215.9999999999999" y="192" fill="rgb(255,255,255)">◉</text>
  <text x="223.19999999999987" y="192" fill="rgb(83,83,83)">.</text>
  <text x="302.39999999999975" y="192" fill="rgb(109,109,109)">·</text>
  <text x="309.59999999999974" y="192" fill="rgb(251,251,251)">◉</text>
  <text x="338.3999999999997" y="192" fill="rgb(65,65,65)">.</text>
  <text x="345.5999999999997" y="192" fill="rgb(255,255,255)">◉</text>
  <text x="352.79999999999967" y="192" fill="rgb(66,66,66)">.</text>
  <text x="381.5999999999996" y="192" fill="rgb(248,248,248)">◉</text>
  <text x="388.7999999999996" y="192" fill="rgb(122,122,122)">·</text>
  <text x="403.1999999999996" y="192" fill="rgb(167,167,167)">*</text>
  <text x="410.3999999999996" y="192" fill="rgb(224,224,224)">◉</text>
  <text x="417.59999999999957" y="192" fill="rgb(183,183,183)">○</text>
  <text x="424.79999999999956" y="192" fill="rgb(202,202,202)">○</text>
  <text x="446.3999999999995" y="192" fill="rgb(255,255,255)">◉</text>
  <text x="453.5999999999995" y="192" fill="rgb(87,87,87)">·</text>
  <text x="467.9999999999995" y="192" fill="rgb(213,213,213)">◉</text>
  <text x="475.1999999999995" y="192" fill="rgb(170,170,170)">○</text>
  <text x="518.3999999999994" y="192" fill="rgb(185,185,185)">○</text>
  <text x="525.5999999999995" y="192" fill="rgb(225,225,225)">◉</text>
  <text x="554.3999999999996" y="192" fill="rgb(70,70,70)">.</text>
  <text x="561.5999999999997" y="192" fill="rgb(154,154,154)">*</text>
  <text x="72.00000000000001" y="204" fill="rgb(76,76,76)">.</text>
  <text x="79.20000000000002" y="204" fill="rgb(255,255,255)">◉</text>
  <text x="86.40000000000002" y="204" fill="rgb(44,44,44)">.</text>
  <text x="93.60000000000002" y="204" fill="rgb(120,120,120)">·</text>
  <text x="100.80000000000003" y="204" fill="rgb(219,219,219)">◉</text>
  <text x="108.00000000000003" y="204" fill="rgb(52,52,52)">.</text>
  <text x="122.40000000000003" y="204" fill="rgb(108,108,108)">·</text>
  <text x="129.60000000000002" y="204" fill="rgb(253,253,253)">◉</text>
  <text x="151.2" y="204" fill="rgb(238,238,238)">◉</text>
  <text x="158.39999999999998" y="204" fill="rgb(128,128,128)">*</text>
  <text x="165.59999999999997" y="204" fill="rgb(63,63,63)">.</text>
  <text x="172.79999999999995" y="204" fill="rgb(251,251,251)">◉</text>
  <text x="179.99999999999994" y="204" fill="rgb(57,57,57)">.</text>
  <text x="187.19999999999993" y="204" fill="rgb(109,109,109)">·</text>
  <text x="194.39999999999992" y="204" fill="rgb(246,246,246)">◉</text>
  <text x="215.9999999999999" y="204" fill="rgb(255,255,255)">◉</text>
  <text x="223.19999999999987" y="204" fill="rgb(81,81,81)">.</text>
  <text x="230.39999999999986" y="204" fill="rgb(83,83,83)">.</text>
  <text x="237.59999999999985" y="204" fill="rgb(221,221,221)">◉</text>
  <text x="244.79999999999984" y="204" fill="rgb(83,83,83)">.</text>
  <text x="302.39999999999975" y="204" fill="rgb(113,113,113)">·</text>
  <text x="309.59999999999974" y="204" fill="rgb(250,250,250)">◉</text>
  <text x="338.3999999999997" y="204" fill="rgb(64,64,64)">.</text>
  <text x="345.5999999999997" y="204" fill="rgb(255,255,255)">◉</text>
  <text x="352.79999999999967" y="204" fill="rgb(65,65,65)">.</text>
  <text x="381.5999999999996" y="204" fill="rgb(246,246,246)">◉</text>
  <text x="388.7999999999996" y="204" fill="rgb(121,121,121)">·</text>
  <text x="403.1999999999996" y="204" fill="rgb(167,167,167)">*</text>
  <text x="410.3999999999996" y="204" fill="rgb(212,212,212)">◉</text>
  <text x="424.79999999999956" y="204" fill="rgb(227,227,227)">◉</text>
  <text x="431.99999999999955" y="204" fill="rgb(135,135,135)">*</text>
  <text x="446.3999999999995" y="204" fill="rgb(255,255,255)">◉</text>
  <text x="453.5999999999995" y="204" fill="rgb(86,86,86)">·</text>
  <text x="467.9999999999995" y="204" fill="rgb(211,211,211)">◉</text>
  <text x="475.1999999999995" y="204" fill="rgb(167,167,167)">*</text>
  <text x="489.59999999999945" y="204" fill="rgb(215,215,215)">◉</text>
  <text x="496.79999999999944" y="204" fill="rgb(151,151,151)">*</text>
  <text x="518.3999999999994" y="204" fill="rgb(57,57,57)">.</text>
  <text x="525.5999999999995" y="204" fill="rgb(168,168,168)">○</text>
  <text x="532.7999999999995" y="204" fill="rgb(163,163,163)">*</text>
  <text x="539.9999999999995" y="204" fill="rgb(159,159,159)">*</text>
  <text x="547.1999999999996" y="204" fill="rgb(160,160,160)">*</text>
  <text x="554.3999999999996" y="204" fill="rgb(177,177,177)">○</text>
  <text x="561.5999999999997" y="204" fill="rgb(110,110,110)">·</text>
  <text x="72.00000000000001" y="216" fill="rgb(76,76,76)">.</text>
  <text x="79.20000000000002" y="216" fill="rgb(255,255,255)">◉</text>
  <text x="86.40000000000002" y="216" fill="rgb(51,51,51)">.</text>
  <text x="122.40000000000003" y="216" fill="rgb(108,108,108)">·</text>
  <text x="129.60000000000002" y="216" fill="rgb(254,254,254)">◉</text>
  <text x="151.2" y="216" fill="rgb(239,239,239)">◉</text>
  <text x="158.39999999999998" y="216" fill="rgb(139,139,139)">*</text>
  <text x="172.79999999999995" y="216" fill="rgb(137,137,137)">*</text>
  <text x="179.99999999999994" y="216" fill="rgb(221,221,221)">◉</text>
  <text x="187.19999999999993" y="216" fill="rgb(154,154,154)">*</text>
  <text x="194.39999999999992" y="216" fill="rgb(243,243,243)">◉</text>
  <text x="215.9999999999999" y="216" fill="rgb(255,255,255)">◉</text>
  <text x="223.19999999999987" y="216" fill="rgb(82,82,82)">.</text>
  <text x="302.39999999999975" y="216" fill="rgb(113,113,113)">·</text>
  <text x="309.59999999999974" y="216" fill="rgb(250,250,250)">◉</text>
  <text x="338.3999999999997" y="216" fill="rgb(66,66,66)">.</text>
  <text x="345.5999999999997" y="216" fill="rgb(255,255,255)">◉</text>
  <text x="352.79999999999967" y="216" fill="rgb(58,58,58)">.</text>
  <text x="381.5999999999996" y="216" fill="rgb(248,248,248)">◉</text>
  <text x="388.7999999999996" y="216" fill="rgb(125,125,125)">·</text>
  <text x="403.1999999999996" y="216" fill="rgb(167,167,167)">*</text>
  <text x="410.3999999999996" y="216" fill="rgb(218,218,218)">◉</text>
  <text x="424.79999999999956" y="216" fill="rgb(62,62,62)">.</text>
  <text x="431.99999999999955" y="216" fill="rgb(245,245,245)">◉</text>
  <text x="439.19999999999953" y="216" fill="rgb(131,131,131)">*</text>
  <text x="446.3999999999995" y="216" fill="rgb(253,253,253)">◉</text>
  <text x="453.5999999999995" y="216" fill="rgb(86,86,86)">·</text>
  <text x="467.9999999999995" y="216" fill="rgb(212,212,212)">◉</text>
  <text x="475.1999999999995" y="216" fill="rgb(169,169,169)">○</text>
  <text x="518.3999999999994" y="216" fill="rgb(96,96,96)">·</text>
  <text x="525.5999999999995" y="216" fill="rgb(111,111,111)">·</text>
  <text x="554.3999999999996" y="216" fill="rgb(130,130,130)">*</text>
  <text x="561.5999999999997" y="216" fill="rgb(255,255,255)">◉</text>
  <text x="72.00000000000001" y="228" fill="rgb(76,76,76)">.</text>
  <text x="79.20000000000002" y="228" fill="rgb(255,255,255)">◉</text>
  <text x="86.40000000000002" y="228" fill="rgb(52,52,52)">.</text>
  <text x="122.40000000000003" y="228" fill="rgb(109,109,109)">·</text>
  <text x="129.60000000000002" y="228" fill="rgb(255,255,255)">◉</text>
  <text x="151.2" y="228" fill="rgb(242,242,242)">◉</text>
  <text x="158.39999999999998" y="228" fill="rgb(140,140,140)">*</text>
  <text x="179.99999999999994" y="228" fill="rgb(190,190,190)">○</text>
  <text x="187.19999999999993" y="228" fill="rgb(255,255,255)">◉</text>
  <text x="194.39999999999992" y="228" fill="rgb(234,234,234)">◉</text>
  <text x="215.9999999999999" y="228" fill="rgb(255,255,255)">◉</text>
  <text x="223.19999999999987" y="228" fill="rgb(165,165,165)">*</text>
  <text x="230.39999999999986" y="228" fill="rgb(112,112,112)">·</text>
  <text x="237.59999999999985" y="228" fill="rgb(110,110,110)">·</text>
  <text x="244.79999999999984" y="228" fill="rgb(113,113,113)">·</text>
  <text x="251.99999999999983" y="228" fill="rgb(67,67,67)">.</text>
  <text x="302.39999999999975" y="228" fill="rgb(114,114,114)">·</text>
  <text x="309.59999999999974" y="228" fill="rgb(255,255,255)">◉</text>
  <text x="345.5999999999997" y="228" fill="rgb(228,228,228)">◉</text>
  <text x="352.79999999999967" y="228" fill="rgb(165,165,165)">*</text>
  <text x="359.99999999999966" y="228" fill="rgb(113,113,113)">·</text>
  <text x="367.19999999999965" y="228" fill="rgb(113,113,113)">·</text>
  <text x="374.39999999999964" y="228" fill="rgb(139,139,139)">*</text>
  <text x="381.5999999999996" y="228" fill="rgb(239,239,239)">◉</text>
  <text x="388.7999999999996" y="228" fill="rgb(82,82,82)">.</text>
  <text x="403.1999999999996" y="228" fill="rgb(169,169,169)">○</text>
  <text x="410.3999999999996" y="228" fill="rgb(220,220,220)">◉</text>
  <text x="431.99999999999955" y="228" fill="rgb(119,119,119)">·</text>
  <text x="439.19999999999953" y="228" fill="rgb(255,255,255)">◉</text>
  <text x="446.3999999999995" y="228" fill="rgb(255,255,255)">◉</text>
  <text x="453.5999999999995" y="228" fill="rgb(80,80,80)">.</text>
  <text x="467.9999999999995" y="228" fill="rgb(207,207,207)">○</text>
  <text x="475.1999999999995" y="228" fill="rgb(212,212,212)">◉</text>
  <text x="482.39999999999947" y="228" fill="rgb(113,113,113)">·</text>
  <text x="489.59999999999945" y="228" fill="rgb(110,110,110)">·</text>
  <text x="496.79999999999944" y="228" fill="rgb(112,112,112)">·</text>
  <text x="503.99999999999943" y="228" fill="rgb(97,97,97)">·</text>
  <text x="518.3999999999994" y="228" fill="rgb(136,136,136)">*</text>
  <text x="525.5999999999995" y="228" fill="rgb(240,240,240)">◉</text>
  <text x="532.7999999999995" y="228" fill="rgb(121,121,121)">·</text>
  <text x="539.9999999999995" y="228" fill="rgb(112,112,112)">·</text>
  <text x="547.1999999999996" y="228" fill="rgb(113,113,113)">·</text>
  <text x="554.3999999999996" y="228" fill="rgb(192,192,192)">○</text>
  <text x="561.5999999999997" y="228" fill="rgb(204,204,204)">○</text>
  <text x="79.20000000000002" y="240" fill="rgb(70,70,70)">.</text>
  <text x="129.60000000000002" y="240" fill="rgb(68,68,68)">.</text>
  <text x="151.2" y="240" fill="rgb(63,63,63)">.</text>
  <text x="187.19999999999993" y="240" fill="rgb(70,70,70)">.</text>
  <text x="194.39999999999992" y="240" fill="rgb(51,51,51)">.</text>
  <text x="215.9999999999999" y="240" fill="rgb(61,61,61)">.</text>
  <text x="223.19999999999987" y="240" fill="rgb(75,75,75)">.</text>
  <text x="230.39999999999986" y="240" fill="rgb(79,79,79)">.</text>
  <text x="237.59999999999985" y="240" fill="rgb(79,79,79)">.</text>
  <text x="244.79999999999984" y="240" fill="rgb(79,79,79)">.</text>
  <text x="251.99999999999983" y="240" fill="rgb(47,47,47)">.</text>
  <text x="309.59999999999974" y="240" fill="rgb(70,70,70)">.</text>
  <text x="352.79999999999967" y="240" fill="rgb(71,71,71)">.</text>
  <text x="359.99999999999966" y="240" fill="rgb(79,79,79)">.</text>
  <text x="367.19999999999965" y="240" fill="rgb(79,79,79)">.</text>
  <text x="374.39999999999964" y="240" fill="rgb(76,76,76)">.</text>
  <text x="403.1999999999996" y="240" fill="rgb(42,42,42)">.</text>
  <text x="410.3999999999996" y="240" fill="rgb(57,57,57)">.</text>
  <text x="439.19999999999953" y="240" fill="rgb(61,61,61)">.</text>
  <text x="446.3999999999995" y="240" fill="rgb(65,65,65)">.</text>
  <text x="467.9999999999995" y="240" fill="rgb(44,44,44)">.</text>
  <text x="475.1999999999995" y="240" fill="rgb(72,72,72)">.</text>
  <text x="482.39999999999947" y="240" fill="rgb(79,79,79)">.</text>
  <text x="489.59999999999945" y="240" fill="rgb(79,79,79)">.</text>
  <text x="496.79999999999944" y="240" fill="rgb(79,79,79)">.</text>
  <text x="503.99999999999943" y="240" fill="rgb(67,67,67)">.</text>
  <text x="525.5999999999995" y="240" fill="rgb(46,46,46)">.</text>
  <text x="532.7999999999995" y="240" fill="rgb(78,78,78)">.</text>
  <text x="539.9999999999995" y="240" fill="rgb(79,79,79)">.</text>
  <text x="547.1999999999996" y="240" fill="rgb(79,79,79)">.</text>
  <text x="554.3999999999996" y="240" fill="rgb(63,63,63)">.</text>
</svg>